SplineFontDB: 3.2
FontName: Atari-1025-Condensed
FullName: Atari 1025 Condensed Regular
FamilyName: Atari 1025 Condensed
Weight: Book
Copyright: Copyright Jeff Piepmeier 2020\n
Version: 1.0
ItalicAngle: 0
UnderlinePosition: 74
UnderlineWidth: 49
Ascent: 800
Descent: 200
InvalidEm: 0
sfntRevision: 0x00010000
LayerCount: 2
Layer: 0 1 "Back" 1
Layer: 1 1 "Fore" 0
XUID: [1021 362 -792500644 18594]
StyleMap: 0x0040
FSType: 4
OS2Version: 2
OS2_WeightWidthSlopeOnly: 0
OS2_UseTypoMetrics: 0
CreationTime: 1588422239
ModificationTime: 1589027338
PfmFamily: 81
TTFWeight: 400
TTFWidth: 5
LineGap: 0
VLineGap: 0
Panose: 0 0 4 0 0 0 0 0 0 0
OS2TypoAscent: 1000
OS2TypoAOffset: 0
OS2TypoDescent: 0
OS2TypoDOffset: 0
OS2TypoLinegap: 0
OS2WinAscent: 1000
OS2WinAOffset: 0
OS2WinDescent: 0
OS2WinDOffset: 0
HheadAscent: 1000
HheadAOffset: 0
HheadDescent: 0
HheadDOffset: 0
OS2SubXSize: 500
OS2SubYSize: 500
OS2SubXOff: 0
OS2SubYOff: 0
OS2SupXSize: 500
OS2SupYSize: 500
OS2SupXOff: 0
OS2SupYOff: 500
OS2StrikeYSize: 50
OS2StrikeYPos: 200
OS2CapHeight: 1000
OS2XHeight: 500
OS2Vendor: 'FSTR'
OS2CodePages: 00000011.00000000
OS2UnicodeRanges: 00000003.00000000.00000000.00000000
MarkAttachClasses: 1
DEI: 91125
ShortTable: maxp 16
  1
  0
  130
  391
  23
  0
  0
  2
  0
  0
  0
  0
  0
  0
  0
  0
EndShort
LangName: 1033 "Copyright jeffpiep 2020+AAogHAAA-Atari 1025 Normal, which is based on +IBwA-Atari 1025 Elongated" "" "Regular" "Atari 1025 Condensed" "" "Version 1.0" "" "" "" "" "" "" "" "Open Font License" "" "" "" "" "" "Five big quacking zephyrs jolt my wax bed"
Encoding: win
UnicodeInterp: none
NameList: AGL For New Fonts
DisplaySize: -48
AntiAlias: 1
FitToEm: 0
WinInfo: 69 23 9
BeginPrivate: 0
EndPrivate
BeginChars: 256 131

StartChar: exclam
Encoding: 33 33 1
Width: 363
VWidth: 599
Flags: W
LayerCount: 2
Fore
SplineSet
152 0 m 1,0,1
 139 0 139 0 130 14 c 0,2,3
 121 29 121 29 121 50 c 256,4,5
 121 70 121 70 130 85 c 0,6,7
 140 99 140 99 152 100 c 256,8,9
 165 100 165 100 173 85 c 0,10,11
 182 71 182 71 182 50 c 256,12,13
 182 30 182 30 173 14 c 0,14,15
 164 0 164 0 152 0 c 1,16,-1
 152 0 l 1,0,1
152 200 m 1,17,18
 139 200 139 200 130 215 c 0,19,20
 121 229 121 229 121 250 c 256,21,22
 121 270 121 270 130 286 c 0,23,24
 140 300 140 300 152 300 c 256,25,26
 165 300 165 300 173 286 c 0,27,28
 182 271 182 271 182 250 c 256,29,30
 182 230 182 230 173 215 c 0,31,32
 164 201 164 201 152 200 c 1,33,-1
 152 200 l 1,17,18
152 300 m 1,34,35
 139 300 139 300 130 314 c 0,36,37
 121 329 121 329 121 350 c 256,38,39
 121 370 121 370 130 385 c 0,40,41
 140 399 140 399 152 400 c 256,42,43
 165 400 165 400 173 385 c 0,44,45
 182 371 182 371 182 350 c 256,46,47
 182 330 182 330 173 314 c 0,48,49
 164 300 164 300 152 300 c 1,50,-1
 152 300 l 1,34,35
152 400 m 1,51,52
 139 400 139 400 130 415 c 0,53,54
 121 429 121 429 121 450 c 0,55,56
 121 470 121 470 130 485 c 0,57,58
 140 499 140 499 152 500 c 256,59,60
 165 500 165 500 173 485 c 0,61,62
 182 471 182 471 182 450 c 0,63,64
 182 429 182 429 173 415 c 0,65,66
 164 401 164 401 152 400 c 1,67,-1
 152 400 l 1,51,52
152 500 m 1,68,69
 139 500 139 500 130 515 c 0,70,71
 121 529 121 529 121 550 c 256,72,73
 121 570 121 570 130 586 c 0,74,75
 140 600 140 600 152 600 c 256,76,77
 165 600 165 600 173 586 c 0,78,79
 182 571 182 571 182 550 c 256,80,81
 182 530 182 530 173 515 c 0,82,83
 164 501 164 501 152 500 c 1,84,-1
 152 500 l 1,68,69
152 600 m 1,85,86
 139 600 139 600 130 614 c 0,87,88
 121 629 121 629 121 650 c 256,89,90
 121 670 121 670 130 685 c 0,91,92
 140 699 140 699 152 700 c 256,93,94
 165 700 165 700 173 685 c 0,95,96
 182 671 182 671 182 650 c 256,97,98
 182 630 182 630 173 614 c 0,99,100
 164 600 164 600 152 600 c 1,101,-1
 152 600 l 1,85,86
EndSplineSet
Validated: 5
EndChar

StartChar: quotedbl
Encoding: 34 34 2
Width: 363
VWidth: 599
Flags: W
LayerCount: 2
Fore
SplineSet
91 400 m 1,0,1
 78 400 78 400 69 415 c 256,2,3
 60.9 427.6 60.9 427.6 60.9 445.87 c 0,4,5
 60.9 469.8125 60.9 469.8125 69 485 c 256,6,7
 78 499 78 499 91 500 c 0,8,9
 104 500 104 500 112 485 c 256,10,11
 121 471 121 471 121 450 c 128,-1,12
 121 429 121 429 112 415 c 256,13,14
 103 401 103 401 91 400 c 1,15,-1
 91 400 l 1,0,1
212 400 m 1,16,17
 198 400 198 400 190 415 c 0,18,19
 181.9 427.6 181.9 427.6 181.9 445.87 c 0,20,21
 181.9 469.8125 181.9 469.8125 190 485 c 0,22,23
 199 499 199 499 212 500 c 0,24,25
 225 500 225 500 233 485 c 256,26,27
 242 471 242 471 242 450 c 128,-1,28
 242 429 242 429 233 415 c 256,29,30
 224 401 224 401 212 400 c 1,31,-1
 212 400 l 1,16,17
91 500 m 1,32,33
 78 500 78 500 69 515 c 256,34,35
 60.9 527.6 60.9 527.6 60.9 545.87 c 0,36,37
 60.9 569.8 60.9 569.8 69 586 c 0,38,39
 78 600 78 600 91 600 c 128,-1,40
 104 600 104 600 112 586 c 0,41,42
 121 571 121 571 121 550 c 256,43,44
 121 530 121 530 112 515 c 256,45,46
 103 501 103 501 91 500 c 1,47,-1
 91 500 l 1,32,33
212 500 m 1,48,49
 198 500 198 500 190 515 c 0,50,51
 181.9 527.6 181.9 527.6 181.9 545.87 c 0,52,53
 181.9 569.8 181.9 569.8 190 586 c 0,54,55
 199 600 199 600 212 600 c 128,-1,56
 225 600 225 600 233 586 c 0,57,58
 242 571 242 571 242 550 c 256,59,60
 242 530 242 530 233 515 c 256,61,62
 224 501 224 501 212 500 c 1,63,-1
 212 500 l 1,48,49
91 600 m 1,64,65
 78 600 78 600 69 614 c 0,66,67
 60.9 627.5 60.9 627.5 60.9 645.86 c 0,68,69
 60.9 669.8125 60.9 669.8125 69 685 c 256,70,71
 78 699 78 699 91 700 c 0,72,73
 104 700 104 700 112 685 c 256,74,75
 121 671 121 671 121 650 c 256,76,77
 121 630 121 630 112 614 c 0,78,79
 103 600 103 600 91 600 c 1,80,-1
 91 600 l 1,64,65
212 600 m 1,81,82
 198 600 198 600 190 614 c 0,83,84
 181.9 627.5 181.9 627.5 181.9 645.86 c 0,85,86
 181.9 669.8125 181.9 669.8125 190 685 c 0,87,88
 199 699 199 699 212 700 c 0,89,90
 225 700 225 700 233 685 c 256,91,92
 242 671 242 671 242 650 c 256,93,94
 242 630 242 630 233 614 c 0,95,96
 224 600 224 600 212 600 c 1,97,-1
 212 600 l 1,81,82
EndSplineSet
Validated: 524293
EndChar

StartChar: numbersign
Encoding: 35 35 3
Width: 363
VWidth: 599
Flags: W
LayerCount: 2
Fore
SplineSet
91 0 m 1,0,1
 78 0 78 0 69 14 c 0,2,3
 60.9 27.5 60.9 27.5 60.9 45.86 c 0,4,5
 60.9 69.8125 60.9 69.8125 69 85 c 256,6,7
 78 99 78 99 91 100 c 0,8,9
 104 100 104 100 112 85 c 256,10,11
 121 71 121 71 121 50 c 256,12,13
 121 30 121 30 112 14 c 0,14,15
 103 0 103 0 91 0 c 1,16,-1
 91 0 l 1,0,1
212 0 m 1,17,18
 198 0 198 0 190 14 c 0,19,20
 181.9 27.5 181.9 27.5 181.9 45.86 c 0,21,22
 181.9 69.8125 181.9 69.8125 190 85 c 0,23,24
 199 99 199 99 212 100 c 0,25,26
 225 100 225 100 233 85 c 256,27,28
 242 71 242 71 242 50 c 256,29,30
 242 30 242 30 233 14 c 0,31,32
 224 0 224 0 212 0 c 1,33,-1
 212 0 l 1,17,18
91 100 m 1,34,35
 78 100 78 100 69 115 c 256,36,37
 60.9 127.6 60.9 127.6 60.9 145.87 c 0,38,39
 60.9 169.8125 60.9 169.8125 69 185 c 256,40,41
 78 199 78 199 91 200 c 0,42,43
 104 200 104 200 112 185 c 256,44,45
 121 171 121 171 121 150 c 128,-1,46
 121 129 121 129 112 115 c 256,47,48
 103 101 103 101 91 100 c 1,49,-1
 91 100 l 1,34,35
212 100 m 1,50,51
 198 100 198 100 190 115 c 0,52,53
 181.9 127.6 181.9 127.6 181.9 145.87 c 0,54,55
 181.9 169.8125 181.9 169.8125 190 185 c 0,56,57
 199 199 199 199 212 200 c 0,58,59
 225 200 225 200 233 185 c 256,60,61
 242 171 242 171 242 150 c 128,-1,62
 242 129 242 129 233 115 c 256,63,64
 224 101 224 101 212 100 c 1,65,-1
 212 100 l 1,50,51
30 200 m 1,66,67
 17 200 17 200 9 215 c 0,68,69
 0 229 0 229 0 250 c 256,70,71
 0 270 0 270 9 286 c 0,72,73
 18 300 18 300 30 300 c 256,74,75
 43 300 43 300 52 286 c 0,76,77
 61 271 61 271 61 250 c 256,78,79
 61 230 61 230 52 215 c 0,80,81
 43 201 43 201 30 200 c 1,82,-1
 30 200 l 1,66,67
91 200 m 1,83,84
 78 200 78 200 69 215 c 256,85,86
 60.9 227.6 60.9 227.6 60.9 245.87 c 0,87,88
 60.9 269.8 60.9 269.8 69 286 c 0,89,90
 78 300 78 300 91 300 c 128,-1,91
 104 300 104 300 112 286 c 0,92,93
 121 271 121 271 121 250 c 256,94,95
 121 230 121 230 112 215 c 256,96,97
 103 201 103 201 91 200 c 1,98,-1
 91 200 l 1,83,84
152 200 m 1,99,100
 139 200 139 200 130 215 c 0,101,102
 121 229 121 229 121 250 c 256,103,104
 121 270 121 270 130 286 c 0,105,106
 140 300 140 300 152 300 c 256,107,108
 165 300 165 300 173 286 c 0,109,110
 182 271 182 271 182 250 c 256,111,112
 182 230 182 230 173 215 c 0,113,114
 164 201 164 201 152 200 c 1,115,-1
 152 200 l 1,99,100
212 200 m 1,116,117
 198 200 198 200 190 215 c 0,118,119
 181.9 227.6 181.9 227.6 181.9 245.87 c 0,120,121
 181.9 269.8 181.9 269.8 190 286 c 0,122,123
 199 300 199 300 212 300 c 128,-1,124
 225 300 225 300 233 286 c 0,125,126
 242 271 242 271 242 250 c 256,127,128
 242 230 242 230 233 215 c 256,129,130
 224 201 224 201 212 200 c 1,131,-1
 212 200 l 1,116,117
273 200 m 1,132,133
 260 200 260 200 251 215 c 256,134,135
 242 229 242 229 242 250 c 256,136,137
 242 270 242 270 251 286 c 0,138,139
 260 300 260 300 273 300 c 128,-1,140
 286 300 286 300 294 286 c 0,141,142
 303 271 303 271 303 250 c 256,143,144
 303 230 303 230 294 215 c 0,145,146
 285 201 285 201 273 200 c 1,147,-1
 273 200 l 1,132,133
91 300 m 1,148,149
 78 300 78 300 69 314 c 0,150,151
 60.9 327.5 60.9 327.5 60.9 345.86 c 0,152,153
 60.9 369.8125 60.9 369.8125 69 385 c 256,154,155
 78 399 78 399 91 400 c 0,156,157
 104 400 104 400 112 385 c 256,158,159
 121 371 121 371 121 350 c 256,160,161
 121 330 121 330 112 314 c 0,162,163
 103 300 103 300 91 300 c 1,164,-1
 91 300 l 1,148,149
212 300 m 1,165,166
 198 300 198 300 190 314 c 0,167,168
 181.9 327.5 181.9 327.5 181.9 345.86 c 0,169,170
 181.9 369.8125 181.9 369.8125 190 385 c 0,171,172
 199 399 199 399 212 400 c 0,173,174
 225 400 225 400 233 385 c 256,175,176
 242 371 242 371 242 350 c 256,177,178
 242 330 242 330 233 314 c 0,179,180
 224 300 224 300 212 300 c 1,181,-1
 212 300 l 1,165,166
30 400 m 1,182,183
 17 400 17 400 9 415 c 0,184,185
 0 429 0 429 0 450 c 0,186,187
 0 470 0 470 9 485 c 0,188,189
 18 499 18 499 30 500 c 256,190,191
 43 500 43 500 52 485 c 0,192,193
 61 471 61 471 61 450 c 128,-1,194
 61 429 61 429 52 415 c 128,-1,195
 43 401 43 401 30 400 c 1,196,-1
 30 400 l 1,182,183
91 400 m 1,197,198
 78 400 78 400 69 415 c 256,199,200
 60.9 427.6 60.9 427.6 60.9 445.87 c 0,201,202
 60.9 469.8125 60.9 469.8125 69 485 c 256,203,204
 78 499 78 499 91 500 c 0,205,206
 104 500 104 500 112 485 c 256,207,208
 121 471 121 471 121 450 c 128,-1,209
 121 429 121 429 112 415 c 256,210,211
 103 401 103 401 91 400 c 1,212,-1
 91 400 l 1,197,198
152 400 m 1,213,214
 139 400 139 400 130 415 c 0,215,216
 121 429 121 429 121 450 c 0,217,218
 121 470 121 470 130 485 c 0,219,220
 140 499 140 499 152 500 c 256,221,222
 165 500 165 500 173 485 c 0,223,224
 182 471 182 471 182 450 c 128,-1,225
 182 429 182 429 173 415 c 128,-1,226
 164 401 164 401 152 400 c 1,227,-1
 152 400 l 1,213,214
212 400 m 1,228,229
 198 400 198 400 190 415 c 0,230,231
 181.9 427.6 181.9 427.6 181.9 445.87 c 0,232,233
 181.9 469.8125 181.9 469.8125 190 485 c 0,234,235
 199 499 199 499 212 500 c 0,236,237
 225 500 225 500 233 485 c 256,238,239
 242 471 242 471 242 450 c 128,-1,240
 242 429 242 429 233 415 c 256,241,242
 224 401 224 401 212 400 c 1,243,-1
 212 400 l 1,228,229
273 400 m 1,244,245
 260 400 260 400 251 415 c 256,246,247
 242 429 242 429 242 450 c 0,248,249
 242 470 242 470 251 485 c 256,250,251
 260 499 260 499 273 500 c 0,252,253
 286 500 286 500 294 485 c 0,254,255
 303 471 303 471 303 450 c 128,-1,256
 303 429 303 429 294 415 c 128,-1,257
 285 401 285 401 273 400 c 1,258,-1
 273 400 l 1,244,245
91 500 m 1,259,260
 78 500 78 500 69 515 c 256,261,262
 60.9 527.6 60.9 527.6 60.9 545.87 c 0,263,264
 60.9 569.8 60.9 569.8 69 586 c 0,265,266
 78 600 78 600 91 600 c 128,-1,267
 104 600 104 600 112 586 c 0,268,269
 121 571 121 571 121 550 c 256,270,271
 121 530 121 530 112 515 c 256,272,273
 103 501 103 501 91 500 c 1,274,-1
 91 500 l 1,259,260
212 500 m 1,275,276
 198 500 198 500 190 515 c 0,277,278
 181.9 527.6 181.9 527.6 181.9 545.87 c 0,279,280
 181.9 569.8 181.9 569.8 190 586 c 0,281,282
 199 600 199 600 212 600 c 128,-1,283
 225 600 225 600 233 586 c 0,284,285
 242 571 242 571 242 550 c 256,286,287
 242 530 242 530 233 515 c 256,288,289
 224 501 224 501 212 500 c 1,290,-1
 212 500 l 1,275,276
91 600 m 1,291,292
 78 600 78 600 69 614 c 0,293,294
 60.9 627.5 60.9 627.5 60.9 645.86 c 0,295,296
 60.9 669.8125 60.9 669.8125 69 685 c 256,297,298
 78 699 78 699 91 700 c 0,299,300
 104 700 104 700 112 685 c 256,301,302
 121 671 121 671 121 650 c 256,303,304
 121 630 121 630 112 614 c 0,305,306
 103 600 103 600 91 600 c 1,307,-1
 91 600 l 1,291,292
212 600 m 1,308,309
 198 600 198 600 190 614 c 0,310,311
 181.9 627.5 181.9 627.5 181.9 645.86 c 0,312,313
 181.9 669.8125 181.9 669.8125 190 685 c 0,314,315
 199 699 199 699 212 700 c 0,316,317
 225 700 225 700 233 685 c 256,318,319
 242 671 242 671 242 650 c 256,320,321
 242 630 242 630 233 614 c 0,322,323
 224 600 224 600 212 600 c 1,324,-1
 212 600 l 1,308,309
EndSplineSet
Validated: 524293
EndChar

StartChar: dollar
Encoding: 36 36 4
Width: 363
VWidth: 599
Flags: W
LayerCount: 2
Fore
SplineSet
152 0 m 1,0,1
 139 0 139 0 130 14 c 0,2,3
 121 29 121 29 121 50 c 256,4,5
 121 70 121 70 130 85 c 0,6,7
 140 99 140 99 152 100 c 256,8,9
 165 100 165 100 173 85 c 0,10,11
 182 71 182 71 182 50 c 256,12,13
 182 30 182 30 173 14 c 0,14,15
 164 0 164 0 152 0 c 1,16,-1
 152 0 l 1,0,1
61 100 m 1,17,18
 48 100 48 100 39 115 c 0,19,20
 30 129 30 129 30 150 c 0,21,22
 30 170 30 170 39 185 c 0,23,24
 48 199 48 199 61 200 c 256,25,26
 74 200 74 200 82 185 c 0,27,28
 91 171 91 171 91 150 c 0,29,30
 91 129 91 129 82 115 c 0,31,32
 73 101 73 101 61 100 c 1,33,-1
 61 100 l 1,17,18
121 100 m 1,34,35
 108 100 108 100 100 115 c 0,36,37
 91 129 91 129 91 150 c 0,38,39
 91 170 91 170 100 185 c 0,40,41
 109 199 109 199 121 200 c 0,42,43
 134 200 134 200 142 185 c 256,44,45
 152 171 152 171 152 150 c 0,46,47
 152 129 152 129 142 115 c 256,48,49
 133 101 133 101 121 100 c 1,50,-1
 121 100 l 1,34,35
182 100 m 1,51,52
 169 100 169 100 160 115 c 256,53,54
 152 129 152 129 152 150 c 0,55,56
 152 170 152 170 160 185 c 256,57,58
 169 199 169 199 182 200 c 0,59,60
 195 200 195 200 203 185 c 0,61,62
 212 171 212 171 212 150 c 0,63,64
 212 129 212 129 203 115 c 0,65,66
 194 101 194 101 182 100 c 1,67,-1
 182 100 l 1,51,52
242 100 m 1,68,69
 229 100 229 100 221 115 c 0,70,71
 212 129 212 129 212 150 c 0,72,73
 212 170 212 170 221 185 c 0,74,75
 230 199 230 199 242 200 c 256,76,77
 255 200 255 200 264 185 c 0,78,79
 273 171 273 171 273 150 c 0,80,81
 273 129 273 129 264 115 c 0,82,83
 255 101 255 101 242 100 c 1,84,-1
 242 100 l 1,68,69
152 200 m 1,85,86
 139 200 139 200 130 215 c 0,87,88
 121 229 121 229 121 250 c 256,89,90
 121 270 121 270 130 286 c 0,91,92
 140 300 140 300 152 300 c 256,93,94
 165 300 165 300 173 286 c 0,95,96
 182 271 182 271 182 250 c 256,97,98
 182 230 182 230 173 215 c 0,99,100
 164 201 164 201 152 200 c 1,101,-1
 152 200 l 1,85,86
273 200 m 1,102,103
 260 200 260 200 251 215 c 256,104,105
 242 229 242 229 242 250 c 256,106,107
 242 270 242 270 251 286 c 0,108,109
 260 300 260 300 273 300 c 0,110,111
 286 300 286 300 294 286 c 0,112,113
 303 271 303 271 303 250 c 256,114,115
 303 230 303 230 294 215 c 0,116,117
 285 201 285 201 273 200 c 1,118,-1
 273 200 l 1,102,103
61 300 m 1,119,120
 48 300 48 300 39 314 c 0,121,122
 30 329 30 329 30 350 c 256,123,124
 30 370 30 370 39 385 c 0,125,126
 48 399 48 399 61 400 c 256,127,128
 74 400 74 400 82 385 c 0,129,130
 91 371 91 371 91 350 c 256,131,132
 91 330 91 330 82 314 c 0,133,134
 73 300 73 300 61 300 c 1,135,-1
 61 300 l 1,119,120
121 300 m 1,136,137
 108 300 108 300 100 314 c 0,138,139
 91 329 91 329 91 350 c 256,140,141
 91 370 91 370 100 385 c 0,142,143
 109 399 109 399 121 400 c 0,144,145
 134 400 134 400 142 385 c 256,146,147
 152 371 152 371 152 350 c 256,148,149
 152 330 152 330 142 314 c 0,150,151
 133 300 133 300 121 300 c 1,152,-1
 121 300 l 1,136,137
182 300 m 1,153,154
 169 300 169 300 160 314 c 0,155,156
 152 329 152 329 152 350 c 256,157,158
 152 370 152 370 160 385 c 256,159,160
 169 399 169 399 182 400 c 0,161,162
 195 400 195 400 203 385 c 0,163,164
 212 371 212 371 212 350 c 256,165,166
 212 330 212 330 203 314 c 0,167,168
 194 300 194 300 182 300 c 1,169,-1
 182 300 l 1,153,154
242 300 m 1,170,171
 229 300 229 300 221 314 c 0,172,173
 212 329 212 329 212 350 c 256,174,175
 212 370 212 370 221 385 c 0,176,177
 230 399 230 399 242 400 c 256,178,179
 255 400 255 400 264 385 c 0,180,181
 273 371 273 371 273 350 c 256,182,183
 273 330 273 330 264 314 c 0,184,185
 255 300 255 300 242 300 c 1,186,-1
 242 300 l 1,170,171
30 400 m 1,187,188
 17 400 17 400 9 415 c 0,189,190
 0 429 0 429 0 450 c 0,191,192
 0 470 0 470 9 485 c 0,193,194
 18 499 18 499 30 500 c 256,195,196
 43 500 43 500 52 485 c 0,197,198
 61 471 61 471 61 450 c 0,199,200
 61 429 61 429 52 415 c 0,201,202
 43 401 43 401 30 400 c 1,203,-1
 30 400 l 1,187,188
152 400 m 1,204,205
 139 400 139 400 130 415 c 0,206,207
 121 429 121 429 121 450 c 0,208,209
 121 470 121 470 130 485 c 0,210,211
 140 499 140 499 152 500 c 256,212,213
 165 500 165 500 173 485 c 0,214,215
 182 471 182 471 182 450 c 0,216,217
 182 429 182 429 173 415 c 0,218,219
 164 401 164 401 152 400 c 1,220,-1
 152 400 l 1,204,205
61 500 m 1,221,222
 48 500 48 500 39 515 c 0,223,224
 30 529 30 529 30 550 c 256,225,226
 30 570 30 570 39 586 c 0,227,228
 48 600 48 600 61 600 c 256,229,230
 74 600 74 600 82 586 c 0,231,232
 91 571 91 571 91 550 c 256,233,234
 91 530 91 530 82 515 c 0,235,236
 73 501 73 501 61 500 c 1,237,-1
 61 500 l 1,221,222
121 500 m 1,238,239
 108 500 108 500 100 515 c 0,240,241
 91 529 91 529 91 550 c 256,242,243
 91 570 91 570 100 586 c 0,244,245
 109 600 109 600 121 600 c 0,246,247
 134 600 134 600 142 586 c 0,248,249
 152 571 152 571 152 550 c 256,250,251
 152 530 152 530 142 515 c 256,252,253
 133 501 133 501 121 500 c 1,254,-1
 121 500 l 1,238,239
182 500 m 1,255,256
 169 500 169 500 160 515 c 256,257,258
 152 529 152 529 152 550 c 256,259,260
 152 570 152 570 160 586 c 0,261,262
 169 600 169 600 182 600 c 0,263,264
 195 600 195 600 203 586 c 0,265,266
 212 571 212 571 212 550 c 256,267,268
 212 530 212 530 203 515 c 0,269,270
 194 501 194 501 182 500 c 1,271,-1
 182 500 l 1,255,256
242 500 m 1,272,273
 229 500 229 500 221 515 c 0,274,275
 212 529 212 529 212 550 c 256,276,277
 212 570 212 570 221 586 c 0,278,279
 230 600 230 600 242 600 c 256,280,281
 255 600 255 600 264 586 c 0,282,283
 273 571 273 571 273 550 c 256,284,285
 273 530 273 530 264 515 c 0,286,287
 255 501 255 501 242 500 c 1,288,-1
 242 500 l 1,272,273
152 600 m 1,289,290
 139 600 139 600 130 614 c 0,291,292
 121 629 121 629 121 650 c 256,293,294
 121 670 121 670 130 685 c 0,295,296
 140 699 140 699 152 700 c 256,297,298
 165 700 165 700 173 685 c 0,299,300
 182 671 182 671 182 650 c 256,301,302
 182 630 182 630 173 614 c 0,303,304
 164 600 164 600 152 600 c 1,305,-1
 152 600 l 1,289,290
EndSplineSet
Validated: 5
EndChar

StartChar: percent
Encoding: 37 37 5
Width: 363
VWidth: 599
Flags: W
LayerCount: 2
Fore
SplineSet
61 0 m 1,0,1
 48 0 48 0 39 14 c 0,2,3
 30 29 30 29 30 50 c 256,4,5
 30 70 30 70 39 85 c 0,6,7
 48 99 48 99 61 100 c 256,8,9
 74 100 74 100 82 85 c 0,10,11
 91 71 91 71 91 50 c 256,12,13
 91 30 91 30 82 14 c 0,14,15
 73 0 73 0 61 0 c 1,16,-1
 61 0 l 1,0,1
91 100 m 1,17,18
 78 100 78 100 69 115 c 256,19,20
 60.9 127.6 60.9 127.6 60.9 145.87 c 0,21,22
 60.9 169.8125 60.9 169.8125 69 185 c 256,23,24
 78 199 78 199 91 200 c 0,25,26
 104 200 104 200 112 185 c 256,27,28
 121 171 121 171 121 150 c 128,-1,29
 121 129 121 129 112 115 c 256,30,31
 103 101 103 101 91 100 c 1,32,-1
 91 100 l 1,17,18
212 100 m 1,33,34
 198 100 198 100 190 115 c 0,35,36
 181.9 127.6 181.9 127.6 181.9 145.87 c 0,37,38
 181.9 169.8125 181.9 169.8125 190 185 c 0,39,40
 199 199 199 199 212 200 c 0,41,42
 225 200 225 200 233 185 c 256,43,44
 242 171 242 171 242 150 c 128,-1,45
 242 129 242 129 233 115 c 256,46,47
 224 101 224 101 212 100 c 1,48,-1
 212 100 l 1,33,34
273 100 m 1,49,50
 260 100 260 100 251 115 c 256,51,52
 242 129 242 129 242 150 c 0,53,54
 242 170 242 170 251 185 c 256,55,56
 260 199 260 199 273 200 c 0,57,58
 286 200 286 200 294 185 c 0,59,60
 303 171 303 171 303 150 c 128,-1,61
 303 129 303 129 294 115 c 128,-1,62
 285 101 285 101 273 100 c 1,63,-1
 273 100 l 1,49,50
121 200 m 1,64,65
 108 200 108 200 100 215 c 0,66,67
 91 229 91 229 91 250 c 256,68,69
 91 270 91 270 100 286 c 0,70,71
 109 300 109 300 121 300 c 0,72,73
 134 300 134 300 142 286 c 0,74,75
 152 271 152 271 152 250 c 256,76,77
 152 230 152 230 142 215 c 256,78,79
 133 201 133 201 121 200 c 1,80,-1
 121 200 l 1,64,65
212 200 m 1,81,82
 198 200 198 200 190 215 c 0,83,84
 181.9 227.6 181.9 227.6 181.9 245.87 c 0,85,86
 181.9 269.8 181.9 269.8 190 286 c 0,87,88
 199 300 199 300 212 300 c 128,-1,89
 225 300 225 300 233 286 c 0,90,91
 242 271 242 271 242 250 c 256,92,93
 242 230 242 230 233 215 c 256,94,95
 224 201 224 201 212 200 c 1,96,-1
 212 200 l 1,81,82
273 200 m 1,97,98
 260 200 260 200 251 215 c 256,99,100
 242 229 242 229 242 250 c 256,101,102
 242 270 242 270 251 286 c 0,103,104
 260 300 260 300 273 300 c 128,-1,105
 286 300 286 300 294 286 c 0,106,107
 303 271 303 271 303 250 c 256,108,109
 303 230 303 230 294 215 c 0,110,111
 285 201 285 201 273 200 c 1,112,-1
 273 200 l 1,97,98
152 300 m 1,113,114
 139 300 139 300 130 314 c 0,115,116
 121 329 121 329 121 350 c 256,117,118
 121 370 121 370 130 385 c 0,119,120
 140 399 140 399 152 400 c 256,121,122
 165 400 165 400 173 385 c 0,123,124
 182 371 182 371 182 350 c 256,125,126
 182 330 182 330 173 314 c 0,127,128
 164 300 164 300 152 300 c 1,129,-1
 152 300 l 1,113,114
30 400 m 1,130,131
 17 400 17 400 9 415 c 0,132,133
 0 429 0 429 0 450 c 0,134,135
 0 470 0 470 9 485 c 0,136,137
 18 499 18 499 30 500 c 256,138,139
 43 500 43 500 52 485 c 0,140,141
 61 471 61 471 61 450 c 128,-1,142
 61 429 61 429 52 415 c 128,-1,143
 43 401 43 401 30 400 c 1,144,-1
 30 400 l 1,130,131
91 400 m 1,145,146
 78 400 78 400 69 415 c 256,147,148
 60.9 427.6 60.9 427.6 60.9 445.87 c 0,149,150
 60.9 469.8125 60.9 469.8125 69 485 c 256,151,152
 78 499 78 499 91 500 c 0,153,154
 104 500 104 500 112 485 c 256,155,156
 121 471 121 471 121 450 c 128,-1,157
 121 429 121 429 112 415 c 256,158,159
 103 401 103 401 91 400 c 1,160,-1
 91 400 l 1,145,146
182 400 m 1,161,162
 169 400 169 400 160 415 c 256,163,164
 152 429 152 429 152 450 c 0,165,166
 152 470 152 470 160 485 c 256,167,168
 169 499 169 499 182 500 c 0,169,170
 195 500 195 500 203 485 c 0,171,172
 212 471 212 471 212 450 c 128,-1,173
 212 429 212 429 203 415 c 128,-1,174
 194 401 194 401 182 400 c 1,175,-1
 182 400 l 1,161,162
30 500 m 1,176,177
 17 500 17 500 9 515 c 0,178,179
 0 529 0 529 0 550 c 256,180,181
 0 570 0 570 9 586 c 0,182,183
 18 600 18 600 30 600 c 256,184,185
 43 600 43 600 52 586 c 0,186,187
 61 571 61 571 61 550 c 256,188,189
 61 530 61 530 52 515 c 0,190,191
 43 501 43 501 30 500 c 1,192,-1
 30 500 l 1,176,177
91 500 m 1,193,194
 78 500 78 500 69 515 c 256,195,196
 60.9 527.6 60.9 527.6 60.9 545.87 c 0,197,198
 60.9 569.8 60.9 569.8 69 586 c 0,199,200
 78 600 78 600 91 600 c 128,-1,201
 104 600 104 600 112 586 c 0,202,203
 121 571 121 571 121 550 c 256,204,205
 121 530 121 530 112 515 c 256,206,207
 103 501 103 501 91 500 c 1,208,-1
 91 500 l 1,193,194
212 500 m 1,209,210
 198 500 198 500 190 515 c 0,211,212
 181.9 527.6 181.9 527.6 181.9 545.87 c 0,213,214
 181.9 569.8 181.9 569.8 190 586 c 0,215,216
 199 600 199 600 212 600 c 128,-1,217
 225 600 225 600 233 586 c 0,218,219
 242 571 242 571 242 550 c 256,220,221
 242 530 242 530 233 515 c 256,222,223
 224 501 224 501 212 500 c 1,224,-1
 212 500 l 1,209,210
242 600 m 1,225,226
 229 600 229 600 221 614 c 0,227,228
 212 629 212 629 212 650 c 256,229,230
 212 670 212 670 221 685 c 0,231,232
 230 699 230 699 242 700 c 256,233,234
 255 700 255 700 264 685 c 0,235,236
 273 671 273 671 273 650 c 256,237,238
 273 630 273 630 264 614 c 0,239,240
 255 600 255 600 242 600 c 1,241,-1
 242 600 l 1,225,226
EndSplineSet
Validated: 524293
EndChar

StartChar: ampersand
Encoding: 38 38 6
Width: 363
VWidth: 599
Flags: W
LayerCount: 2
Fore
SplineSet
91 0 m 1,0,1
 78 0 78 0 69 14 c 0,2,3
 60.9 27.5 60.9 27.5 60.9 45.86 c 0,4,5
 60.9 69.8125 60.9 69.8125 69 85 c 256,6,7
 78 99 78 99 91 100 c 0,8,9
 104 100 104 100 112 85 c 256,10,11
 121 71 121 71 121 50 c 256,12,13
 121 30 121 30 112 14 c 0,14,15
 103 0 103 0 91 0 c 1,16,-1
 91 0 l 1,0,1
152 0 m 1,17,18
 139 0 139 0 130 14 c 0,19,20
 121 29 121 29 121 50 c 256,21,22
 121 70 121 70 130 85 c 0,23,24
 140 99 140 99 152 100 c 256,25,26
 165 100 165 100 173 85 c 0,27,28
 182 71 182 71 182 50 c 256,29,30
 182 30 182 30 173 14 c 0,31,32
 164 0 164 0 152 0 c 1,33,-1
 152 0 l 1,17,18
242 0 m 1,34,35
 229 0 229 0 221 14 c 0,36,37
 212 29 212 29 212 50 c 256,38,39
 212 70 212 70 221 85 c 0,40,41
 230 99 230 99 242 100 c 256,42,43
 255 100 255 100 264 85 c 0,44,45
 273 71 273 71 273 50 c 256,46,47
 273 30 273 30 264 14 c 0,48,49
 255 0 255 0 242 0 c 1,50,-1
 242 0 l 1,34,35
61 100 m 1,51,52
 48 100 48 100 39 115 c 0,53,54
 30 129 30 129 30 150 c 0,55,56
 30 170 30 170 39 185 c 0,57,58
 48 199 48 199 61 200 c 256,59,60
 74 200 74 200 82 185 c 0,61,62
 91 171 91 171 91 150 c 128,-1,63
 91 129 91 129 82 115 c 128,-1,64
 73 101 73 101 61 100 c 1,65,-1
 61 100 l 1,51,52
212 100 m 1,66,67
 198 100 198 100 190 115 c 0,68,69
 181.9 127.6 181.9 127.6 181.9 145.87 c 0,70,71
 181.9 169.8125 181.9 169.8125 190 185 c 0,72,73
 199 199 199 199 212 200 c 0,74,75
 225 200 225 200 233 185 c 256,76,77
 242 171 242 171 242 150 c 128,-1,78
 242 129 242 129 233 115 c 256,79,80
 224 101 224 101 212 100 c 1,81,-1
 212 100 l 1,66,67
61 200 m 1,82,83
 48 200 48 200 39 215 c 0,84,85
 30 229 30 229 30 250 c 256,86,87
 30 270 30 270 39 286 c 0,88,89
 48 300 48 300 61 300 c 256,90,91
 74 300 74 300 82 286 c 0,92,93
 91 271 91 271 91 250 c 256,94,95
 91 230 91 230 82 215 c 0,96,97
 73 201 73 201 61 200 c 1,98,-1
 61 200 l 1,82,83
182 200 m 1,99,100
 169 200 169 200 160 215 c 256,101,102
 152 229 152 229 152 250 c 256,103,104
 152 270 152 270 160 286 c 0,105,106
 169 300 169 300 182 300 c 128,-1,107
 195 300 195 300 203 286 c 0,108,109
 212 271 212 271 212 250 c 256,110,111
 212 230 212 230 203 215 c 0,112,113
 194 201 194 201 182 200 c 1,114,-1
 182 200 l 1,99,100
273 200 m 1,115,116
 260 200 260 200 251 215 c 256,117,118
 242 229 242 229 242 250 c 256,119,120
 242 270 242 270 251 286 c 0,121,122
 260 300 260 300 273 300 c 128,-1,123
 286 300 286 300 294 286 c 0,124,125
 303 271 303 271 303 250 c 256,126,127
 303 230 303 230 294 215 c 0,128,129
 285 201 285 201 273 200 c 1,130,-1
 273 200 l 1,115,116
91 300 m 1,131,132
 78 300 78 300 69 314 c 0,133,134
 60.9 327.5 60.9 327.5 60.9 345.86 c 0,135,136
 60.9 369.8125 60.9 369.8125 69 385 c 256,137,138
 78 399 78 399 91 400 c 0,139,140
 104 400 104 400 112 385 c 256,141,142
 121 371 121 371 121 350 c 256,143,144
 121 330 121 330 112 314 c 0,145,146
 103 300 103 300 91 300 c 1,147,-1
 91 300 l 1,131,132
152 300 m 1,148,149
 139 300 139 300 130 314 c 0,150,151
 121 329 121 329 121 350 c 256,152,153
 121 370 121 370 130 385 c 0,154,155
 140 399 140 399 152 400 c 256,156,157
 165 400 165 400 173 385 c 0,158,159
 182 371 182 371 182 350 c 256,160,161
 182 330 182 330 173 314 c 0,162,163
 164 300 164 300 152 300 c 1,164,-1
 152 300 l 1,148,149
121 400 m 1,165,166
 108 400 108 400 100 415 c 0,167,168
 91 429 91 429 91 450 c 0,169,170
 91 470 91 470 100 485 c 0,171,172
 109 499 109 499 121 500 c 0,173,174
 134 500 134 500 142 485 c 256,175,176
 152 471 152 471 152 450 c 128,-1,177
 152 429 152 429 142 415 c 256,178,179
 133 401 133 401 121 400 c 1,180,-1
 121 400 l 1,165,166
182 400 m 1,181,182
 169 400 169 400 160 415 c 256,183,184
 152 429 152 429 152 450 c 0,185,186
 152 470 152 470 160 485 c 256,187,188
 169 499 169 499 182 500 c 0,189,190
 195 500 195 500 203 485 c 0,191,192
 212 471 212 471 212 450 c 128,-1,193
 212 429 212 429 203 415 c 128,-1,194
 194 401 194 401 182 400 c 1,195,-1
 182 400 l 1,181,182
91 500 m 1,196,197
 78 500 78 500 69 515 c 256,198,199
 60.9 527.6 60.9 527.6 60.9 545.87 c 0,200,201
 60.9 569.8 60.9 569.8 69 586 c 0,202,203
 78 600 78 600 91 600 c 128,-1,204
 104 600 104 600 112 586 c 0,205,206
 121 571 121 571 121 550 c 256,207,208
 121 530 121 530 112 515 c 256,209,210
 103 501 103 501 91 500 c 1,211,-1
 91 500 l 1,196,197
212 500 m 1,212,213
 198 500 198 500 190 515 c 0,214,215
 181.9 527.6 181.9 527.6 181.9 545.87 c 0,216,217
 181.9 569.8 181.9 569.8 190 586 c 0,218,219
 199 600 199 600 212 600 c 128,-1,220
 225 600 225 600 233 586 c 0,221,222
 242 571 242 571 242 550 c 256,223,224
 242 530 242 530 233 515 c 256,225,226
 224 501 224 501 212 500 c 1,227,-1
 212 500 l 1,212,213
121 600 m 1,228,229
 108 600 108 600 100 614 c 0,230,231
 91 629 91 629 91 650 c 256,232,233
 91 670 91 670 100 685 c 0,234,235
 109 699 109 699 121 700 c 0,236,237
 134 700 134 700 142 685 c 256,238,239
 152 671 152 671 152 650 c 256,240,241
 152 630 152 630 142 614 c 0,242,243
 133 600 133 600 121 600 c 1,244,-1
 121 600 l 1,228,229
182 600 m 1,245,246
 169 600 169 600 160 614 c 0,247,248
 152 629 152 629 152 650 c 256,249,250
 152 670 152 670 160 685 c 256,251,252
 169 699 169 699 182 700 c 0,253,254
 195 700 195 700 203 685 c 0,255,256
 212 671 212 671 212 650 c 256,257,258
 212 630 212 630 203 614 c 0,259,260
 194 600 194 600 182 600 c 1,261,-1
 182 600 l 1,245,246
EndSplineSet
Validated: 524293
EndChar

StartChar: quotesingle
Encoding: 39 39 7
Width: 363
VWidth: 599
Flags: W
LayerCount: 2
Fore
SplineSet
91 400 m 1,0,1
 78 400 78 400 69 415 c 256,2,3
 60.9 427.6 60.9 427.6 60.9 445.87 c 0,4,5
 60.9 469.8125 60.9 469.8125 69 485 c 256,6,7
 78 499 78 499 91 500 c 0,8,9
 104 500 104 500 112 485 c 256,10,11
 121 471 121 471 121 450 c 128,-1,12
 121 429 121 429 112 415 c 256,13,14
 103 401 103 401 91 400 c 1,15,-1
 91 400 l 1,0,1
121 500 m 1,16,17
 108 500 108 500 100 515 c 0,18,19
 91 529 91 529 91 550 c 256,20,21
 91 570 91 570 100 586 c 0,22,23
 109 600 109 600 121 600 c 0,24,25
 134 600 134 600 142 586 c 0,26,27
 152 571 152 571 152 550 c 256,28,29
 152 530 152 530 142 515 c 256,30,31
 133 501 133 501 121 500 c 1,32,-1
 121 500 l 1,16,17
61 600 m 1,33,34
 48 600 48 600 39 614 c 0,35,36
 30 629 30 629 30 650 c 256,37,38
 30 670 30 670 39 685 c 0,39,40
 48 699 48 699 61 700 c 256,41,42
 74 700 74 700 82 685 c 0,43,44
 91 671 91 671 91 650 c 256,45,46
 91 630 91 630 82 614 c 0,47,48
 73 600 73 600 61 600 c 1,49,-1
 61 600 l 1,33,34
121 600 m 1,50,51
 108 600 108 600 100 614 c 0,52,53
 91 629 91 629 91 650 c 256,54,55
 91 670 91 670 100 685 c 0,56,57
 109 699 109 699 121 700 c 0,58,59
 134 700 134 700 142 685 c 256,60,61
 152 671 152 671 152 650 c 256,62,63
 152 630 152 630 142 614 c 0,64,65
 133 600 133 600 121 600 c 1,66,-1
 121 600 l 1,50,51
EndSplineSet
Validated: 524293
EndChar

StartChar: parenleft
Encoding: 40 40 8
Width: 363
VWidth: 599
Flags: W
LayerCount: 2
Fore
SplineSet
212 0 m 1,0,1
 198 0 198 0 190 14 c 0,2,3
 181.9 27.5 181.9 27.5 181.9 45.86 c 0,4,5
 181.9 69.8125 181.9 69.8125 190 85 c 0,6,7
 199 99 199 99 212 100 c 0,8,9
 225 100 225 100 233 85 c 256,10,11
 242 71 242 71 242 50 c 256,12,13
 242 30 242 30 233 14 c 0,14,15
 224 0 224 0 212 0 c 1,16,-1
 212 0 l 1,0,1
152 100 m 1,17,18
 139 100 139 100 130 115 c 0,19,20
 121 129 121 129 121 150 c 0,21,22
 121 170 121 170 130 185 c 0,23,24
 140 199 140 199 152 200 c 256,25,26
 165 200 165 200 173 185 c 0,27,28
 182 171 182 171 182 150 c 128,-1,29
 182 129 182 129 173 115 c 128,-1,30
 164 101 164 101 152 100 c 1,31,-1
 152 100 l 1,17,18
121 200 m 1,32,33
 108 200 108 200 100 215 c 0,34,35
 91 229 91 229 91 250 c 256,36,37
 91 270 91 270 100 286 c 0,38,39
 109 300 109 300 121 300 c 0,40,41
 134 300 134 300 142 286 c 0,42,43
 152 271 152 271 152 250 c 256,44,45
 152 230 152 230 142 215 c 256,46,47
 133 201 133 201 121 200 c 1,48,-1
 121 200 l 1,32,33
121 300 m 1,49,50
 108 300 108 300 100 314 c 0,51,52
 91 329 91 329 91 350 c 256,53,54
 91 370 91 370 100 385 c 0,55,56
 109 399 109 399 121 400 c 0,57,58
 134 400 134 400 142 385 c 256,59,60
 152 371 152 371 152 350 c 256,61,62
 152 330 152 330 142 314 c 0,63,64
 133 300 133 300 121 300 c 1,65,-1
 121 300 l 1,49,50
121 400 m 1,66,67
 108 400 108 400 100 415 c 0,68,69
 91 429 91 429 91 450 c 0,70,71
 91 470 91 470 100 485 c 0,72,73
 109 499 109 499 121 500 c 0,74,75
 134 500 134 500 142 485 c 256,76,77
 152 471 152 471 152 450 c 128,-1,78
 152 429 152 429 142 415 c 256,79,80
 133 401 133 401 121 400 c 1,81,-1
 121 400 l 1,66,67
152 500 m 1,82,83
 139 500 139 500 130 515 c 0,84,85
 121 529 121 529 121 550 c 256,86,87
 121 570 121 570 130 586 c 0,88,89
 140 600 140 600 152 600 c 256,90,91
 165 600 165 600 173 586 c 0,92,93
 182 571 182 571 182 550 c 256,94,95
 182 530 182 530 173 515 c 0,96,97
 164 501 164 501 152 500 c 1,98,-1
 152 500 l 1,82,83
212 600 m 1,99,100
 198 600 198 600 190 614 c 0,101,102
 181.9 627.5 181.9 627.5 181.9 645.86 c 0,103,104
 181.9 669.8125 181.9 669.8125 190 685 c 0,105,106
 199 699 199 699 212 700 c 0,107,108
 225 700 225 700 233 685 c 256,109,110
 242 671 242 671 242 650 c 256,111,112
 242 630 242 630 233 614 c 0,113,114
 224 600 224 600 212 600 c 1,115,-1
 212 600 l 1,99,100
EndSplineSet
Validated: 524293
EndChar

StartChar: parenright
Encoding: 41 41 9
Width: 363
VWidth: 599
Flags: W
LayerCount: 2
Fore
SplineSet
91 0 m 1,0,1
 78 0 78 0 69 14 c 0,2,3
 60.9 27.5 60.9 27.5 60.9 45.86 c 0,4,5
 60.9 69.8125 60.9 69.8125 69 85 c 256,6,7
 78 99 78 99 91 100 c 0,8,9
 104 100 104 100 112 85 c 256,10,11
 121 71 121 71 121 50 c 256,12,13
 121 30 121 30 112 14 c 0,14,15
 103 0 103 0 91 0 c 1,16,-1
 91 0 l 1,0,1
152 100 m 1,17,18
 139 100 139 100 130 115 c 0,19,20
 121 129 121 129 121 150 c 0,21,22
 121 170 121 170 130 185 c 0,23,24
 140 199 140 199 152 200 c 256,25,26
 165 200 165 200 173 185 c 0,27,28
 182 171 182 171 182 150 c 128,-1,29
 182 129 182 129 173 115 c 128,-1,30
 164 101 164 101 152 100 c 1,31,-1
 152 100 l 1,17,18
182 200 m 1,32,33
 169 200 169 200 160 215 c 256,34,35
 152 229 152 229 152 250 c 256,36,37
 152 270 152 270 160 286 c 0,38,39
 169 300 169 300 182 300 c 128,-1,40
 195 300 195 300 203 286 c 0,41,42
 212 271 212 271 212 250 c 256,43,44
 212 230 212 230 203 215 c 0,45,46
 194 201 194 201 182 200 c 1,47,-1
 182 200 l 1,32,33
182 300 m 1,48,49
 169 300 169 300 160 314 c 0,50,51
 152 329 152 329 152 350 c 256,52,53
 152 370 152 370 160 385 c 256,54,55
 169 399 169 399 182 400 c 0,56,57
 195 400 195 400 203 385 c 0,58,59
 212 371 212 371 212 350 c 256,60,61
 212 330 212 330 203 314 c 0,62,63
 194 300 194 300 182 300 c 1,64,-1
 182 300 l 1,48,49
182 400 m 1,65,66
 169 400 169 400 160 415 c 256,67,68
 152 429 152 429 152 450 c 0,69,70
 152 470 152 470 160 485 c 256,71,72
 169 499 169 499 182 500 c 0,73,74
 195 500 195 500 203 485 c 0,75,76
 212 471 212 471 212 450 c 128,-1,77
 212 429 212 429 203 415 c 128,-1,78
 194 401 194 401 182 400 c 1,79,-1
 182 400 l 1,65,66
152 500 m 1,80,81
 139 500 139 500 130 515 c 0,82,83
 121 529 121 529 121 550 c 256,84,85
 121 570 121 570 130 586 c 0,86,87
 140 600 140 600 152 600 c 256,88,89
 165 600 165 600 173 586 c 0,90,91
 182 571 182 571 182 550 c 256,92,93
 182 530 182 530 173 515 c 0,94,95
 164 501 164 501 152 500 c 1,96,-1
 152 500 l 1,80,81
91 600 m 1,97,98
 78 600 78 600 69 614 c 0,99,100
 60.9 627.5 60.9 627.5 60.9 645.86 c 0,101,102
 60.9 669.8125 60.9 669.8125 69 685 c 256,103,104
 78 699 78 699 91 700 c 0,105,106
 104 700 104 700 112 685 c 256,107,108
 121 671 121 671 121 650 c 256,109,110
 121 630 121 630 112 614 c 0,111,112
 103 600 103 600 91 600 c 1,113,-1
 91 600 l 1,97,98
EndSplineSet
Validated: 524293
EndChar

StartChar: asterisk
Encoding: 42 42 10
Width: 363
VWidth: 599
Flags: W
LayerCount: 2
Fore
SplineSet
152 100 m 1,0,1
 139 100 139 100 130 115 c 0,2,3
 121 129 121 129 121 150 c 0,4,5
 121 170 121 170 130 185 c 0,6,7
 140 199 140 199 152 200 c 256,8,9
 165 200 165 200 173 185 c 0,10,11
 182 171 182 171 182 150 c 128,-1,12
 182 129 182 129 173 115 c 128,-1,13
 164 101 164 101 152 100 c 1,14,-1
 152 100 l 1,0,1
30 200 m 1,15,16
 17 200 17 200 9 215 c 0,17,18
 0 229 0 229 0 250 c 256,19,20
 0 270 0 270 9 286 c 0,21,22
 18 300 18 300 30 300 c 256,23,24
 43 300 43 300 52 286 c 0,25,26
 61 271 61 271 61 250 c 256,27,28
 61 230 61 230 52 215 c 0,29,30
 43 201 43 201 30 200 c 1,31,-1
 30 200 l 1,15,16
152 200 m 1,32,33
 139 200 139 200 130 215 c 0,34,35
 121 229 121 229 121 250 c 256,36,37
 121 270 121 270 130 286 c 0,38,39
 140 300 140 300 152 300 c 256,40,41
 165 300 165 300 173 286 c 0,42,43
 182 271 182 271 182 250 c 256,44,45
 182 230 182 230 173 215 c 0,46,47
 164 201 164 201 152 200 c 1,48,-1
 152 200 l 1,32,33
273 200 m 1,49,50
 260 200 260 200 251 215 c 256,51,52
 242 229 242 229 242 250 c 256,53,54
 242 270 242 270 251 286 c 0,55,56
 260 300 260 300 273 300 c 128,-1,57
 286 300 286 300 294 286 c 0,58,59
 303 271 303 271 303 250 c 256,60,61
 303 230 303 230 294 215 c 0,62,63
 285 201 285 201 273 200 c 1,64,-1
 273 200 l 1,49,50
91 300 m 1,65,66
 78 300 78 300 69 314 c 0,67,68
 60.9 327.5 60.9 327.5 60.9 345.86 c 0,69,70
 60.9 369.8125 60.9 369.8125 69 385 c 256,71,72
 78 399 78 399 91 400 c 0,73,74
 104 400 104 400 112 385 c 256,75,76
 121 371 121 371 121 350 c 256,77,78
 121 330 121 330 112 314 c 0,79,80
 103 300 103 300 91 300 c 1,81,-1
 91 300 l 1,65,66
152 300 m 1,82,83
 139 300 139 300 130 314 c 0,84,85
 121 329 121 329 121 350 c 256,86,87
 121 370 121 370 130 385 c 0,88,89
 140 399 140 399 152 400 c 256,90,91
 165 400 165 400 173 385 c 0,92,93
 182 371 182 371 182 350 c 256,94,95
 182 330 182 330 173 314 c 0,96,97
 164 300 164 300 152 300 c 1,98,-1
 152 300 l 1,82,83
212 300 m 1,99,100
 198 300 198 300 190 314 c 0,101,102
 181.9 327.5 181.9 327.5 181.9 345.86 c 0,103,104
 181.9 369.8125 181.9 369.8125 190 385 c 0,105,106
 199 399 199 399 212 400 c 0,107,108
 225 400 225 400 233 385 c 256,109,110
 242 371 242 371 242 350 c 256,111,112
 242 330 242 330 233 314 c 0,113,114
 224 300 224 300 212 300 c 1,115,-1
 212 300 l 1,99,100
30 400 m 1,116,117
 17 400 17 400 9 415 c 0,118,119
 0 429 0 429 0 450 c 0,120,121
 0 470 0 470 9 485 c 0,122,123
 18 499 18 499 30 500 c 256,124,125
 43 500 43 500 52 485 c 0,126,127
 61 471 61 471 61 450 c 128,-1,128
 61 429 61 429 52 415 c 128,-1,129
 43 401 43 401 30 400 c 1,130,-1
 30 400 l 1,116,117
152 400 m 1,131,132
 139 400 139 400 130 415 c 0,133,134
 121 429 121 429 121 450 c 0,135,136
 121 470 121 470 130 485 c 0,137,138
 140 499 140 499 152 500 c 256,139,140
 165 500 165 500 173 485 c 0,141,142
 182 471 182 471 182 450 c 128,-1,143
 182 429 182 429 173 415 c 128,-1,144
 164 401 164 401 152 400 c 1,145,-1
 152 400 l 1,131,132
273 400 m 1,146,147
 260 400 260 400 251 415 c 256,148,149
 242 429 242 429 242 450 c 0,150,151
 242 470 242 470 251 485 c 256,152,153
 260 499 260 499 273 500 c 0,154,155
 286 500 286 500 294 485 c 0,156,157
 303 471 303 471 303 450 c 128,-1,158
 303 429 303 429 294 415 c 128,-1,159
 285 401 285 401 273 400 c 1,160,-1
 273 400 l 1,146,147
152 500 m 1,161,162
 139 500 139 500 130 515 c 0,163,164
 121 529 121 529 121 550 c 256,165,166
 121 570 121 570 130 586 c 0,167,168
 140 600 140 600 152 600 c 256,169,170
 165 600 165 600 173 586 c 0,171,172
 182 571 182 571 182 550 c 256,173,174
 182 530 182 530 173 515 c 0,175,176
 164 501 164 501 152 500 c 1,177,-1
 152 500 l 1,161,162
EndSplineSet
Validated: 524293
EndChar

StartChar: plus
Encoding: 43 43 11
Width: 363
VWidth: 599
Flags: W
LayerCount: 2
Fore
SplineSet
152 100 m 1,0,1
 139 100 139 100 130 115 c 0,2,3
 121 129 121 129 121 150 c 0,4,5
 121 170 121 170 130 185 c 0,6,7
 140 199 140 199 152 200 c 256,8,9
 165 200 165 200 173 185 c 0,10,11
 182 171 182 171 182 150 c 128,-1,12
 182 129 182 129 173 115 c 128,-1,13
 164 101 164 101 152 100 c 1,14,-1
 152 100 l 1,0,1
152 200 m 1,15,16
 139 200 139 200 130 215 c 0,17,18
 121 229 121 229 121 250 c 256,19,20
 121 270 121 270 130 286 c 0,21,22
 140 300 140 300 152 300 c 256,23,24
 165 300 165 300 173 286 c 0,25,26
 182 271 182 271 182 250 c 256,27,28
 182 230 182 230 173 215 c 0,29,30
 164 201 164 201 152 200 c 1,31,-1
 152 200 l 1,15,16
30 300 m 1,32,33
 17 300 17 300 9 314 c 0,34,35
 0 329 0 329 0 350 c 256,36,37
 0 370 0 370 9 385 c 0,38,39
 18 399 18 399 30 400 c 256,40,41
 43 400 43 400 52 385 c 0,42,43
 61 371 61 371 61 350 c 256,44,45
 61 330 61 330 52 314 c 0,46,47
 43 300 43 300 30 300 c 1,48,-1
 30 300 l 1,32,33
91 300 m 1,49,50
 78 300 78 300 69 314 c 0,51,52
 60.9 327.5 60.9 327.5 60.9 345.86 c 0,53,54
 60.9 369.8125 60.9 369.8125 69 385 c 256,55,56
 78 399 78 399 91 400 c 0,57,58
 104 400 104 400 112 385 c 256,59,60
 121 371 121 371 121 350 c 256,61,62
 121 330 121 330 112 314 c 0,63,64
 103 300 103 300 91 300 c 1,65,-1
 91 300 l 1,49,50
152 300 m 1,66,67
 139 300 139 300 130 314 c 0,68,69
 121 329 121 329 121 350 c 256,70,71
 121 370 121 370 130 385 c 0,72,73
 140 399 140 399 152 400 c 256,74,75
 165 400 165 400 173 385 c 0,76,77
 182 371 182 371 182 350 c 256,78,79
 182 330 182 330 173 314 c 0,80,81
 164 300 164 300 152 300 c 1,82,-1
 152 300 l 1,66,67
212 300 m 1,83,84
 198 300 198 300 190 314 c 0,85,86
 181.9 327.5 181.9 327.5 181.9 345.86 c 0,87,88
 181.9 369.8125 181.9 369.8125 190 385 c 0,89,90
 199 399 199 399 212 400 c 0,91,92
 225 400 225 400 233 385 c 256,93,94
 242 371 242 371 242 350 c 256,95,96
 242 330 242 330 233 314 c 0,97,98
 224 300 224 300 212 300 c 1,99,-1
 212 300 l 1,83,84
273 300 m 1,100,101
 260 300 260 300 251 314 c 0,102,103
 242 329 242 329 242 350 c 256,104,105
 242 370 242 370 251 385 c 256,106,107
 260 399 260 399 273 400 c 0,108,109
 286 400 286 400 294 385 c 0,110,111
 303 371 303 371 303 350 c 256,112,113
 303 330 303 330 294 314 c 0,114,115
 285 300 285 300 273 300 c 1,116,-1
 273 300 l 1,100,101
152 400 m 1,117,118
 139 400 139 400 130 415 c 0,119,120
 121 429 121 429 121 450 c 0,121,122
 121 470 121 470 130 485 c 0,123,124
 140 499 140 499 152 500 c 256,125,126
 165 500 165 500 173 485 c 0,127,128
 182 471 182 471 182 450 c 128,-1,129
 182 429 182 429 173 415 c 128,-1,130
 164 401 164 401 152 400 c 1,131,-1
 152 400 l 1,117,118
152 500 m 1,132,133
 139 500 139 500 130 515 c 0,134,135
 121 529 121 529 121 550 c 256,136,137
 121 570 121 570 130 586 c 0,138,139
 140 600 140 600 152 600 c 256,140,141
 165 600 165 600 173 586 c 0,142,143
 182 571 182 571 182 550 c 256,144,145
 182 530 182 530 173 515 c 0,146,147
 164 501 164 501 152 500 c 1,148,-1
 152 500 l 1,132,133
EndSplineSet
Validated: 524293
EndChar

StartChar: comma
Encoding: 44 44 12
Width: 363
VWidth: 599
Flags: W
LayerCount: 2
Fore
SplineSet
91 0 m 1,0,1
 78 0 78 0 69 14 c 0,2,3
 60.9 27.5 60.9 27.5 60.9 45.86 c 0,4,5
 60.9 69.8125 60.9 69.8125 69 85 c 256,6,7
 78 99 78 99 91 100 c 0,8,9
 104 100 104 100 112 85 c 256,10,11
 121 71 121 71 121 50 c 256,12,13
 121 30 121 30 112 14 c 0,14,15
 103 0 103 0 91 0 c 1,16,-1
 91 0 l 1,0,1
121 100 m 1,17,18
 108 100 108 100 100 115 c 0,19,20
 91 129 91 129 91 150 c 0,21,22
 91 170 91 170 100 185 c 0,23,24
 109 199 109 199 121 200 c 0,25,26
 134 200 134 200 142 185 c 256,27,28
 152 171 152 171 152 150 c 128,-1,29
 152 129 152 129 142 115 c 256,30,31
 133 101 133 101 121 100 c 1,32,-1
 121 100 l 1,17,18
61 200 m 1,33,34
 48 200 48 200 39 215 c 0,35,36
 30 229 30 229 30 250 c 256,37,38
 30 270 30 270 39 286 c 0,39,40
 48 300 48 300 61 300 c 256,41,42
 74 300 74 300 82 286 c 0,43,44
 91 271 91 271 91 250 c 256,45,46
 91 230 91 230 82 215 c 0,47,48
 73 201 73 201 61 200 c 1,49,-1
 61 200 l 1,33,34
121 200 m 1,50,51
 108 200 108 200 100 215 c 0,52,53
 91 229 91 229 91 250 c 256,54,55
 91 270 91 270 100 286 c 0,56,57
 109 300 109 300 121 300 c 0,58,59
 134 300 134 300 142 286 c 0,60,61
 152 271 152 271 152 250 c 256,62,63
 152 230 152 230 142 215 c 256,64,65
 133 201 133 201 121 200 c 1,66,-1
 121 200 l 1,50,51
EndSplineSet
Validated: 524293
EndChar

StartChar: hyphen
Encoding: 45 45 13
Width: 363
VWidth: 599
Flags: W
LayerCount: 2
Fore
SplineSet
30 300 m 1,0,1
 17 300 17 300 9 314 c 0,2,3
 0 329 0 329 0 350 c 256,4,5
 0 370 0 370 9 385 c 0,6,7
 18 399 18 399 30 400 c 256,8,9
 43 400 43 400 52 385 c 0,10,11
 61 371 61 371 61 350 c 256,12,13
 61 330 61 330 52 314 c 0,14,15
 43 300 43 300 30 300 c 1,16,-1
 30 300 l 1,0,1
91 300 m 1,17,18
 78 300 78 300 69 314 c 0,19,20
 60.9 327.5 60.9 327.5 60.9 345.86 c 0,21,22
 60.9 369.8125 60.9 369.8125 69 385 c 256,23,24
 78 399 78 399 91 400 c 0,25,26
 104 400 104 400 112 385 c 256,27,28
 121 371 121 371 121 350 c 256,29,30
 121 330 121 330 112 314 c 0,31,32
 103 300 103 300 91 300 c 1,33,-1
 91 300 l 1,17,18
152 300 m 1,34,35
 139 300 139 300 130 314 c 0,36,37
 121 329 121 329 121 350 c 256,38,39
 121 370 121 370 130 385 c 0,40,41
 140 399 140 399 152 400 c 256,42,43
 165 400 165 400 173 385 c 0,44,45
 182 371 182 371 182 350 c 256,46,47
 182 330 182 330 173 314 c 0,48,49
 164 300 164 300 152 300 c 1,50,-1
 152 300 l 1,34,35
212 300 m 1,51,52
 198 300 198 300 190 314 c 0,53,54
 181.9 327.5 181.9 327.5 181.9 345.86 c 0,55,56
 181.9 369.8125 181.9 369.8125 190 385 c 0,57,58
 199 399 199 399 212 400 c 0,59,60
 225 400 225 400 233 385 c 256,61,62
 242 371 242 371 242 350 c 256,63,64
 242 330 242 330 233 314 c 0,65,66
 224 300 224 300 212 300 c 1,67,-1
 212 300 l 1,51,52
273 300 m 1,68,69
 260 300 260 300 251 314 c 0,70,71
 242 329 242 329 242 350 c 256,72,73
 242 370 242 370 251 385 c 256,74,75
 260 399 260 399 273 400 c 0,76,77
 286 400 286 400 294 385 c 0,78,79
 303 371 303 371 303 350 c 256,80,81
 303 330 303 330 294 314 c 0,82,83
 285 300 285 300 273 300 c 1,84,-1
 273 300 l 1,68,69
EndSplineSet
Validated: 524293
EndChar

StartChar: period
Encoding: 46 46 14
Width: 363
VWidth: 599
Flags: W
LayerCount: 2
Fore
SplineSet
30 0 m 1,0,1
 17 0 17 0 9 14 c 0,2,3
 0 29 0 29 0 50 c 256,4,5
 0 70 0 70 9 85 c 0,6,7
 18 99 18 99 30 100 c 256,8,9
 43 100 43 100 52 85 c 0,10,11
 61 71 61 71 61 50 c 256,12,13
 61 30 61 30 52 14 c 0,14,15
 43 0 43 0 30 0 c 1,16,-1
 30 0 l 1,0,1
91 0 m 1,17,18
 78 0 78 0 69 14 c 0,19,20
 60.9 27.5 60.9 27.5 60.9 45.86 c 0,21,22
 60.9 69.8125 60.9 69.8125 69 85 c 256,23,24
 78 99 78 99 91 100 c 0,25,26
 104 100 104 100 112 85 c 256,27,28
 121 71 121 71 121 50 c 256,29,30
 121 30 121 30 112 14 c 0,31,32
 103 0 103 0 91 0 c 1,33,-1
 91 0 l 1,17,18
30 100 m 1,34,35
 17 100 17 100 9 115 c 0,36,37
 0 129 0 129 0 150 c 0,38,39
 0 170 0 170 9 185 c 0,40,41
 18 199 18 199 30 200 c 256,42,43
 43 200 43 200 52 185 c 0,44,45
 61 171 61 171 61 150 c 128,-1,46
 61 129 61 129 52 114.5 c 128,-1,47
 43 100 43 100 30 100 c 1,48,-1
 30 100 l 1,34,35
91 100 m 1,49,50
 78 100 78 100 69 115 c 256,51,52
 60.9 127.6 60.9 127.6 60.9 145.87 c 0,53,54
 60.9 169.8125 60.9 169.8125 69 185 c 256,55,56
 78 199 78 199 91 199.5 c 128,-1,57
 104 200 104 200 112 185 c 256,58,59
 121 171 121 171 121 150 c 128,-1,60
 121 129 121 129 112 115 c 256,61,62
 103 101 103 101 91 100 c 1,63,-1
 91 100 l 1,49,50
EndSplineSet
Validated: 524293
EndChar

StartChar: slash
Encoding: 47 47 15
Width: 363
VWidth: 599
Flags: W
LayerCount: 2
Fore
SplineSet
61 0 m 1,0,1
 48 0 48 0 39 14 c 0,2,3
 30 29 30 29 30 50 c 256,4,5
 30 70 30 70 39 85 c 0,6,7
 48 99 48 99 61 100 c 256,8,9
 74 100 74 100 82 85 c 0,10,11
 91 71 91 71 91 50 c 256,12,13
 91 30 91 30 82 14 c 0,14,15
 73 0 73 0 61 0 c 1,16,-1
 61 0 l 1,0,1
91 100 m 1,17,18
 78 100 78 100 69 115 c 256,19,20
 60.9 127.6 60.9 127.6 60.9 145.87 c 0,21,22
 60.9 169.8125 60.9 169.8125 69 185 c 256,23,24
 78 199 78 199 91 200 c 0,25,26
 104 200 104 200 112 185 c 256,27,28
 121 171 121 171 121 150 c 128,-1,29
 121 129 121 129 112 115 c 256,30,31
 103 101 103 101 91 100 c 1,32,-1
 91 100 l 1,17,18
121 200 m 1,33,34
 108 200 108 200 100 215 c 0,35,36
 91 229 91 229 91 250 c 256,37,38
 91 270 91 270 100 286 c 0,39,40
 109 300 109 300 121 300 c 0,41,42
 134 300 134 300 142 286 c 0,43,44
 152 271 152 271 152 250 c 256,45,46
 152 230 152 230 142 215 c 256,47,48
 133 201 133 201 121 200 c 1,49,-1
 121 200 l 1,33,34
152 300 m 1,50,51
 139 300 139 300 130 314 c 0,52,53
 121 329 121 329 121 350 c 256,54,55
 121 370 121 370 130 385 c 0,56,57
 140 399 140 399 152 400 c 256,58,59
 165 400 165 400 173 385 c 0,60,61
 182 371 182 371 182 350 c 256,62,63
 182 330 182 330 173 314 c 0,64,65
 164 300 164 300 152 300 c 1,66,-1
 152 300 l 1,50,51
182 400 m 1,67,68
 169 400 169 400 160 415 c 256,69,70
 152 429 152 429 152 450 c 0,71,72
 152 470 152 470 160 485 c 256,73,74
 169 499 169 499 182 500 c 0,75,76
 195 500 195 500 203 485 c 0,77,78
 212 471 212 471 212 450 c 128,-1,79
 212 429 212 429 203 415 c 128,-1,80
 194 401 194 401 182 400 c 1,81,-1
 182 400 l 1,67,68
212 500 m 1,82,83
 198 500 198 500 190 515 c 0,84,85
 181.9 527.6 181.9 527.6 181.9 545.87 c 0,86,87
 181.9 569.8 181.9 569.8 190 586 c 0,88,89
 199 600 199 600 212 600 c 128,-1,90
 225 600 225 600 233 586 c 0,91,92
 242 571 242 571 242 550 c 256,93,94
 242 530 242 530 233 515 c 256,95,96
 224 501 224 501 212 500 c 1,97,-1
 212 500 l 1,82,83
242 600 m 1,98,99
 229 600 229 600 221 614 c 0,100,101
 212 629 212 629 212 650 c 256,102,103
 212 670 212 670 221 685 c 0,104,105
 230 699 230 699 242 700 c 256,106,107
 255 700 255 700 264 685 c 0,108,109
 273 671 273 671 273 650 c 256,110,111
 273 630 273 630 264 614 c 0,112,113
 255 600 255 600 242 600 c 1,114,-1
 242 600 l 1,98,99
EndSplineSet
Validated: 524293
EndChar

StartChar: zero
Encoding: 48 48 16
Width: 363
VWidth: 599
Flags: W
LayerCount: 2
Fore
SplineSet
61 0 m 1,0,1
 48 0 48 0 39 14 c 0,2,3
 30 29 30 29 30 50 c 256,4,5
 30 70 30 70 39 85 c 0,6,7
 48 99 48 99 61 100 c 256,8,9
 74 100 74 100 82 85 c 0,10,11
 91 71 91 71 91 50 c 256,12,13
 91 30 91 30 82 14 c 0,14,15
 73 0 73 0 61 0 c 1,16,-1
 61 0 l 1,0,1
121 0 m 1,17,18
 108 0 108 0 100 14 c 0,19,20
 91 29 91 29 91 50 c 256,21,22
 91 70 91 70 100 85 c 0,23,24
 109 99 109 99 121 100 c 0,25,26
 134 100 134 100 142 85 c 256,27,28
 152 71 152 71 152 50 c 256,29,30
 152 30 152 30 142 14 c 0,31,32
 133 0 133 0 121 0 c 1,33,-1
 121 0 l 1,17,18
182 0 m 1,34,35
 169 0 169 0 160 14 c 0,36,37
 152 29 152 29 152 50 c 256,38,39
 152 70 152 70 160 85 c 256,40,41
 169 99 169 99 182 100 c 0,42,43
 195 100 195 100 203 85 c 0,44,45
 212 71 212 71 212 50 c 256,46,47
 212 30 212 30 203 14 c 0,48,49
 194 0 194 0 182 0 c 1,50,-1
 182 0 l 1,34,35
242 0 m 1,51,52
 229 0 229 0 221 14 c 0,53,54
 212 29 212 29 212 50 c 256,55,56
 212 70 212 70 221 85 c 0,57,58
 230 99 230 99 242 100 c 256,59,60
 255 100 255 100 264 85 c 0,61,62
 273 71 273 71 273 50 c 256,63,64
 273 30 273 30 264 14 c 0,65,66
 255 0 255 0 242 0 c 1,67,-1
 242 0 l 1,51,52
30 100 m 1,68,69
 17 100 17 100 9 115 c 0,70,71
 0 129 0 129 0 150 c 0,72,73
 0 170 0 170 9 185 c 0,74,75
 18 199 18 199 30 200 c 256,76,77
 43 200 43 200 52 185 c 0,78,79
 61 171 61 171 61 150 c 128,-1,80
 61 129 61 129 52 114.5 c 128,-1,81
 43 100 43 100 30 100 c 1,82,-1
 30 100 l 1,68,69
91 100 m 1,83,84
 78 100 78 100 69 115 c 256,85,86
 60.9 127.6 60.9 127.6 60.9 145.87 c 0,87,88
 60.9 169.8125 60.9 169.8125 69 185 c 256,89,90
 78 199 78 199 91 199.5 c 128,-1,91
 104 200 104 200 112 185 c 256,92,93
 121 171 121 171 121 150 c 128,-1,94
 121 129 121 129 112 115 c 256,95,96
 103 101 103 101 91 100 c 1,97,-1
 91 100 l 1,83,84
273 100 m 1,98,99
 260 100 260 100 251 115 c 256,100,101
 242 129 242 129 242 150 c 0,102,103
 242 170 242 170 251 185 c 256,104,105
 260 199 260 199 272.5 199.5 c 128,-1,106
 285 200 285 200 294 185.5 c 128,-1,107
 303 171 303 171 303 150 c 128,-1,108
 303 129 303 129 294 114.5 c 128,-1,109
 285 100 285 100 273 100 c 1,110,-1
 273 100 l 1,98,99
30 200 m 1,111,112
 17 200 17 200 9 215 c 0,113,114
 0 229 0 229 0 250 c 256,115,116
 0 270 0 270 9 286 c 0,117,118
 18 300 18 300 30 300 c 256,119,120
 43 300 43 300 52 286 c 0,121,122
 61 271 61 271 61 250 c 256,123,124
 61 230 61 230 52 215 c 0,125,126
 43 201 43 201 30 200 c 1,127,-1
 30 200 l 1,111,112
121 200 m 1,128,129
 108 200 108 200 100 215 c 0,130,131
 91 229 91 229 91 250 c 256,132,133
 91 270 91 270 100 286 c 0,134,135
 109 300 109 300 121.5 300 c 128,-1,136
 134 300 134 300 142 286 c 0,137,138
 152 271 152 271 152 250 c 256,139,140
 152 230 152 230 142 215 c 256,141,142
 133 201 133 201 121 200 c 1,143,-1
 121 200 l 1,128,129
273 200 m 1,144,145
 260 200 260 200 251 215 c 256,146,147
 242 229 242 229 242 250 c 256,148,149
 242 270 242 270 251 286 c 0,150,151
 260 300 260 300 272.5 300 c 128,-1,152
 285 300 285 300 294 286 c 0,153,154
 303 271 303 271 303 250 c 256,155,156
 303 230 303 230 294 215 c 0,157,158
 285 201 285 201 273 200 c 1,159,-1
 273 200 l 1,144,145
30 300 m 1,160,161
 17 300 17 300 9 314 c 0,162,163
 0 329 0 329 0 350 c 256,164,165
 0 370 0 370 9 385 c 0,166,167
 18 399 18 399 30 400 c 256,168,169
 43 400 43 400 52 385 c 0,170,171
 61 371 61 371 61 350 c 256,172,173
 61 330 61 330 52 314 c 0,174,175
 43 300 43 300 30 300 c 1,176,-1
 30 300 l 1,160,161
152 300 m 1,177,178
 139 300 139 300 130 314 c 0,179,180
 121 329 121 329 121 350 c 256,181,182
 121 370 121 370 130 385 c 0,183,184
 140 399 140 399 152 400 c 256,185,186
 165 400 165 400 173 385 c 0,187,188
 182 371 182 371 182 350 c 256,189,190
 182 330 182 330 173 314 c 0,191,192
 164 300 164 300 152 300 c 1,193,-1
 152 300 l 1,177,178
273 300 m 1,194,195
 260 300 260 300 251 314 c 0,196,197
 242 329 242 329 242 350 c 256,198,199
 242 370 242 370 251 385 c 256,200,201
 260 399 260 399 273 400 c 0,202,203
 286 400 286 400 294 385 c 0,204,205
 303 371 303 371 303 350 c 256,206,207
 303 330 303 330 294 314 c 0,208,209
 285 300 285 300 273 300 c 1,210,-1
 273 300 l 1,194,195
30 400 m 1,211,212
 17 400 17 400 9 415 c 0,213,214
 0 429 0 429 0 450 c 0,215,216
 0 470 0 470 9 485 c 0,217,218
 18 499 18 499 30 500 c 256,219,220
 43 500 43 500 52 485 c 0,221,222
 61 471 61 471 61 450 c 128,-1,223
 61 429 61 429 52 414.5 c 128,-1,224
 43 400 43 400 30 400 c 1,225,-1
 30 400 l 1,211,212
182 400 m 1,226,227
 169 400 169 400 160 415 c 256,228,229
 152 429 152 429 152 450 c 0,230,231
 152 470 152 470 160 485 c 256,232,233
 169 499 169 499 181.5 499.5 c 128,-1,234
 194 500 194 500 203 485.5 c 128,-1,235
 212 471 212 471 212 450 c 128,-1,236
 212 429 212 429 203 414.5 c 128,-1,237
 194 400 194 400 182 400 c 1,238,-1
 182 400 l 1,226,227
273 400 m 1,239,240
 260 400 260 400 251 415 c 256,241,242
 242 429 242 429 242 450 c 0,243,244
 242 470 242 470 251 485 c 256,245,246
 260 499 260 499 272.5 499.5 c 128,-1,247
 285 500 285 500 294 485.5 c 128,-1,248
 303 471 303 471 303 450 c 128,-1,249
 303 429 303 429 294 414.5 c 128,-1,250
 285 400 285 400 273 400 c 1,251,-1
 273 400 l 1,239,240
30 500 m 1,252,253
 17 500 17 500 9 515 c 0,254,255
 0 529 0 529 0 550 c 256,256,257
 0 570 0 570 9 586 c 0,258,259
 18 600 18 600 30 600 c 256,260,261
 43 600 43 600 52 586 c 0,262,263
 61 571 61 571 61 550 c 256,264,265
 61 530 61 530 52 515 c 0,266,267
 43 501 43 501 30 500 c 1,268,-1
 30 500 l 1,252,253
212 500 m 1,269,270
 198 500 198 500 190 515 c 0,271,272
 181.9 527.6 181.9 527.6 181.9 545.87 c 0,273,274
 181.9 569.8 181.9 569.8 190 586 c 0,275,276
 199 600 199 600 212 600 c 128,-1,277
 225 600 225 600 233 586 c 0,278,279
 242 571 242 571 242 550 c 256,280,281
 242 530 242 530 233 515 c 256,282,283
 224 501 224 501 212 500 c 1,284,-1
 212 500 l 1,269,270
273 500 m 1,285,286
 260 500 260 500 251 515 c 256,287,288
 242 529 242 529 242 550 c 256,289,290
 242 570 242 570 251 586 c 0,291,292
 260 600 260 600 272.5 600 c 128,-1,293
 285 600 285 600 294 586 c 0,294,295
 303 571 303 571 303 550 c 256,296,297
 303 530 303 530 294 515 c 0,298,299
 285 501 285 501 273 500 c 1,300,-1
 273 500 l 1,285,286
61 600 m 1,301,302
 48 600 48 600 39 614 c 0,303,304
 30 629 30 629 30 650 c 256,305,306
 30 670 30 670 39 685 c 0,307,308
 48 699 48 699 61 700 c 256,309,310
 74 700 74 700 82 685 c 0,311,312
 91 671 91 671 91 650 c 256,313,314
 91 630 91 630 82 614 c 0,315,316
 73 600 73 600 61 600 c 1,317,-1
 61 600 l 1,301,302
121 600 m 1,318,319
 108 600 108 600 100 614 c 0,320,321
 91 629 91 629 91 650 c 256,322,323
 91 670 91 670 100 685 c 0,324,325
 109 699 109 699 121 700 c 0,326,327
 134 700 134 700 142 685 c 256,328,329
 152 671 152 671 152 650 c 256,330,331
 152 630 152 630 142 614 c 0,332,333
 133 600 133 600 121 600 c 1,334,-1
 121 600 l 1,318,319
182 600 m 1,335,336
 169 600 169 600 160 614 c 0,337,338
 152 629 152 629 152 650 c 256,339,340
 152 670 152 670 160 685 c 256,341,342
 169 699 169 699 182 700 c 0,343,344
 195 700 195 700 203 685 c 0,345,346
 212 671 212 671 212 650 c 256,347,348
 212 630 212 630 203 614 c 0,349,350
 194 600 194 600 182 600 c 1,351,-1
 182 600 l 1,335,336
242 600 m 1,352,353
 229 600 229 600 221 614 c 0,354,355
 212 629 212 629 212 650 c 256,356,357
 212 670 212 670 221 685 c 0,358,359
 230 699 230 699 242 700 c 256,360,361
 255 700 255 700 264 685 c 0,362,363
 273 671 273 671 273 650 c 256,364,365
 273 630 273 630 264 614 c 0,366,367
 255 600 255 600 242 600 c 1,368,-1
 242 600 l 1,352,353
EndSplineSet
Validated: 524293
EndChar

StartChar: one
Encoding: 49 49 17
Width: 363
VWidth: 599
Flags: W
LayerCount: 2
Fore
SplineSet
91 0 m 1,0,1
 78 0 78 0 69 14 c 0,2,3
 60.9 27.5 60.9 27.5 60.9 45.86 c 0,4,5
 60.9 69.8125 60.9 69.8125 69 85 c 256,6,7
 78 99 78 99 91 100 c 0,8,9
 104 100 104 100 112 85 c 256,10,11
 121 71 121 71 121 50 c 256,12,13
 121 30 121 30 112 14 c 0,14,15
 103 0 103 0 91 0 c 1,16,-1
 91 0 l 1,0,1
152 0 m 1,17,18
 139 0 139 0 130 14 c 0,19,20
 121 29 121 29 121 50 c 256,21,22
 121 70 121 70 130 85 c 0,23,24
 140 99 140 99 152 100 c 256,25,26
 165 100 165 100 173 85 c 0,27,28
 182 71 182 71 182 50 c 256,29,30
 182 30 182 30 173 14 c 0,31,32
 164 0 164 0 152 0 c 1,33,-1
 152 0 l 1,17,18
212 0 m 1,34,35
 198 0 198 0 190 14 c 0,36,37
 181.9 27.5 181.9 27.5 181.9 45.86 c 0,38,39
 181.9 69.8125 181.9 69.8125 190 85 c 0,40,41
 199 99 199 99 212 100 c 0,42,43
 225 100 225 100 233 85 c 256,44,45
 242 71 242 71 242 50 c 256,46,47
 242 30 242 30 233 14 c 0,48,49
 224 0 224 0 212 0 c 1,50,-1
 212 0 l 1,34,35
152 100 m 1,51,52
 139 100 139 100 130 115 c 0,53,54
 121 129 121 129 121 150 c 0,55,56
 121 170 121 170 130 185 c 0,57,58
 140 199 140 199 152 200 c 256,59,60
 165 200 165 200 173 185 c 0,61,62
 182 171 182 171 182 150 c 128,-1,63
 182 129 182 129 173 115 c 128,-1,64
 164 101 164 101 152 100 c 1,65,-1
 152 100 l 1,51,52
152 200 m 1,66,67
 139 200 139 200 130 215 c 0,68,69
 121 229 121 229 121 250 c 256,70,71
 121 270 121 270 130 286 c 0,72,73
 140 300 140 300 152 300 c 256,74,75
 165 300 165 300 173 286 c 0,76,77
 182 271 182 271 182 250 c 256,78,79
 182 230 182 230 173 215 c 0,80,81
 164 201 164 201 152 200 c 1,82,-1
 152 200 l 1,66,67
152 300 m 1,83,84
 139 300 139 300 130 314 c 0,85,86
 121 329 121 329 121 350 c 256,87,88
 121 370 121 370 130 385 c 0,89,90
 140 399 140 399 152 400 c 256,91,92
 165 400 165 400 173 385 c 0,93,94
 182 371 182 371 182 350 c 256,95,96
 182 330 182 330 173 314 c 0,97,98
 164 300 164 300 152 300 c 1,99,-1
 152 300 l 1,83,84
152 400 m 1,100,101
 139 400 139 400 130 415 c 0,102,103
 121 429 121 429 121 450 c 0,104,105
 121 470 121 470 130 485 c 0,106,107
 140 499 140 499 152 500 c 256,108,109
 165 500 165 500 173 485 c 0,110,111
 182 471 182 471 182 450 c 128,-1,112
 182 429 182 429 173 415 c 128,-1,113
 164 401 164 401 152 400 c 1,114,-1
 152 400 l 1,100,101
91 500 m 1,115,116
 78 500 78 500 69 515 c 256,117,118
 60.9 527.6 60.9 527.6 60.9 545.87 c 0,119,120
 60.9 569.8 60.9 569.8 69 586 c 0,121,122
 78 600 78 600 91 600 c 128,-1,123
 104 600 104 600 112 586 c 0,124,125
 121 571 121 571 121 550 c 256,126,127
 121 530 121 530 112 515 c 256,128,129
 103 501 103 501 91 500 c 1,130,-1
 91 500 l 1,115,116
152 500 m 1,131,132
 139 500 139 500 130 515 c 0,133,134
 121 529 121 529 121 550 c 256,135,136
 121 570 121 570 130 586 c 0,137,138
 140 600 140 600 152 600 c 256,139,140
 165 600 165 600 173 586 c 0,141,142
 182 571 182 571 182 550 c 256,143,144
 182 530 182 530 173 515 c 0,145,146
 164 501 164 501 152 500 c 1,147,-1
 152 500 l 1,131,132
152 600 m 1,148,149
 139 600 139 600 130 614 c 0,150,151
 121 629 121 629 121 650 c 256,152,153
 121 670 121 670 130 685 c 0,154,155
 140 699 140 699 152 700 c 256,156,157
 165 700 165 700 173 685 c 0,158,159
 182 671 182 671 182 650 c 256,160,161
 182 630 182 630 173 614 c 0,162,163
 164 600 164 600 152 600 c 1,164,-1
 152 600 l 1,148,149
EndSplineSet
Validated: 524293
EndChar

StartChar: two
Encoding: 50 50 18
Width: 363
VWidth: 599
Flags: W
LayerCount: 2
Fore
SplineSet
30 0 m 1,0,1
 17 0 17 0 9 14 c 0,2,3
 0 29 0 29 0 50 c 256,4,5
 0 70 0 70 9 85 c 0,6,7
 18 99 18 99 30 100 c 256,8,9
 43 100 43 100 52 85 c 0,10,11
 61 71 61 71 61 50 c 256,12,13
 61 30 61 30 52 14 c 0,14,15
 43 0 43 0 30 0 c 1,16,-1
 30 0 l 1,0,1
91 0 m 1,17,18
 78 0 78 0 69 14 c 0,19,20
 60.9 27.5 60.9 27.5 60.9 45.86 c 0,21,22
 60.9 69.8125 60.9 69.8125 69 85 c 256,23,24
 78 99 78 99 91 100 c 0,25,26
 104 100 104 100 112 85 c 256,27,28
 121 71 121 71 121 50 c 256,29,30
 121 30 121 30 112 14 c 0,31,32
 103 0 103 0 91 0 c 1,33,-1
 91 0 l 1,17,18
152 0 m 1,34,35
 139 0 139 0 130 14 c 0,36,37
 121 29 121 29 121 50 c 256,38,39
 121 70 121 70 130 85 c 0,40,41
 140 99 140 99 152 100 c 256,42,43
 165 100 165 100 173 85 c 0,44,45
 182 71 182 71 182 50 c 256,46,47
 182 30 182 30 173 14 c 0,48,49
 164 0 164 0 152 0 c 1,50,-1
 152 0 l 1,34,35
212 0 m 1,51,52
 198 0 198 0 190 14 c 0,53,54
 181.9 27.5 181.9 27.5 181.9 45.86 c 0,55,56
 181.9 69.8125 181.9 69.8125 190 85 c 0,57,58
 199 99 199 99 212 100 c 0,59,60
 225 100 225 100 233 85 c 256,61,62
 242 71 242 71 242 50 c 256,63,64
 242 30 242 30 233 14 c 0,65,66
 224 0 224 0 212 0 c 1,67,-1
 212 0 l 1,51,52
273 0 m 1,68,69
 260 0 260 0 251 14 c 0,70,71
 242 29 242 29 242 50 c 256,72,73
 242 70 242 70 251 85 c 256,74,75
 260 99 260 99 273 100 c 0,76,77
 286 100 286 100 294 85 c 0,78,79
 303 71 303 71 303 50 c 256,80,81
 303 30 303 30 294 14 c 0,82,83
 285 0 285 0 273 0 c 1,84,-1
 273 0 l 1,68,69
91 100 m 1,85,86
 78 100 78 100 69 115 c 256,87,88
 60.9 127.6 60.9 127.6 60.9 145.87 c 0,89,90
 60.9 169.8125 60.9 169.8125 69 185 c 256,91,92
 78 199 78 199 91 200 c 0,93,94
 104 200 104 200 112 185 c 256,95,96
 121 171 121 171 121 150 c 128,-1,97
 121 129 121 129 112 115 c 256,98,99
 103 101 103 101 91 100 c 1,100,-1
 91 100 l 1,85,86
152 200 m 1,101,102
 139 200 139 200 130 215 c 0,103,104
 121 229 121 229 121 250 c 256,105,106
 121 270 121 270 130 286 c 0,107,108
 140 300 140 300 152 300 c 256,109,110
 165 300 165 300 173 286 c 0,111,112
 182 271 182 271 182 250 c 256,113,114
 182 230 182 230 173 215 c 0,115,116
 164 201 164 201 152 200 c 1,117,-1
 152 200 l 1,101,102
212 300 m 1,118,119
 198 300 198 300 190 314 c 0,120,121
 181.9 327.5 181.9 327.5 181.9 345.86 c 0,122,123
 181.9 369.8125 181.9 369.8125 190 385 c 0,124,125
 199 399 199 399 212 400 c 0,126,127
 225 400 225 400 233 385 c 256,128,129
 242 371 242 371 242 350 c 256,130,131
 242 330 242 330 233 314 c 0,132,133
 224 300 224 300 212 300 c 1,134,-1
 212 300 l 1,118,119
273 400 m 1,135,136
 260 400 260 400 251 415 c 256,137,138
 242 429 242 429 242 450 c 0,139,140
 242 470 242 470 251 485 c 256,141,142
 260 499 260 499 273 500 c 0,143,144
 286 500 286 500 294 485 c 0,145,146
 303 471 303 471 303 450 c 128,-1,147
 303 429 303 429 294 415 c 128,-1,148
 285 401 285 401 273 400 c 1,149,-1
 273 400 l 1,135,136
30 500 m 1,150,151
 17 500 17 500 9 515 c 0,152,153
 0 529 0 529 0 550 c 256,154,155
 0 570 0 570 9 586 c 0,156,157
 18 600 18 600 30 600 c 256,158,159
 43 600 43 600 52 586 c 0,160,161
 61 571 61 571 61 550 c 256,162,163
 61 530 61 530 52 515 c 0,164,165
 43 501 43 501 30 500 c 1,166,-1
 30 500 l 1,150,151
273 500 m 1,167,168
 260 500 260 500 251 515 c 256,169,170
 242 529 242 529 242 550 c 256,171,172
 242 570 242 570 251 586 c 0,173,174
 260 600 260 600 273 600 c 128,-1,175
 286 600 286 600 294 586 c 0,176,177
 303 571 303 571 303 550 c 256,178,179
 303 530 303 530 294 515 c 0,180,181
 285 501 285 501 273 500 c 1,182,-1
 273 500 l 1,167,168
91 600 m 1,183,184
 78 600 78 600 69 614 c 0,185,186
 60.9 627.5 60.9 627.5 60.9 645.86 c 0,187,188
 60.9 669.8125 60.9 669.8125 69 685 c 256,189,190
 78 699 78 699 91 700 c 0,191,192
 104 700 104 700 112 685 c 256,193,194
 121 671 121 671 121 650 c 256,195,196
 121 630 121 630 112 614 c 0,197,198
 103 600 103 600 91 600 c 1,199,-1
 91 600 l 1,183,184
152 600 m 1,200,201
 139 600 139 600 130 614 c 0,202,203
 121 629 121 629 121 650 c 256,204,205
 121 670 121 670 130 685 c 0,206,207
 140 699 140 699 152 700 c 256,208,209
 165 700 165 700 173 685 c 0,210,211
 182 671 182 671 182 650 c 256,212,213
 182 630 182 630 173 614 c 0,214,215
 164 600 164 600 152 600 c 1,216,-1
 152 600 l 1,200,201
212 600 m 1,217,218
 198 600 198 600 190 614 c 0,219,220
 181.9 627.5 181.9 627.5 181.9 645.86 c 0,221,222
 181.9 669.8125 181.9 669.8125 190 685 c 0,223,224
 199 699 199 699 212 700 c 0,225,226
 225 700 225 700 233 685 c 256,227,228
 242 671 242 671 242 650 c 256,229,230
 242 630 242 630 233 614 c 0,231,232
 224 600 224 600 212 600 c 1,233,-1
 212 600 l 1,217,218
EndSplineSet
Validated: 524293
EndChar

StartChar: three
Encoding: 51 51 19
Width: 363
VWidth: 599
Flags: W
LayerCount: 2
Fore
SplineSet
91 0 m 1,0,1
 78 0 78 0 69 14 c 0,2,3
 60.9 27.5 60.9 27.5 60.9 45.86 c 0,4,5
 60.9 69.8125 60.9 69.8125 69 85 c 256,6,7
 78 99 78 99 91 100 c 0,8,9
 104 100 104 100 112 85 c 256,10,11
 121 71 121 71 121 50 c 256,12,13
 121 30 121 30 112 14 c 0,14,15
 103 0 103 0 91 0 c 1,16,-1
 91 0 l 1,0,1
152 0 m 1,17,18
 139 0 139 0 130 14 c 0,19,20
 121 29 121 29 121 50 c 256,21,22
 121 70 121 70 130 85 c 0,23,24
 140 99 140 99 152 100 c 256,25,26
 165 100 165 100 173 85 c 0,27,28
 182 71 182 71 182 50 c 256,29,30
 182 30 182 30 173 14 c 0,31,32
 164 0 164 0 152 0 c 1,33,-1
 152 0 l 1,17,18
212 0 m 1,34,35
 198 0 198 0 190 14 c 0,36,37
 181.9 27.5 181.9 27.5 181.9 45.86 c 0,38,39
 181.9 69.8125 181.9 69.8125 190 85 c 0,40,41
 199 99 199 99 212 100 c 0,42,43
 225 100 225 100 233 85 c 256,44,45
 242 71 242 71 242 50 c 256,46,47
 242 30 242 30 233 14 c 0,48,49
 224 0 224 0 212 0 c 1,50,-1
 212 0 l 1,34,35
30 100 m 1,51,52
 17 100 17 100 9 115 c 0,53,54
 0 129 0 129 0 150 c 0,55,56
 0 170 0 170 9 185 c 0,57,58
 18 199 18 199 30 200 c 256,59,60
 43 200 43 200 52 185 c 0,61,62
 61 171 61 171 61 150 c 128,-1,63
 61 129 61 129 52 115 c 128,-1,64
 43 101 43 101 30 100 c 1,65,-1
 30 100 l 1,51,52
273 100 m 1,66,67
 260 100 260 100 251 115 c 256,68,69
 242 129 242 129 242 150 c 0,70,71
 242 170 242 170 251 185 c 256,72,73
 260 199 260 199 273 200 c 0,74,75
 286 200 286 200 294 185 c 0,76,77
 303 171 303 171 303 150 c 128,-1,78
 303 129 303 129 294 115 c 128,-1,79
 285 101 285 101 273 100 c 1,80,-1
 273 100 l 1,66,67
273 200 m 1,81,82
 260 200 260 200 251 215 c 256,83,84
 242 229 242 229 242 250 c 256,85,86
 242 270 242 270 251 286 c 0,87,88
 260 300 260 300 273 300 c 128,-1,89
 286 300 286 300 294 286 c 0,90,91
 303 271 303 271 303 250 c 256,92,93
 303 230 303 230 294 215 c 0,94,95
 285 201 285 201 273 200 c 1,96,-1
 273 200 l 1,81,82
212 300 m 1,97,98
 198 300 198 300 190 314 c 0,99,100
 181.9 327.5 181.9 327.5 181.9 345.86 c 0,101,102
 181.9 369.8125 181.9 369.8125 190 385 c 0,103,104
 199 399 199 399 212 400 c 0,105,106
 225 400 225 400 233 385 c 256,107,108
 242 371 242 371 242 350 c 256,109,110
 242 330 242 330 233 314 c 0,111,112
 224 300 224 300 212 300 c 1,113,-1
 212 300 l 1,97,98
152 400 m 1,114,115
 139 400 139 400 130 415 c 0,116,117
 121 429 121 429 121 450 c 0,118,119
 121 470 121 470 130 485 c 0,120,121
 140 499 140 499 152 500 c 256,122,123
 165 500 165 500 173 485 c 0,124,125
 182 471 182 471 182 450 c 128,-1,126
 182 429 182 429 173 415 c 128,-1,127
 164 401 164 401 152 400 c 1,128,-1
 152 400 l 1,114,115
212 500 m 1,129,130
 198 500 198 500 190 515 c 0,131,132
 181.9 527.6 181.9 527.6 181.9 545.87 c 0,133,134
 181.9 569.8 181.9 569.8 190 586 c 0,135,136
 199 600 199 600 212 600 c 128,-1,137
 225 600 225 600 233 586 c 0,138,139
 242 571 242 571 242 550 c 256,140,141
 242 530 242 530 233 515 c 256,142,143
 224 501 224 501 212 500 c 1,144,-1
 212 500 l 1,129,130
30 600 m 1,145,146
 17 600 17 600 9 614 c 0,147,148
 0 629 0 629 0 650 c 256,149,150
 0 670 0 670 9 685 c 0,151,152
 18 699 18 699 30 700 c 256,153,154
 43 700 43 700 52 685 c 0,155,156
 61 671 61 671 61 650 c 256,157,158
 61 630 61 630 52 614 c 0,159,160
 43 600 43 600 30 600 c 1,161,-1
 30 600 l 1,145,146
91 600 m 1,162,163
 78 600 78 600 69 614 c 0,164,165
 60.9 627.5 60.9 627.5 60.9 645.86 c 0,166,167
 60.9 669.8125 60.9 669.8125 69 685 c 256,168,169
 78 699 78 699 91 700 c 0,170,171
 104 700 104 700 112 685 c 256,172,173
 121 671 121 671 121 650 c 256,174,175
 121 630 121 630 112 614 c 0,176,177
 103 600 103 600 91 600 c 1,178,-1
 91 600 l 1,162,163
152 600 m 1,179,180
 139 600 139 600 130 614 c 0,181,182
 121 629 121 629 121 650 c 256,183,184
 121 670 121 670 130 685 c 0,185,186
 140 699 140 699 152 700 c 256,187,188
 165 700 165 700 173 685 c 0,189,190
 182 671 182 671 182 650 c 256,191,192
 182 630 182 630 173 614 c 0,193,194
 164 600 164 600 152 600 c 1,195,-1
 152 600 l 1,179,180
212 600 m 1,196,197
 198 600 198 600 190 614 c 0,198,199
 181.9 627.5 181.9 627.5 181.9 645.86 c 0,200,201
 181.9 669.8125 181.9 669.8125 190 685 c 0,202,203
 199 699 199 699 212 700 c 0,204,205
 225 700 225 700 233 685 c 256,206,207
 242 671 242 671 242 650 c 256,208,209
 242 630 242 630 233 614 c 0,210,211
 224 600 224 600 212 600 c 1,212,-1
 212 600 l 1,196,197
273 600 m 1,213,214
 260 600 260 600 251 614 c 0,215,216
 242 629 242 629 242 650 c 256,217,218
 242 670 242 670 251 685 c 256,219,220
 260 699 260 699 273 700 c 0,221,222
 286 700 286 700 294 685 c 0,223,224
 303 671 303 671 303 650 c 256,225,226
 303 630 303 630 294 614 c 0,227,228
 285 600 285 600 273 600 c 1,229,-1
 273 600 l 1,213,214
EndSplineSet
Validated: 524293
EndChar

StartChar: four
Encoding: 52 52 20
Width: 363
VWidth: 599
Flags: W
LayerCount: 2
Fore
SplineSet
212 0 m 1,0,1
 198 0 198 0 190 14 c 0,2,3
 181.9 27.5 181.9 27.5 181.9 45.86 c 0,4,5
 181.9 69.8125 181.9 69.8125 190 85 c 0,6,7
 199 99 199 99 212 100 c 0,8,9
 225 100 225 100 233 85 c 256,10,11
 242 71 242 71 242 50 c 256,12,13
 242 30 242 30 233 14 c 0,14,15
 224 0 224 0 212 0 c 1,16,-1
 212 0 l 1,0,1
30 100 m 1,17,18
 17 100 17 100 9 115 c 0,19,20
 0 129 0 129 0 150 c 0,21,22
 0 170 0 170 9 185 c 0,23,24
 18 199 18 199 30 200 c 256,25,26
 43 200 43 200 52 185 c 0,27,28
 61 171 61 171 61 150 c 128,-1,29
 61 129 61 129 52 115 c 128,-1,30
 43 101 43 101 30 100 c 1,31,-1
 30 100 l 1,17,18
91 100 m 1,32,33
 78 100 78 100 69 115 c 256,34,35
 60.9 127.6 60.9 127.6 60.9 145.87 c 0,36,37
 60.9 169.8125 60.9 169.8125 69 185 c 256,38,39
 78 199 78 199 91 200 c 0,40,41
 104 200 104 200 112 185 c 256,42,43
 121 171 121 171 121 150 c 128,-1,44
 121 129 121 129 112 115 c 256,45,46
 103 101 103 101 91 100 c 1,47,-1
 91 100 l 1,32,33
152 100 m 1,48,49
 139 100 139 100 130 115 c 0,50,51
 121 129 121 129 121 150 c 0,52,53
 121 170 121 170 130 185 c 0,54,55
 140 199 140 199 152 200 c 256,56,57
 165 200 165 200 173 185 c 0,58,59
 182 171 182 171 182 150 c 128,-1,60
 182 129 182 129 173 115 c 128,-1,61
 164 101 164 101 152 100 c 1,62,-1
 152 100 l 1,48,49
212 100 m 1,63,64
 198 100 198 100 190 115 c 0,65,66
 181.9 127.6 181.9 127.6 181.9 145.87 c 0,67,68
 181.9 169.8125 181.9 169.8125 190 185 c 0,69,70
 199 199 199 199 212 200 c 0,71,72
 225 200 225 200 233 185 c 256,73,74
 242 171 242 171 242 150 c 128,-1,75
 242 129 242 129 233 115 c 256,76,77
 224 101 224 101 212 100 c 1,78,-1
 212 100 l 1,63,64
273 100 m 1,79,80
 260 100 260 100 251 115 c 256,81,82
 242 129 242 129 242 150 c 0,83,84
 242 170 242 170 251 185 c 256,85,86
 260 199 260 199 273 200 c 0,87,88
 286 200 286 200 294 185 c 0,89,90
 303 171 303 171 303 150 c 128,-1,91
 303 129 303 129 294 115 c 128,-1,92
 285 101 285 101 273 100 c 1,93,-1
 273 100 l 1,79,80
30 200 m 1,94,95
 17 200 17 200 9 215 c 0,96,97
 0 229 0 229 0 250 c 256,98,99
 0 270 0 270 9 286 c 0,100,101
 18 300 18 300 30 300 c 256,102,103
 43 300 43 300 52 286 c 0,104,105
 61 271 61 271 61 250 c 256,106,107
 61 230 61 230 52 215 c 0,108,109
 43 201 43 201 30 200 c 1,110,-1
 30 200 l 1,94,95
212 200 m 1,111,112
 198 200 198 200 190 215 c 0,113,114
 181.9 227.6 181.9 227.6 181.9 245.87 c 0,115,116
 181.9 269.8 181.9 269.8 190 286 c 0,117,118
 199 300 199 300 212 300 c 128,-1,119
 225 300 225 300 233 286 c 0,120,121
 242 271 242 271 242 250 c 256,122,123
 242 230 242 230 233 215 c 256,124,125
 224 201 224 201 212 200 c 1,126,-1
 212 200 l 1,111,112
61 300 m 1,127,128
 48 300 48 300 39 314 c 0,129,130
 30 329 30 329 30 350 c 256,131,132
 30 370 30 370 39 385 c 0,133,134
 48 399 48 399 61 400 c 256,135,136
 74 400 74 400 82 385 c 0,137,138
 91 371 91 371 91 350 c 256,139,140
 91 330 91 330 82 314 c 0,141,142
 73 300 73 300 61 300 c 1,143,-1
 61 300 l 1,127,128
212 300 m 1,144,145
 198 300 198 300 190 314 c 0,146,147
 181.9 327.5 181.9 327.5 181.9 345.86 c 0,148,149
 181.9 369.8125 181.9 369.8125 190 385 c 0,150,151
 199 399 199 399 212 400 c 0,152,153
 225 400 225 400 233 385 c 256,154,155
 242 371 242 371 242 350 c 256,156,157
 242 330 242 330 233 314 c 0,158,159
 224 300 224 300 212 300 c 1,160,-1
 212 300 l 1,144,145
91 400 m 1,161,162
 78 400 78 400 69 415 c 256,163,164
 60.9 427.6 60.9 427.6 60.9 445.87 c 0,165,166
 60.9 469.8125 60.9 469.8125 69 485 c 256,167,168
 78 499 78 499 91 500 c 0,169,170
 104 500 104 500 112 485 c 256,171,172
 121 471 121 471 121 450 c 128,-1,173
 121 429 121 429 112 415 c 256,174,175
 103 401 103 401 91 400 c 1,176,-1
 91 400 l 1,161,162
212 400 m 1,177,178
 198 400 198 400 190 415 c 0,179,180
 181.9 427.6 181.9 427.6 181.9 445.87 c 0,181,182
 181.9 469.8125 181.9 469.8125 190 485 c 0,183,184
 199 499 199 499 212 500 c 0,185,186
 225 500 225 500 233 485 c 256,187,188
 242 471 242 471 242 450 c 128,-1,189
 242 429 242 429 233 415 c 256,190,191
 224 401 224 401 212 400 c 1,192,-1
 212 400 l 1,177,178
121 500 m 1,193,194
 108 500 108 500 100 515 c 0,195,196
 91 529 91 529 91 550 c 256,197,198
 91 570 91 570 100 586 c 0,199,200
 109 600 109 600 121 600 c 0,201,202
 134 600 134 600 142 586 c 0,203,204
 152 571 152 571 152 550 c 256,205,206
 152 530 152 530 142 515 c 256,207,208
 133 501 133 501 121 500 c 1,209,-1
 121 500 l 1,193,194
152 600 m 1,210,211
 139 600 139 600 130 614 c 0,212,213
 121 629 121 629 121 650 c 256,214,215
 121 670 121 670 130 685 c 0,216,217
 140 699 140 699 152 700 c 256,218,219
 165 700 165 700 173 685 c 0,220,221
 182 671 182 671 182 650 c 256,222,223
 182 630 182 630 173 614 c 0,224,225
 164 600 164 600 152 600 c 1,226,-1
 152 600 l 1,210,211
EndSplineSet
Validated: 524293
EndChar

StartChar: five
Encoding: 53 53 21
Width: 363
VWidth: 599
Flags: W
LayerCount: 2
Fore
SplineSet
61 0 m 1,0,1
 48 0 48 0 39 14 c 0,2,3
 30 29 30 29 30 50 c 256,4,5
 30 70 30 70 39 85 c 0,6,7
 48 99 48 99 61 100 c 256,8,9
 74 100 74 100 82 85 c 0,10,11
 91 71 91 71 91 50 c 256,12,13
 91 30 91 30 82 14 c 0,14,15
 73 0 73 0 61 0 c 1,16,-1
 61 0 l 1,0,1
121 0 m 1,17,18
 108 0 108 0 100 14 c 0,19,20
 91 29 91 29 91 50 c 256,21,22
 91 70 91 70 100 85 c 0,23,24
 109 99 109 99 121 100 c 0,25,26
 134 100 134 100 142 85 c 256,27,28
 152 71 152 71 152 50 c 256,29,30
 152 30 152 30 142 14 c 0,31,32
 133 0 133 0 121 0 c 1,33,-1
 121 0 l 1,17,18
182 0 m 1,34,35
 169 0 169 0 160 14 c 0,36,37
 152 29 152 29 152 50 c 256,38,39
 152 70 152 70 160 85 c 256,40,41
 169 99 169 99 182 100 c 0,42,43
 195 100 195 100 203 85 c 0,44,45
 212 71 212 71 212 50 c 256,46,47
 212 30 212 30 203 14 c 0,48,49
 194 0 194 0 182 0 c 1,50,-1
 182 0 l 1,34,35
242 0 m 1,51,52
 229 0 229 0 221 14 c 0,53,54
 212 29 212 29 212 50 c 256,55,56
 212 70 212 70 221 85 c 0,57,58
 230 99 230 99 242 100 c 256,59,60
 255 100 255 100 264 85 c 0,61,62
 273 71 273 71 273 50 c 256,63,64
 273 30 273 30 264 14 c 0,65,66
 255 0 255 0 242 0 c 1,67,-1
 242 0 l 1,51,52
30 100 m 1,68,69
 17 100 17 100 9 115 c 0,70,71
 0 129 0 129 0 150 c 0,72,73
 0 170 0 170 9 185 c 0,74,75
 18 199 18 199 30 200 c 256,76,77
 43 200 43 200 52 185 c 0,78,79
 61 171 61 171 61 150 c 128,-1,80
 61 129 61 129 52 115 c 128,-1,81
 43 101 43 101 30 100 c 1,82,-1
 30 100 l 1,68,69
273 100 m 1,83,84
 260 100 260 100 251 115 c 256,85,86
 242 129 242 129 242 150 c 0,87,88
 242 170 242 170 251 185 c 256,89,90
 260 199 260 199 273 200 c 0,91,92
 286 200 286 200 294 185 c 0,93,94
 303 171 303 171 303 150 c 128,-1,95
 303 129 303 129 294 115 c 128,-1,96
 285 101 285 101 273 100 c 1,97,-1
 273 100 l 1,83,84
273 200 m 1,98,99
 260 200 260 200 251 215 c 256,100,101
 242 229 242 229 242 250 c 256,102,103
 242 270 242 270 251 286 c 0,104,105
 260 300 260 300 273 300 c 128,-1,106
 286 300 286 300 294 286 c 0,107,108
 303 271 303 271 303 250 c 256,109,110
 303 230 303 230 294 215 c 0,111,112
 285 201 285 201 273 200 c 1,113,-1
 273 200 l 1,98,99
273 300 m 1,114,115
 260 300 260 300 251 314 c 0,116,117
 242 329 242 329 242 350 c 256,118,119
 242 370 242 370 251 385 c 256,120,121
 260 399 260 399 273 400 c 0,122,123
 286 400 286 400 294 385 c 0,124,125
 303 371 303 371 303 350 c 256,126,127
 303 330 303 330 294 314 c 0,128,129
 285 300 285 300 273 300 c 1,130,-1
 273 300 l 1,114,115
30 400 m 1,131,132
 17 400 17 400 9 415 c 0,133,134
 0 429 0 429 0 450 c 0,135,136
 0 470 0 470 9 485 c 0,137,138
 18 499 18 499 30 500 c 256,139,140
 43 500 43 500 52 485 c 0,141,142
 61 471 61 471 61 450 c 128,-1,143
 61 429 61 429 52 415 c 128,-1,144
 43 401 43 401 30 400 c 1,145,-1
 30 400 l 1,131,132
91 400 m 1,146,147
 78 400 78 400 69 415 c 256,148,149
 60.9 427.6 60.9 427.6 60.9 445.87 c 0,150,151
 60.9 469.8125 60.9 469.8125 69 485 c 256,152,153
 78 499 78 499 91 500 c 0,154,155
 104 500 104 500 112 485 c 256,156,157
 121 471 121 471 121 450 c 128,-1,158
 121 429 121 429 112 415 c 256,159,160
 103 401 103 401 91 400 c 1,161,-1
 91 400 l 1,146,147
152 400 m 1,162,163
 139 400 139 400 130 415 c 0,164,165
 121 429 121 429 121 450 c 0,166,167
 121 470 121 470 130 485 c 0,168,169
 140 499 140 499 152 500 c 256,170,171
 165 500 165 500 173 485 c 0,172,173
 182 471 182 471 182 450 c 128,-1,174
 182 429 182 429 173 415 c 128,-1,175
 164 401 164 401 152 400 c 1,176,-1
 152 400 l 1,162,163
212 400 m 1,177,178
 198 400 198 400 190 415 c 0,179,180
 181.9 427.6 181.9 427.6 181.9 445.87 c 0,181,182
 181.9 469.8125 181.9 469.8125 190 485 c 0,183,184
 199 499 199 499 212 500 c 0,185,186
 225 500 225 500 233 485 c 256,187,188
 242 471 242 471 242 450 c 128,-1,189
 242 429 242 429 233 415 c 256,190,191
 224 401 224 401 212 400 c 1,192,-1
 212 400 l 1,177,178
30 500 m 1,193,194
 17 500 17 500 9 515 c 0,195,196
 0 529 0 529 0 550 c 256,197,198
 0 570 0 570 9 586 c 0,199,200
 18 600 18 600 30 600 c 256,201,202
 43 600 43 600 52 586 c 0,203,204
 61 571 61 571 61 550 c 256,205,206
 61 530 61 530 52 515 c 0,207,208
 43 501 43 501 30 500 c 1,209,-1
 30 500 l 1,193,194
30 600 m 1,210,211
 17 600 17 600 9 614 c 0,212,213
 0 629 0 629 0 650 c 256,214,215
 0 670 0 670 9 685 c 0,216,217
 18 699 18 699 30 700 c 256,218,219
 43 700 43 700 52 685 c 0,220,221
 61 671 61 671 61 650 c 256,222,223
 61 630 61 630 52 614 c 0,224,225
 43 600 43 600 30 600 c 1,226,-1
 30 600 l 1,210,211
91 600 m 1,227,228
 78 600 78 600 69 614 c 0,229,230
 60.9 627.5 60.9 627.5 60.9 645.86 c 0,231,232
 60.9 669.8125 60.9 669.8125 69 685 c 256,233,234
 78 699 78 699 91 700 c 0,235,236
 104 700 104 700 112 685 c 256,237,238
 121 671 121 671 121 650 c 256,239,240
 121 630 121 630 112 614 c 0,241,242
 103 600 103 600 91 600 c 1,243,-1
 91 600 l 1,227,228
152 600 m 1,244,245
 139 600 139 600 130 614 c 0,246,247
 121 629 121 629 121 650 c 256,248,249
 121 670 121 670 130 685 c 0,250,251
 140 699 140 699 152 700 c 256,252,253
 165 700 165 700 173 685 c 0,254,255
 182 671 182 671 182 650 c 256,256,257
 182 630 182 630 173 614 c 0,258,259
 164 600 164 600 152 600 c 1,260,-1
 152 600 l 1,244,245
212 600 m 1,261,262
 198 600 198 600 190 614 c 0,263,264
 181.9 627.5 181.9 627.5 181.9 645.86 c 0,265,266
 181.9 669.8125 181.9 669.8125 190 685 c 0,267,268
 199 699 199 699 212 700 c 0,269,270
 225 700 225 700 233 685 c 256,271,272
 242 671 242 671 242 650 c 256,273,274
 242 630 242 630 233 614 c 0,275,276
 224 600 224 600 212 600 c 1,277,-1
 212 600 l 1,261,262
273 600 m 1,278,279
 260 600 260 600 251 614 c 0,280,281
 242 629 242 629 242 650 c 256,282,283
 242 670 242 670 251 685 c 256,284,285
 260 699 260 699 273 700 c 0,286,287
 286 700 286 700 294 685 c 0,288,289
 303 671 303 671 303 650 c 256,290,291
 303 630 303 630 294 614 c 0,292,293
 285 600 285 600 273 600 c 1,294,-1
 273 600 l 1,278,279
EndSplineSet
Validated: 524293
EndChar

StartChar: six
Encoding: 54 54 22
Width: 363
VWidth: 599
Flags: W
LayerCount: 2
Fore
SplineSet
61 0 m 1,0,1
 48 0 48 0 39 14 c 0,2,3
 30 29 30 29 30 50 c 256,4,5
 30 70 30 70 39 85 c 0,6,7
 48 99 48 99 61 100 c 256,8,9
 74 100 74 100 82 85 c 0,10,11
 91 71 91 71 91 50 c 256,12,13
 91 30 91 30 82 14 c 0,14,15
 73 0 73 0 61 0 c 1,16,-1
 61 0 l 1,0,1
121 0 m 1,17,18
 108 0 108 0 100 14 c 0,19,20
 91 29 91 29 91 50 c 256,21,22
 91 70 91 70 100 85 c 0,23,24
 109 99 109 99 121 100 c 0,25,26
 134 100 134 100 142 85 c 256,27,28
 152 71 152 71 152 50 c 256,29,30
 152 30 152 30 142 14 c 0,31,32
 133 0 133 0 121 0 c 1,33,-1
 121 0 l 1,17,18
182 0 m 1,34,35
 169 0 169 0 160 14 c 0,36,37
 152 29 152 29 152 50 c 256,38,39
 152 70 152 70 160 85 c 256,40,41
 169 99 169 99 182 100 c 0,42,43
 195 100 195 100 203 85 c 0,44,45
 212 71 212 71 212 50 c 256,46,47
 212 30 212 30 203 14 c 0,48,49
 194 0 194 0 182 0 c 1,50,-1
 182 0 l 1,34,35
242 0 m 1,51,52
 229 0 229 0 221 14 c 0,53,54
 212 29 212 29 212 50 c 256,55,56
 212 70 212 70 221 85 c 0,57,58
 230 99 230 99 242 100 c 256,59,60
 255 100 255 100 264 85 c 0,61,62
 273 71 273 71 273 50 c 256,63,64
 273 30 273 30 264 14 c 0,65,66
 255 0 255 0 242 0 c 1,67,-1
 242 0 l 1,51,52
30 100 m 1,68,69
 17 100 17 100 9 115 c 0,70,71
 0 129 0 129 0 150 c 0,72,73
 0 170 0 170 9 185 c 0,74,75
 18 199 18 199 30 200 c 256,76,77
 43 200 43 200 52 185 c 0,78,79
 61 171 61 171 61 150 c 128,-1,80
 61 129 61 129 52 115 c 128,-1,81
 43 101 43 101 30 100 c 1,82,-1
 30 100 l 1,68,69
273 100 m 1,83,84
 260 100 260 100 251 115 c 256,85,86
 242 129 242 129 242 150 c 0,87,88
 242 170 242 170 251 185 c 256,89,90
 260 199 260 199 273 200 c 0,91,92
 286 200 286 200 294 185 c 0,93,94
 303 171 303 171 303 150 c 128,-1,95
 303 129 303 129 294 115 c 128,-1,96
 285 101 285 101 273 100 c 1,97,-1
 273 100 l 1,83,84
30 200 m 1,98,99
 17 200 17 200 9 215 c 0,100,101
 0 229 0 229 0 250 c 256,102,103
 0 270 0 270 9 286 c 0,104,105
 18 300 18 300 30 300 c 256,106,107
 43 300 43 300 52 286 c 0,108,109
 61 271 61 271 61 250 c 256,110,111
 61 230 61 230 52 215 c 0,112,113
 43 201 43 201 30 200 c 1,114,-1
 30 200 l 1,98,99
273 200 m 1,115,116
 260 200 260 200 251 215 c 256,117,118
 242 229 242 229 242 250 c 256,119,120
 242 270 242 270 251 286 c 0,121,122
 260 300 260 300 273 300 c 128,-1,123
 286 300 286 300 294 286 c 0,124,125
 303 271 303 271 303 250 c 256,126,127
 303 230 303 230 294 215 c 0,128,129
 285 201 285 201 273 200 c 1,130,-1
 273 200 l 1,115,116
30 300 m 1,131,132
 17 300 17 300 9 314 c 0,133,134
 0 329 0 329 0 350 c 256,135,136
 0 370 0 370 9 385 c 0,137,138
 18 399 18 399 30 400 c 256,139,140
 43 400 43 400 52 385 c 0,141,142
 61 371 61 371 61 350 c 256,143,144
 61 330 61 330 52 314 c 0,145,146
 43 300 43 300 30 300 c 1,147,-1
 30 300 l 1,131,132
91 300 m 1,148,149
 78 300 78 300 69 314 c 0,150,151
 60.9 327.5 60.9 327.5 60.9 345.86 c 0,152,153
 60.9 369.8125 60.9 369.8125 69 385 c 256,154,155
 78 399 78 399 91 400 c 0,156,157
 104 400 104 400 112 385 c 256,158,159
 121 371 121 371 121 350 c 256,160,161
 121 330 121 330 112 314 c 0,162,163
 103 300 103 300 91 300 c 1,164,-1
 91 300 l 1,148,149
152 300 m 1,165,166
 139 300 139 300 130 314 c 0,167,168
 121 329 121 329 121 350 c 256,169,170
 121 370 121 370 130 385 c 0,171,172
 140 399 140 399 152 400 c 256,173,174
 165 400 165 400 173 385 c 0,175,176
 182 371 182 371 182 350 c 256,177,178
 182 330 182 330 173 314 c 0,179,180
 164 300 164 300 152 300 c 1,181,-1
 152 300 l 1,165,166
212 300 m 1,182,183
 198 300 198 300 190 314 c 0,184,185
 181.9 327.5 181.9 327.5 181.9 345.86 c 0,186,187
 181.9 369.8125 181.9 369.8125 190 385 c 0,188,189
 199 399 199 399 212 400 c 0,190,191
 225 400 225 400 233 385 c 256,192,193
 242 371 242 371 242 350 c 256,194,195
 242 330 242 330 233 314 c 0,196,197
 224 300 224 300 212 300 c 1,198,-1
 212 300 l 1,182,183
30 400 m 1,199,200
 17 400 17 400 9 415 c 0,201,202
 0 429 0 429 0 450 c 0,203,204
 0 470 0 470 9 485 c 0,205,206
 18 499 18 499 30 500 c 256,207,208
 43 500 43 500 52 485 c 0,209,210
 61 471 61 471 61 450 c 128,-1,211
 61 429 61 429 52 415 c 128,-1,212
 43 401 43 401 30 400 c 1,213,-1
 30 400 l 1,199,200
30 500 m 1,214,215
 17 500 17 500 9 515 c 0,216,217
 0 529 0 529 0 550 c 256,218,219
 0 570 0 570 9 586 c 0,220,221
 18 600 18 600 30 600 c 256,222,223
 43 600 43 600 52 586 c 0,224,225
 61 571 61 571 61 550 c 256,226,227
 61 530 61 530 52 515 c 0,228,229
 43 501 43 501 30 500 c 1,230,-1
 30 500 l 1,214,215
61 600 m 1,231,232
 48 600 48 600 39 614 c 0,233,234
 30 629 30 629 30 650 c 256,235,236
 30 670 30 670 39 685 c 0,237,238
 48 699 48 699 61 700 c 256,239,240
 74 700 74 700 82 685 c 0,241,242
 91 671 91 671 91 650 c 256,243,244
 91 630 91 630 82 614 c 0,245,246
 73 600 73 600 61 600 c 1,247,-1
 61 600 l 1,231,232
121 600 m 1,248,249
 108 600 108 600 100 614 c 0,250,251
 91 629 91 629 91 650 c 256,252,253
 91 670 91 670 100 685 c 0,254,255
 109 699 109 699 121 700 c 0,256,257
 134 700 134 700 142 685 c 256,258,259
 152 671 152 671 152 650 c 256,260,261
 152 630 152 630 142 614 c 0,262,263
 133 600 133 600 121 600 c 1,264,-1
 121 600 l 1,248,249
182 600 m 1,265,266
 169 600 169 600 160 614 c 0,267,268
 152 629 152 629 152 650 c 256,269,270
 152 670 152 670 160 685 c 256,271,272
 169 699 169 699 182 700 c 0,273,274
 195 700 195 700 203 685 c 0,275,276
 212 671 212 671 212 650 c 256,277,278
 212 630 212 630 203 614 c 0,279,280
 194 600 194 600 182 600 c 1,281,-1
 182 600 l 1,265,266
242 600 m 1,282,283
 229 600 229 600 221 614 c 0,284,285
 212 629 212 629 212 650 c 256,286,287
 212 670 212 670 221 685 c 0,288,289
 230 699 230 699 242 700 c 256,290,291
 255 700 255 700 264 685 c 0,292,293
 273 671 273 671 273 650 c 256,294,295
 273 630 273 630 264 614 c 0,296,297
 255 600 255 600 242 600 c 1,298,-1
 242 600 l 1,282,283
EndSplineSet
Validated: 524293
EndChar

StartChar: seven
Encoding: 55 55 23
Width: 363
VWidth: 599
Flags: W
LayerCount: 2
Fore
SplineSet
121 0 m 1,0,1
 108 0 108 0 100 14 c 0,2,3
 91 29 91 29 91 50 c 256,4,5
 91 70 91 70 100 85 c 0,6,7
 109 99 109 99 121 100 c 0,8,9
 134 100 134 100 142 85 c 256,10,11
 152 71 152 71 152 50 c 256,12,13
 152 30 152 30 142 14 c 0,14,15
 133 0 133 0 121 0 c 1,16,-1
 121 0 l 1,0,1
121 100 m 1,17,18
 108 100 108 100 100 115 c 0,19,20
 91 129 91 129 91 150 c 0,21,22
 91 170 91 170 100 185 c 0,23,24
 109 199 109 199 121 200 c 0,25,26
 134 200 134 200 142 185 c 256,27,28
 152 171 152 171 152 150 c 128,-1,29
 152 129 152 129 142 115 c 256,30,31
 133 101 133 101 121 100 c 1,32,-1
 121 100 l 1,17,18
152 200 m 1,33,34
 139 200 139 200 130 215 c 0,35,36
 121 229 121 229 121 250 c 256,37,38
 121 270 121 270 130 286 c 0,39,40
 140 300 140 300 152 300 c 256,41,42
 165 300 165 300 173 286 c 0,43,44
 182 271 182 271 182 250 c 256,45,46
 182 230 182 230 173 215 c 0,47,48
 164 201 164 201 152 200 c 1,49,-1
 152 200 l 1,33,34
182 300 m 1,50,51
 169 300 169 300 160 314 c 0,52,53
 152 329 152 329 152 350 c 256,54,55
 152 370 152 370 160 385 c 256,56,57
 169 399 169 399 182 400 c 0,58,59
 195 400 195 400 203 385 c 0,60,61
 212 371 212 371 212 350 c 256,62,63
 212 330 212 330 203 314 c 0,64,65
 194 300 194 300 182 300 c 1,66,-1
 182 300 l 1,50,51
212 400 m 1,67,68
 198 400 198 400 190 415 c 0,69,70
 181.9 427.6 181.9 427.6 181.9 445.87 c 0,71,72
 181.9 469.8125 181.9 469.8125 190 485 c 0,73,74
 199 499 199 499 212 500 c 0,75,76
 225 500 225 500 233 485 c 256,77,78
 242 471 242 471 242 450 c 128,-1,79
 242 429 242 429 233 415 c 256,80,81
 224 401 224 401 212 400 c 1,82,-1
 212 400 l 1,67,68
242 500 m 1,83,84
 229 500 229 500 221 515 c 0,85,86
 212 529 212 529 212 550 c 256,87,88
 212 570 212 570 221 586 c 0,89,90
 230 600 230 600 242 600 c 256,91,92
 255 600 255 600 264 586 c 0,93,94
 273 571 273 571 273 550 c 256,95,96
 273 530 273 530 264 515 c 0,97,98
 255 501 255 501 242 500 c 1,99,-1
 242 500 l 1,83,84
30 600 m 1,100,101
 17 600 17 600 9 614 c 0,102,103
 0 629 0 629 0 650 c 256,104,105
 0 670 0 670 9 685 c 0,106,107
 18 699 18 699 30 700 c 256,108,109
 43 700 43 700 52 685 c 0,110,111
 61 671 61 671 61 650 c 256,112,113
 61 630 61 630 52 614 c 0,114,115
 43 600 43 600 30 600 c 1,116,-1
 30 600 l 1,100,101
91 600 m 1,117,118
 78 600 78 600 69 614 c 0,119,120
 60.9 627.5 60.9 627.5 60.9 645.86 c 0,121,122
 60.9 669.8125 60.9 669.8125 69 685 c 256,123,124
 78 699 78 699 91 700 c 0,125,126
 104 700 104 700 112 685 c 256,127,128
 121 671 121 671 121 650 c 256,129,130
 121 630 121 630 112 614 c 0,131,132
 103 600 103 600 91 600 c 1,133,-1
 91 600 l 1,117,118
152 600 m 1,134,135
 139 600 139 600 130 614 c 0,136,137
 121 629 121 629 121 650 c 256,138,139
 121 670 121 670 130 685 c 0,140,141
 140 699 140 699 152 700 c 256,142,143
 165 700 165 700 173 685 c 0,144,145
 182 671 182 671 182 650 c 256,146,147
 182 630 182 630 173 614 c 0,148,149
 164 600 164 600 152 600 c 1,150,-1
 152 600 l 1,134,135
212 600 m 1,151,152
 198 600 198 600 190 614 c 0,153,154
 181.9 627.5 181.9 627.5 181.9 645.86 c 0,155,156
 181.9 669.8125 181.9 669.8125 190 685 c 0,157,158
 199 699 199 699 212 700 c 0,159,160
 225 700 225 700 233 685 c 256,161,162
 242 671 242 671 242 650 c 256,163,164
 242 630 242 630 233 614 c 0,165,166
 224 600 224 600 212 600 c 1,167,-1
 212 600 l 1,151,152
273 600 m 1,168,169
 260 600 260 600 251 614 c 0,170,171
 242 629 242 629 242 650 c 256,172,173
 242 670 242 670 251 685 c 256,174,175
 260 699 260 699 273 700 c 0,176,177
 286 700 286 700 294 685 c 0,178,179
 303 671 303 671 303 650 c 256,180,181
 303 630 303 630 294 614 c 0,182,183
 285 600 285 600 273 600 c 1,184,-1
 273 600 l 1,168,169
EndSplineSet
Validated: 524293
EndChar

StartChar: eight
Encoding: 56 56 24
Width: 363
VWidth: 599
Flags: W
LayerCount: 2
Fore
SplineSet
61 0 m 1,0,1
 48 0 48 0 39 14 c 0,2,3
 30 29 30 29 30 50 c 256,4,5
 30 70 30 70 39 85 c 0,6,7
 48 99 48 99 61 100 c 256,8,9
 74 100 74 100 82 85 c 0,10,11
 91 71 91 71 91 50 c 256,12,13
 91 30 91 30 82 14 c 0,14,15
 73 0 73 0 61 0 c 1,16,-1
 61 0 l 1,0,1
121 0 m 1,17,18
 108 0 108 0 100 14 c 0,19,20
 91 29 91 29 91 50 c 256,21,22
 91 70 91 70 100 85 c 0,23,24
 109 99 109 99 121 100 c 0,25,26
 134 100 134 100 142 85 c 256,27,28
 152 71 152 71 152 50 c 256,29,30
 152 30 152 30 142 14 c 0,31,32
 133 0 133 0 121 0 c 1,33,-1
 121 0 l 1,17,18
182 0 m 1,34,35
 169 0 169 0 160 14 c 0,36,37
 152 29 152 29 152 50 c 256,38,39
 152 70 152 70 160 85 c 256,40,41
 169 99 169 99 182 100 c 0,42,43
 195 100 195 100 203 85 c 0,44,45
 212 71 212 71 212 50 c 256,46,47
 212 30 212 30 203 14 c 0,48,49
 194 0 194 0 182 0 c 1,50,-1
 182 0 l 1,34,35
242 0 m 1,51,52
 229 0 229 0 221 14 c 0,53,54
 212 29 212 29 212 50 c 256,55,56
 212 70 212 70 221 85 c 0,57,58
 230 99 230 99 242 100 c 256,59,60
 255 100 255 100 264 85 c 0,61,62
 273 71 273 71 273 50 c 256,63,64
 273 30 273 30 264 14 c 0,65,66
 255 0 255 0 242 0 c 1,67,-1
 242 0 l 1,51,52
30 100 m 1,68,69
 17 100 17 100 9 115 c 0,70,71
 0 129 0 129 0 150 c 0,72,73
 0 170 0 170 9 185 c 0,74,75
 18 199 18 199 30 200 c 256,76,77
 43 200 43 200 52 185 c 0,78,79
 61 171 61 171 61 150 c 128,-1,80
 61 129 61 129 52 115 c 128,-1,81
 43 101 43 101 30 100 c 1,82,-1
 30 100 l 1,68,69
273 100 m 1,83,84
 260 100 260 100 251 115 c 256,85,86
 242 129 242 129 242 150 c 0,87,88
 242 170 242 170 251 185 c 256,89,90
 260 199 260 199 273 200 c 0,91,92
 286 200 286 200 294 185 c 0,93,94
 303 171 303 171 303 150 c 128,-1,95
 303 129 303 129 294 115 c 128,-1,96
 285 101 285 101 273 100 c 1,97,-1
 273 100 l 1,83,84
30 200 m 1,98,99
 17 200 17 200 9 215 c 0,100,101
 0 229 0 229 0 250 c 256,102,103
 0 270 0 270 9 286 c 0,104,105
 18 300 18 300 30 300 c 256,106,107
 43 300 43 300 52 286 c 0,108,109
 61 271 61 271 61 250 c 256,110,111
 61 230 61 230 52 215 c 0,112,113
 43 201 43 201 30 200 c 1,114,-1
 30 200 l 1,98,99
273 200 m 1,115,116
 260 200 260 200 251 215 c 256,117,118
 242 229 242 229 242 250 c 256,119,120
 242 270 242 270 251 286 c 0,121,122
 260 300 260 300 273 300 c 128,-1,123
 286 300 286 300 294 286 c 0,124,125
 303 271 303 271 303 250 c 256,126,127
 303 230 303 230 294 215 c 0,128,129
 285 201 285 201 273 200 c 1,130,-1
 273 200 l 1,115,116
91 300 m 1,131,132
 78 300 78 300 69 314 c 0,133,134
 60.9 327.5 60.9 327.5 60.9 345.86 c 0,135,136
 60.9 369.8125 60.9 369.8125 69 385 c 256,137,138
 78 399 78 399 91 400 c 0,139,140
 104 400 104 400 112 385 c 256,141,142
 121 371 121 371 121 350 c 256,143,144
 121 330 121 330 112 314 c 0,145,146
 103 300 103 300 91 300 c 1,147,-1
 91 300 l 1,131,132
152 300 m 1,148,149
 139 300 139 300 130 314 c 0,150,151
 121 329 121 329 121 350 c 256,152,153
 121 370 121 370 130 385 c 0,154,155
 140 399 140 399 152 400 c 256,156,157
 165 400 165 400 173 385 c 0,158,159
 182 371 182 371 182 350 c 256,160,161
 182 330 182 330 173 314 c 0,162,163
 164 300 164 300 152 300 c 1,164,-1
 152 300 l 1,148,149
212 300 m 1,165,166
 198 300 198 300 190 314 c 0,167,168
 181.9 327.5 181.9 327.5 181.9 345.86 c 0,169,170
 181.9 369.8125 181.9 369.8125 190 385 c 0,171,172
 199 399 199 399 212 400 c 0,173,174
 225 400 225 400 233 385 c 256,175,176
 242 371 242 371 242 350 c 256,177,178
 242 330 242 330 233 314 c 0,179,180
 224 300 224 300 212 300 c 1,181,-1
 212 300 l 1,165,166
30 400 m 1,182,183
 17 400 17 400 9 415 c 0,184,185
 0 429 0 429 0 450 c 0,186,187
 0 470 0 470 9 485 c 0,188,189
 18 499 18 499 30 500 c 256,190,191
 43 500 43 500 52 485 c 0,192,193
 61 471 61 471 61 450 c 128,-1,194
 61 429 61 429 52 415 c 128,-1,195
 43 401 43 401 30 400 c 1,196,-1
 30 400 l 1,182,183
273 400 m 1,197,198
 260 400 260 400 251 415 c 256,199,200
 242 429 242 429 242 450 c 0,201,202
 242 470 242 470 251 485 c 256,203,204
 260 499 260 499 273 500 c 0,205,206
 286 500 286 500 294 485 c 0,207,208
 303 471 303 471 303 450 c 128,-1,209
 303 429 303 429 294 415 c 128,-1,210
 285 401 285 401 273 400 c 1,211,-1
 273 400 l 1,197,198
30 500 m 1,212,213
 17 500 17 500 9 515 c 0,214,215
 0 529 0 529 0 550 c 256,216,217
 0 570 0 570 9 586 c 0,218,219
 18 600 18 600 30 600 c 256,220,221
 43 600 43 600 52 586 c 0,222,223
 61 571 61 571 61 550 c 256,224,225
 61 530 61 530 52 515 c 0,226,227
 43 501 43 501 30 500 c 1,228,-1
 30 500 l 1,212,213
273 500 m 1,229,230
 260 500 260 500 251 515 c 256,231,232
 242 529 242 529 242 550 c 256,233,234
 242 570 242 570 251 586 c 0,235,236
 260 600 260 600 273 600 c 128,-1,237
 286 600 286 600 294 586 c 0,238,239
 303 571 303 571 303 550 c 256,240,241
 303 530 303 530 294 515 c 0,242,243
 285 501 285 501 273 500 c 1,244,-1
 273 500 l 1,229,230
61 600 m 1,245,246
 48 600 48 600 39 614 c 0,247,248
 30 629 30 629 30 650 c 256,249,250
 30 670 30 670 39 685 c 0,251,252
 48 699 48 699 61 700 c 256,253,254
 74 700 74 700 82 685 c 0,255,256
 91 671 91 671 91 650 c 256,257,258
 91 630 91 630 82 614 c 0,259,260
 73 600 73 600 61 600 c 1,261,-1
 61 600 l 1,245,246
121 600 m 1,262,263
 108 600 108 600 100 614 c 0,264,265
 91 629 91 629 91 650 c 256,266,267
 91 670 91 670 100 685 c 0,268,269
 109 699 109 699 121 700 c 0,270,271
 134 700 134 700 142 685 c 256,272,273
 152 671 152 671 152 650 c 256,274,275
 152 630 152 630 142 614 c 0,276,277
 133 600 133 600 121 600 c 1,278,-1
 121 600 l 1,262,263
182 600 m 1,279,280
 169 600 169 600 160 614 c 0,281,282
 152 629 152 629 152 650 c 256,283,284
 152 670 152 670 160 685 c 256,285,286
 169 699 169 699 182 700 c 0,287,288
 195 700 195 700 203 685 c 0,289,290
 212 671 212 671 212 650 c 256,291,292
 212 630 212 630 203 614 c 0,293,294
 194 600 194 600 182 600 c 1,295,-1
 182 600 l 1,279,280
242 600 m 1,296,297
 229 600 229 600 221 614 c 0,298,299
 212 629 212 629 212 650 c 256,300,301
 212 670 212 670 221 685 c 0,302,303
 230 699 230 699 242 700 c 256,304,305
 255 700 255 700 264 685 c 0,306,307
 273 671 273 671 273 650 c 256,308,309
 273 630 273 630 264 614 c 0,310,311
 255 600 255 600 242 600 c 1,312,-1
 242 600 l 1,296,297
EndSplineSet
Validated: 524293
EndChar

StartChar: nine
Encoding: 57 57 25
Width: 363
VWidth: 599
Flags: W
LayerCount: 2
Fore
SplineSet
61 0 m 1,0,1
 48 0 48 0 39 14 c 0,2,3
 30 29 30 29 30 50 c 256,4,5
 30 70 30 70 39 85 c 0,6,7
 48 99 48 99 61 100 c 256,8,9
 74 100 74 100 82 85 c 0,10,11
 91 71 91 71 91 50 c 256,12,13
 91 30 91 30 82 14 c 0,14,15
 73 0 73 0 61 0 c 1,16,-1
 61 0 l 1,0,1
121 0 m 1,17,18
 108 0 108 0 100 14 c 0,19,20
 91 29 91 29 91 50 c 256,21,22
 91 70 91 70 100 85 c 0,23,24
 109 99 109 99 121 100 c 0,25,26
 134 100 134 100 142 85 c 256,27,28
 152 71 152 71 152 50 c 256,29,30
 152 30 152 30 142 14 c 0,31,32
 133 0 133 0 121 0 c 1,33,-1
 121 0 l 1,17,18
182 0 m 1,34,35
 169 0 169 0 160 14 c 0,36,37
 152 29 152 29 152 50 c 256,38,39
 152 70 152 70 160 85 c 256,40,41
 169 99 169 99 182 100 c 0,42,43
 195 100 195 100 203 85 c 0,44,45
 212 71 212 71 212 50 c 256,46,47
 212 30 212 30 203 14 c 0,48,49
 194 0 194 0 182 0 c 1,50,-1
 182 0 l 1,34,35
242 0 m 1,51,52
 229 0 229 0 221 14 c 0,53,54
 212 29 212 29 212 50 c 256,55,56
 212 70 212 70 221 85 c 0,57,58
 230 99 230 99 242 100 c 256,59,60
 255 100 255 100 264 85 c 0,61,62
 273 71 273 71 273 50 c 256,63,64
 273 30 273 30 264 14 c 0,65,66
 255 0 255 0 242 0 c 1,67,-1
 242 0 l 1,51,52
273 100 m 1,68,69
 260 100 260 100 251 115 c 256,70,71
 242 129 242 129 242 150 c 0,72,73
 242 170 242 170 251 185 c 256,74,75
 260 199 260 199 273 200 c 0,76,77
 286 200 286 200 294 185 c 0,78,79
 303 171 303 171 303 150 c 128,-1,80
 303 129 303 129 294 115 c 128,-1,81
 285 101 285 101 273 100 c 1,82,-1
 273 100 l 1,68,69
273 200 m 1,83,84
 260 200 260 200 251 215 c 256,85,86
 242 229 242 229 242 250 c 256,87,88
 242 270 242 270 251 286 c 0,89,90
 260 300 260 300 273 300 c 128,-1,91
 286 300 286 300 294 286 c 0,92,93
 303 271 303 271 303 250 c 256,94,95
 303 230 303 230 294 215 c 0,96,97
 285 201 285 201 273 200 c 1,98,-1
 273 200 l 1,83,84
91 300 m 1,99,100
 78 300 78 300 69 314 c 0,101,102
 60.9 327.5 60.9 327.5 60.9 345.86 c 0,103,104
 60.9 369.8125 60.9 369.8125 69 385 c 256,105,106
 78 399 78 399 91 400 c 0,107,108
 104 400 104 400 112 385 c 256,109,110
 121 371 121 371 121 350 c 256,111,112
 121 330 121 330 112 314 c 0,113,114
 103 300 103 300 91 300 c 1,115,-1
 91 300 l 1,99,100
152 300 m 1,116,117
 139 300 139 300 130 314 c 0,118,119
 121 329 121 329 121 350 c 256,120,121
 121 370 121 370 130 385 c 0,122,123
 140 399 140 399 152 400 c 256,124,125
 165 400 165 400 173 385 c 0,126,127
 182 371 182 371 182 350 c 256,128,129
 182 330 182 330 173 314 c 0,130,131
 164 300 164 300 152 300 c 1,132,-1
 152 300 l 1,116,117
212 300 m 1,133,134
 198 300 198 300 190 314 c 0,135,136
 181.9 327.5 181.9 327.5 181.9 345.86 c 0,137,138
 181.9 369.8125 181.9 369.8125 190 385 c 0,139,140
 199 399 199 399 212 400 c 0,141,142
 225 400 225 400 233 385 c 256,143,144
 242 371 242 371 242 350 c 256,145,146
 242 330 242 330 233 314 c 0,147,148
 224 300 224 300 212 300 c 1,149,-1
 212 300 l 1,133,134
273 300 m 1,150,151
 260 300 260 300 251 314 c 0,152,153
 242 329 242 329 242 350 c 256,154,155
 242 370 242 370 251 385 c 256,156,157
 260 399 260 399 273 400 c 0,158,159
 286 400 286 400 294 385 c 0,160,161
 303 371 303 371 303 350 c 256,162,163
 303 330 303 330 294 314 c 0,164,165
 285 300 285 300 273 300 c 1,166,-1
 273 300 l 1,150,151
30 400 m 1,167,168
 17 400 17 400 9 415 c 0,169,170
 0 429 0 429 0 450 c 0,171,172
 0 470 0 470 9 485 c 0,173,174
 18 499 18 499 30 500 c 256,175,176
 43 500 43 500 52 485 c 0,177,178
 61 471 61 471 61 450 c 128,-1,179
 61 429 61 429 52 415 c 128,-1,180
 43 401 43 401 30 400 c 1,181,-1
 30 400 l 1,167,168
273 400 m 1,182,183
 260 400 260 400 251 415 c 256,184,185
 242 429 242 429 242 450 c 0,186,187
 242 470 242 470 251 485 c 256,188,189
 260 499 260 499 273 500 c 0,190,191
 286 500 286 500 294 485 c 0,192,193
 303 471 303 471 303 450 c 128,-1,194
 303 429 303 429 294 415 c 128,-1,195
 285 401 285 401 273 400 c 1,196,-1
 273 400 l 1,182,183
30 500 m 1,197,198
 17 500 17 500 9 515 c 0,199,200
 0 529 0 529 0 550 c 256,201,202
 0 570 0 570 9 586 c 0,203,204
 18 600 18 600 30 600 c 256,205,206
 43 600 43 600 52 586 c 0,207,208
 61 571 61 571 61 550 c 256,209,210
 61 530 61 530 52 515 c 0,211,212
 43 501 43 501 30 500 c 1,213,-1
 30 500 l 1,197,198
273 500 m 1,214,215
 260 500 260 500 251 515 c 256,216,217
 242 529 242 529 242 550 c 256,218,219
 242 570 242 570 251 586 c 0,220,221
 260 600 260 600 273 600 c 128,-1,222
 286 600 286 600 294 586 c 0,223,224
 303 571 303 571 303 550 c 256,225,226
 303 530 303 530 294 515 c 0,227,228
 285 501 285 501 273 500 c 1,229,-1
 273 500 l 1,214,215
61 600 m 1,230,231
 48 600 48 600 39 614 c 0,232,233
 30 629 30 629 30 650 c 256,234,235
 30 670 30 670 39 685 c 0,236,237
 48 699 48 699 61 700 c 256,238,239
 74 700 74 700 82 685 c 0,240,241
 91 671 91 671 91 650 c 256,242,243
 91 630 91 630 82 614 c 0,244,245
 73 600 73 600 61 600 c 1,246,-1
 61 600 l 1,230,231
121 600 m 1,247,248
 108 600 108 600 100 614 c 0,249,250
 91 629 91 629 91 650 c 256,251,252
 91 670 91 670 100 685 c 0,253,254
 109 699 109 699 121 700 c 0,255,256
 134 700 134 700 142 685 c 256,257,258
 152 671 152 671 152 650 c 256,259,260
 152 630 152 630 142 614 c 0,261,262
 133 600 133 600 121 600 c 1,263,-1
 121 600 l 1,247,248
182 600 m 1,264,265
 169 600 169 600 160 614 c 0,266,267
 152 629 152 629 152 650 c 256,268,269
 152 670 152 670 160 685 c 256,270,271
 169 699 169 699 182 700 c 0,272,273
 195 700 195 700 203 685 c 0,274,275
 212 671 212 671 212 650 c 256,276,277
 212 630 212 630 203 614 c 0,278,279
 194 600 194 600 182 600 c 1,280,-1
 182 600 l 1,264,265
242 600 m 1,281,282
 229 600 229 600 221 614 c 0,283,284
 212 629 212 629 212 650 c 256,285,286
 212 670 212 670 221 685 c 0,287,288
 230 699 230 699 242 700 c 256,289,290
 255 700 255 700 264 685 c 0,291,292
 273 671 273 671 273 650 c 256,293,294
 273 630 273 630 264 614 c 0,295,296
 255 600 255 600 242 600 c 1,297,-1
 242 600 l 1,281,282
EndSplineSet
Validated: 524293
EndChar

StartChar: colon
Encoding: 58 58 26
Width: 363
VWidth: 599
Flags: W
LayerCount: 2
Fore
SplineSet
91 100 m 1,0,1
 78 100 78 100 69 115 c 256,2,3
 60.9 127.6 60.9 127.6 60.9 145.87 c 0,4,5
 60.9 169.8125 60.9 169.8125 69 185 c 256,6,7
 78 199 78 199 91 200 c 0,8,9
 104 200 104 200 112 185 c 256,10,11
 121 171 121 171 121 150 c 128,-1,12
 121 129 121 129 112 115 c 256,13,14
 103 101 103 101 91 100 c 1,15,-1
 91 100 l 1,0,1
152 100 m 1,16,17
 139 100 139 100 130 115 c 0,18,19
 121 129 121 129 121 150 c 0,20,21
 121 170 121 170 130 185 c 0,22,23
 140 199 140 199 152 200 c 256,24,25
 165 200 165 200 173 185 c 0,26,27
 182 171 182 171 182 150 c 128,-1,28
 182 129 182 129 173 115 c 128,-1,29
 164 101 164 101 152 100 c 1,30,-1
 152 100 l 1,16,17
91 200 m 1,31,32
 78 200 78 200 69 215 c 256,33,34
 60.9 227.6 60.9 227.6 60.9 245.87 c 0,35,36
 60.9 269.8 60.9 269.8 69 286 c 0,37,38
 78 300 78 300 91 300 c 128,-1,39
 104 300 104 300 112 286 c 0,40,41
 121 271 121 271 121 250 c 256,42,43
 121 230 121 230 112 215 c 256,44,45
 103 201 103 201 91 200 c 1,46,-1
 91 200 l 1,31,32
152 200 m 1,47,48
 139 200 139 200 130 215 c 0,49,50
 121 229 121 229 121 250 c 256,51,52
 121 270 121 270 130 286 c 0,53,54
 140 300 140 300 152 300 c 256,55,56
 165 300 165 300 173 286 c 0,57,58
 182 271 182 271 182 250 c 256,59,60
 182 230 182 230 173 215 c 0,61,62
 164 201 164 201 152 200 c 1,63,-1
 152 200 l 1,47,48
91 400 m 1,64,65
 78 400 78 400 69 415 c 256,66,67
 60.9 427.6 60.9 427.6 60.9 445.87 c 0,68,69
 60.9 469.8125 60.9 469.8125 69 485 c 256,70,71
 78 499 78 499 91 500 c 0,72,73
 104 500 104 500 112 485 c 256,74,75
 121 471 121 471 121 450 c 128,-1,76
 121 429 121 429 112 415 c 256,77,78
 103 401 103 401 91 400 c 1,79,-1
 91 400 l 1,64,65
152 400 m 1,80,81
 139 400 139 400 130 415 c 0,82,83
 121 429 121 429 121 450 c 0,84,85
 121 470 121 470 130 485 c 0,86,87
 140 499 140 499 152 500 c 256,88,89
 165 500 165 500 173 485 c 0,90,91
 182 471 182 471 182 450 c 128,-1,92
 182 429 182 429 173 415 c 128,-1,93
 164 401 164 401 152 400 c 1,94,-1
 152 400 l 1,80,81
91 500 m 1,95,96
 78 500 78 500 69 515 c 256,97,98
 60.9 527.6 60.9 527.6 60.9 545.87 c 0,99,100
 60.9 569.8 60.9 569.8 69 586 c 0,101,102
 78 600 78 600 91 600 c 128,-1,103
 104 600 104 600 112 586 c 0,104,105
 121 571 121 571 121 550 c 256,106,107
 121 530 121 530 112 515 c 256,108,109
 103 501 103 501 91 500 c 1,110,-1
 91 500 l 1,95,96
152 500 m 1,111,112
 139 500 139 500 130 515 c 0,113,114
 121 529 121 529 121 550 c 256,115,116
 121 570 121 570 130 586 c 0,117,118
 140 600 140 600 152 600 c 256,119,120
 165 600 165 600 173 586 c 0,121,122
 182 571 182 571 182 550 c 256,123,124
 182 530 182 530 173 515 c 0,125,126
 164 501 164 501 152 500 c 1,127,-1
 152 500 l 1,111,112
EndSplineSet
Validated: 524293
EndChar

StartChar: semicolon
Encoding: 59 59 27
Width: 363
VWidth: 599
Flags: W
LayerCount: 2
Fore
SplineSet
121 0 m 1,0,1
 108 0 108 0 100 14 c 0,2,3
 91 29 91 29 91 50 c 256,4,5
 91 70 91 70 100 85 c 0,6,7
 109 99 109 99 121 100 c 0,8,9
 134 100 134 100 142 85 c 256,10,11
 152 71 152 71 152 50 c 256,12,13
 152 30 152 30 142 14 c 0,14,15
 133 0 133 0 121 0 c 1,16,-1
 121 0 l 1,0,1
152 100 m 1,17,18
 139 100 139 100 130 115 c 0,19,20
 121 129 121 129 121 150 c 0,21,22
 121 170 121 170 130 185 c 0,23,24
 140 199 140 199 152 200 c 256,25,26
 165 200 165 200 173 185 c 0,27,28
 182 171 182 171 182 150 c 128,-1,29
 182 129 182 129 173 115 c 128,-1,30
 164 101 164 101 152 100 c 1,31,-1
 152 100 l 1,17,18
91 200 m 1,32,33
 78 200 78 200 69 215 c 256,34,35
 60.9 227.6 60.9 227.6 60.9 245.87 c 0,36,37
 60.9 269.8 60.9 269.8 69 286 c 0,38,39
 78 300 78 300 91 300 c 128,-1,40
 104 300 104 300 112 286 c 0,41,42
 121 271 121 271 121 250 c 256,43,44
 121 230 121 230 112 215 c 256,45,46
 103 201 103 201 91 200 c 1,47,-1
 91 200 l 1,32,33
152 200 m 1,48,49
 139 200 139 200 130 215 c 0,50,51
 121 229 121 229 121 250 c 256,52,53
 121 270 121 270 130 286 c 0,54,55
 140 300 140 300 152 300 c 256,56,57
 165 300 165 300 173 286 c 0,58,59
 182 271 182 271 182 250 c 256,60,61
 182 230 182 230 173 215 c 0,62,63
 164 201 164 201 152 200 c 1,64,-1
 152 200 l 1,48,49
91 400 m 1,65,66
 78 400 78 400 69 415 c 256,67,68
 60.9 427.6 60.9 427.6 60.9 445.87 c 0,69,70
 60.9 469.8125 60.9 469.8125 69 485 c 256,71,72
 78 499 78 499 91 500 c 0,73,74
 104 500 104 500 112 485 c 256,75,76
 121 471 121 471 121 450 c 128,-1,77
 121 429 121 429 112 415 c 256,78,79
 103 401 103 401 91 400 c 1,80,-1
 91 400 l 1,65,66
152 400 m 1,81,82
 139 400 139 400 130 415 c 0,83,84
 121 429 121 429 121 450 c 0,85,86
 121 470 121 470 130 485 c 0,87,88
 140 499 140 499 152 500 c 256,89,90
 165 500 165 500 173 485 c 0,91,92
 182 471 182 471 182 450 c 128,-1,93
 182 429 182 429 173 415 c 128,-1,94
 164 401 164 401 152 400 c 1,95,-1
 152 400 l 1,81,82
91 500 m 1,96,97
 78 500 78 500 69 515 c 256,98,99
 60.9 527.6 60.9 527.6 60.9 545.87 c 0,100,101
 60.9 569.8 60.9 569.8 69 586 c 0,102,103
 78 600 78 600 91 600 c 128,-1,104
 104 600 104 600 112 586 c 0,105,106
 121 571 121 571 121 550 c 256,107,108
 121 530 121 530 112 515 c 256,109,110
 103 501 103 501 91 500 c 1,111,-1
 91 500 l 1,96,97
152 500 m 1,112,113
 139 500 139 500 130 515 c 0,114,115
 121 529 121 529 121 550 c 256,116,117
 121 570 121 570 130 586 c 0,118,119
 140 600 140 600 152 600 c 256,120,121
 165 600 165 600 173 586 c 0,122,123
 182 571 182 571 182 550 c 256,124,125
 182 530 182 530 173 515 c 0,126,127
 164 501 164 501 152 500 c 1,128,-1
 152 500 l 1,112,113
EndSplineSet
Validated: 524293
EndChar

StartChar: less
Encoding: 60 60 28
Width: 363
VWidth: 599
Flags: W
LayerCount: 2
Fore
SplineSet
242 0 m 1,0,1
 229 0 229 0 221 14 c 0,2,3
 212 29 212 29 212 50 c 256,4,5
 212 70 212 70 221 85 c 0,6,7
 230 99 230 99 242 100 c 256,8,9
 255 100 255 100 264 85 c 0,10,11
 273 71 273 71 273 50 c 256,12,13
 273 30 273 30 264 14 c 0,14,15
 255 0 255 0 242 0 c 1,16,-1
 242 0 l 1,0,1
212 100 m 1,17,18
 198 100 198 100 190 115 c 0,19,20
 181.9 127.6 181.9 127.6 181.9 145.87 c 0,21,22
 181.9 169.8125 181.9 169.8125 190 185 c 0,23,24
 199 199 199 199 212 200 c 0,25,26
 225 200 225 200 233 185 c 256,27,28
 242 171 242 171 242 150 c 128,-1,29
 242 129 242 129 233 115 c 256,30,31
 224 101 224 101 212 100 c 1,32,-1
 212 100 l 1,17,18
182 200 m 1,33,34
 169 200 169 200 160 215 c 256,35,36
 152 229 152 229 152 250 c 256,37,38
 152 270 152 270 160 286 c 0,39,40
 169 300 169 300 182 300 c 128,-1,41
 195 300 195 300 203 286 c 0,42,43
 212 271 212 271 212 250 c 256,44,45
 212 230 212 230 203 215 c 0,46,47
 194 201 194 201 182 200 c 1,48,-1
 182 200 l 1,33,34
152 300 m 1,49,50
 139 300 139 300 130 314 c 0,51,52
 121 329 121 329 121 350 c 256,53,54
 121 370 121 370 130 385 c 0,55,56
 140 399 140 399 152 400 c 256,57,58
 165 400 165 400 173 385 c 0,59,60
 182 371 182 371 182 350 c 256,61,62
 182 330 182 330 173 314 c 0,63,64
 164 300 164 300 152 300 c 1,65,-1
 152 300 l 1,49,50
182 400 m 1,66,67
 169 400 169 400 160 415 c 256,68,69
 152 429 152 429 152 450 c 0,70,71
 152 470 152 470 160 485 c 256,72,73
 169 499 169 499 182 500 c 0,74,75
 195 500 195 500 203 485 c 0,76,77
 212 471 212 471 212 450 c 128,-1,78
 212 429 212 429 203 415 c 128,-1,79
 194 401 194 401 182 400 c 1,80,-1
 182 400 l 1,66,67
212 500 m 1,81,82
 198 500 198 500 190 515 c 0,83,84
 181.9 527.6 181.9 527.6 181.9 545.87 c 0,85,86
 181.9 569.8 181.9 569.8 190 586 c 0,87,88
 199 600 199 600 212 600 c 128,-1,89
 225 600 225 600 233 586 c 0,90,91
 242 571 242 571 242 550 c 256,92,93
 242 530 242 530 233 515 c 256,94,95
 224 501 224 501 212 500 c 1,96,-1
 212 500 l 1,81,82
242 600 m 1,97,98
 229 600 229 600 221 614 c 0,99,100
 212 629 212 629 212 650 c 256,101,102
 212 670 212 670 221 685 c 0,103,104
 230 699 230 699 242 700 c 256,105,106
 255 700 255 700 264 685 c 0,107,108
 273 671 273 671 273 650 c 256,109,110
 273 630 273 630 264 614 c 0,111,112
 255 600 255 600 242 600 c 1,113,-1
 242 600 l 1,97,98
EndSplineSet
Validated: 524293
EndChar

StartChar: equal
Encoding: 61 61 29
Width: 363
VWidth: 599
Flags: W
LayerCount: 2
Fore
SplineSet
30 200 m 1,0,1
 17 200 17 200 9 215 c 0,2,3
 0 229 0 229 0 250 c 256,4,5
 0 270 0 270 9 286 c 0,6,7
 18 300 18 300 30 300 c 256,8,9
 43 300 43 300 52 286 c 0,10,11
 61 271 61 271 61 250 c 256,12,13
 61 230 61 230 52 215 c 0,14,15
 43 201 43 201 30 200 c 1,16,-1
 30 200 l 1,0,1
91 200 m 1,17,18
 78 200 78 200 69 215 c 256,19,20
 60.9 227.6 60.9 227.6 60.9 245.87 c 0,21,22
 60.9 269.8 60.9 269.8 69 286 c 0,23,24
 78 300 78 300 91 300 c 128,-1,25
 104 300 104 300 112 286 c 0,26,27
 121 271 121 271 121 250 c 256,28,29
 121 230 121 230 112 215 c 256,30,31
 103 201 103 201 91 200 c 1,32,-1
 91 200 l 1,17,18
152 200 m 1,33,34
 139 200 139 200 130 215 c 0,35,36
 121 229 121 229 121 250 c 256,37,38
 121 270 121 270 130 286 c 0,39,40
 140 300 140 300 152 300 c 256,41,42
 165 300 165 300 173 286 c 0,43,44
 182 271 182 271 182 250 c 256,45,46
 182 230 182 230 173 215 c 0,47,48
 164 201 164 201 152 200 c 1,49,-1
 152 200 l 1,33,34
212 200 m 1,50,51
 198 200 198 200 190 215 c 0,52,53
 181.9 227.6 181.9 227.6 181.9 245.87 c 0,54,55
 181.9 269.8 181.9 269.8 190 286 c 0,56,57
 199 300 199 300 212 300 c 128,-1,58
 225 300 225 300 233 286 c 0,59,60
 242 271 242 271 242 250 c 256,61,62
 242 230 242 230 233 215 c 256,63,64
 224 201 224 201 212 200 c 1,65,-1
 212 200 l 1,50,51
273 200 m 1,66,67
 260 200 260 200 251 215 c 256,68,69
 242 229 242 229 242 250 c 256,70,71
 242 270 242 270 251 286 c 0,72,73
 260 300 260 300 273 300 c 128,-1,74
 286 300 286 300 294 286 c 0,75,76
 303 271 303 271 303 250 c 256,77,78
 303 230 303 230 294 215 c 0,79,80
 285 201 285 201 273 200 c 1,81,-1
 273 200 l 1,66,67
30 400 m 1,82,83
 17 400 17 400 9 415 c 0,84,85
 0 429 0 429 0 450 c 0,86,87
 0 470 0 470 9 485 c 0,88,89
 18 499 18 499 30 500 c 256,90,91
 43 500 43 500 52 485 c 0,92,93
 61 471 61 471 61 450 c 128,-1,94
 61 429 61 429 52 415 c 128,-1,95
 43 401 43 401 30 400 c 1,96,-1
 30 400 l 1,82,83
91 400 m 1,97,98
 78 400 78 400 69 415 c 256,99,100
 60.9 427.6 60.9 427.6 60.9 445.87 c 0,101,102
 60.9 469.8125 60.9 469.8125 69 485 c 256,103,104
 78 499 78 499 91 500 c 0,105,106
 104 500 104 500 112 485 c 256,107,108
 121 471 121 471 121 450 c 128,-1,109
 121 429 121 429 112 415 c 256,110,111
 103 401 103 401 91 400 c 1,112,-1
 91 400 l 1,97,98
152 400 m 1,113,114
 139 400 139 400 130 415 c 0,115,116
 121 429 121 429 121 450 c 0,117,118
 121 470 121 470 130 485 c 0,119,120
 140 499 140 499 152 500 c 256,121,122
 165 500 165 500 173 485 c 0,123,124
 182 471 182 471 182 450 c 128,-1,125
 182 429 182 429 173 415 c 128,-1,126
 164 401 164 401 152 400 c 1,127,-1
 152 400 l 1,113,114
212 400 m 1,128,129
 198 400 198 400 190 415 c 0,130,131
 181.9 427.6 181.9 427.6 181.9 445.87 c 0,132,133
 181.9 469.8125 181.9 469.8125 190 485 c 0,134,135
 199 499 199 499 212 500 c 0,136,137
 225 500 225 500 233 485 c 256,138,139
 242 471 242 471 242 450 c 128,-1,140
 242 429 242 429 233 415 c 256,141,142
 224 401 224 401 212 400 c 1,143,-1
 212 400 l 1,128,129
273 400 m 1,144,145
 260 400 260 400 251 415 c 256,146,147
 242 429 242 429 242 450 c 0,148,149
 242 470 242 470 251 485 c 256,150,151
 260 499 260 499 273 500 c 0,152,153
 286 500 286 500 294 485 c 0,154,155
 303 471 303 471 303 450 c 128,-1,156
 303 429 303 429 294 415 c 128,-1,157
 285 401 285 401 273 400 c 1,158,-1
 273 400 l 1,144,145
EndSplineSet
Validated: 524293
EndChar

StartChar: greater
Encoding: 62 62 30
Width: 363
VWidth: 599
Flags: W
LayerCount: 2
Fore
SplineSet
61 0 m 1,0,1
 48 0 48 0 39 14 c 0,2,3
 30 29 30 29 30 50 c 256,4,5
 30 70 30 70 39 85 c 0,6,7
 48 99 48 99 61 100 c 256,8,9
 74 100 74 100 82 85 c 0,10,11
 91 71 91 71 91 50 c 256,12,13
 91 30 91 30 82 14 c 0,14,15
 73 0 73 0 61 0 c 1,16,-1
 61 0 l 1,0,1
91 100 m 1,17,18
 78 100 78 100 69 115 c 256,19,20
 60.9 127.6 60.9 127.6 60.9 145.87 c 0,21,22
 60.9 169.8125 60.9 169.8125 69 185 c 256,23,24
 78 199 78 199 91 200 c 0,25,26
 104 200 104 200 112 185 c 256,27,28
 121 171 121 171 121 150 c 128,-1,29
 121 129 121 129 112 115 c 256,30,31
 103 101 103 101 91 100 c 1,32,-1
 91 100 l 1,17,18
121 200 m 1,33,34
 108 200 108 200 100 215 c 0,35,36
 91 229 91 229 91 250 c 256,37,38
 91 270 91 270 100 286 c 0,39,40
 109 300 109 300 121 300 c 0,41,42
 134 300 134 300 142 286 c 0,43,44
 152 271 152 271 152 250 c 256,45,46
 152 230 152 230 142 215 c 256,47,48
 133 201 133 201 121 200 c 1,49,-1
 121 200 l 1,33,34
152 300 m 1,50,51
 139 300 139 300 130 314 c 0,52,53
 121 329 121 329 121 350 c 256,54,55
 121 370 121 370 130 385 c 0,56,57
 140 399 140 399 152 400 c 256,58,59
 165 400 165 400 173 385 c 0,60,61
 182 371 182 371 182 350 c 256,62,63
 182 330 182 330 173 314 c 0,64,65
 164 300 164 300 152 300 c 1,66,-1
 152 300 l 1,50,51
121 400 m 1,67,68
 108 400 108 400 100 415 c 0,69,70
 91 429 91 429 91 450 c 0,71,72
 91 470 91 470 100 485 c 0,73,74
 109 499 109 499 121 500 c 0,75,76
 134 500 134 500 142 485 c 256,77,78
 152 471 152 471 152 450 c 128,-1,79
 152 429 152 429 142 415 c 256,80,81
 133 401 133 401 121 400 c 1,82,-1
 121 400 l 1,67,68
91 500 m 1,83,84
 78 500 78 500 69 515 c 256,85,86
 60.9 527.6 60.9 527.6 60.9 545.87 c 0,87,88
 60.9 569.8 60.9 569.8 69 586 c 0,89,90
 78 600 78 600 91 600 c 128,-1,91
 104 600 104 600 112 586 c 0,92,93
 121 571 121 571 121 550 c 256,94,95
 121 530 121 530 112 515 c 256,96,97
 103 501 103 501 91 500 c 1,98,-1
 91 500 l 1,83,84
61 600 m 1,99,100
 48 600 48 600 39 614 c 0,101,102
 30 629 30 629 30 650 c 256,103,104
 30 670 30 670 39 685 c 0,105,106
 48 699 48 699 61 700 c 256,107,108
 74 700 74 700 82 685 c 0,109,110
 91 671 91 671 91 650 c 256,111,112
 91 630 91 630 82 614 c 0,113,114
 73 600 73 600 61 600 c 1,115,-1
 61 600 l 1,99,100
EndSplineSet
Validated: 524293
EndChar

StartChar: question
Encoding: 63 63 31
Width: 363
VWidth: 599
Flags: W
LayerCount: 2
Fore
SplineSet
152 0 m 1,0,1
 139 0 139 0 130 14 c 0,2,3
 121 29 121 29 121 50 c 256,4,5
 121 70 121 70 130 85 c 0,6,7
 140 99 140 99 152 100 c 256,8,9
 165 100 165 100 173 85 c 0,10,11
 182 71 182 71 182 50 c 256,12,13
 182 30 182 30 173 14 c 0,14,15
 164 0 164 0 152 0 c 1,16,-1
 152 0 l 1,0,1
152 200 m 1,17,18
 139 200 139 200 130 215 c 0,19,20
 121 229 121 229 121 250 c 256,21,22
 121 270 121 270 130 286 c 0,23,24
 140 300 140 300 152 300 c 256,25,26
 165 300 165 300 173 286 c 0,27,28
 182 271 182 271 182 250 c 256,29,30
 182 230 182 230 173 215 c 0,31,32
 164 201 164 201 152 200 c 1,33,-1
 152 200 l 1,17,18
212 300 m 1,34,35
 198 300 198 300 190 314 c 0,36,37
 181.9 327.5 181.9 327.5 181.9 345.86 c 0,38,39
 181.9 369.8125 181.9 369.8125 190 385 c 0,40,41
 199 399 199 399 212 400 c 0,42,43
 225 400 225 400 233 385 c 256,44,45
 242 371 242 371 242 350 c 256,46,47
 242 330 242 330 233 314 c 0,48,49
 224 300 224 300 212 300 c 1,50,-1
 212 300 l 1,34,35
242 400 m 1,51,52
 229 400 229 400 221 415 c 0,53,54
 212 429 212 429 212 450 c 0,55,56
 212 470 212 470 221 485 c 0,57,58
 230 499 230 499 242 500 c 256,59,60
 255 500 255 500 264 485 c 0,61,62
 273 471 273 471 273 450 c 128,-1,63
 273 429 273 429 264 415 c 128,-1,64
 255 401 255 401 242 400 c 1,65,-1
 242 400 l 1,51,52
61 500 m 1,66,67
 48 500 48 500 39 515 c 0,68,69
 30 529 30 529 30 550 c 256,70,71
 30 570 30 570 39 586 c 0,72,73
 48 600 48 600 61 600 c 256,74,75
 74 600 74 600 82 586 c 0,76,77
 91 571 91 571 91 550 c 256,78,79
 91 530 91 530 82 515 c 0,80,81
 73 501 73 501 61 500 c 1,82,-1
 61 500 l 1,66,67
242 500 m 1,83,84
 229 500 229 500 221 515 c 0,85,86
 212 529 212 529 212 550 c 256,87,88
 212 570 212 570 221 586 c 0,89,90
 230 600 230 600 242 600 c 256,91,92
 255 600 255 600 264 586 c 0,93,94
 273 571 273 571 273 550 c 256,95,96
 273 530 273 530 264 515 c 0,97,98
 255 501 255 501 242 500 c 1,99,-1
 242 500 l 1,83,84
91 600 m 1,100,101
 78 600 78 600 69 614 c 0,102,103
 60.9 627.5 60.9 627.5 60.9 645.86 c 0,104,105
 60.9 669.8125 60.9 669.8125 69 685 c 256,106,107
 78 699 78 699 91 700 c 0,108,109
 104 700 104 700 112 685 c 256,110,111
 121 671 121 671 121 650 c 256,112,113
 121 630 121 630 112 614 c 0,114,115
 103 600 103 600 91 600 c 1,116,-1
 91 600 l 1,100,101
152 600 m 1,117,118
 139 600 139 600 130 614 c 0,119,120
 121 629 121 629 121 650 c 256,121,122
 121 670 121 670 130 685 c 0,123,124
 140 699 140 699 152 700 c 256,125,126
 165 700 165 700 173 685 c 0,127,128
 182 671 182 671 182 650 c 256,129,130
 182 630 182 630 173 614 c 0,131,132
 164 600 164 600 152 600 c 1,133,-1
 152 600 l 1,117,118
212 600 m 1,134,135
 198 600 198 600 190 614 c 0,136,137
 181.9 627.5 181.9 627.5 181.9 645.86 c 0,138,139
 181.9 669.8125 181.9 669.8125 190 685 c 0,140,141
 199 699 199 699 212 700 c 0,142,143
 225 700 225 700 233 685 c 256,144,145
 242 671 242 671 242 650 c 256,146,147
 242 630 242 630 233 614 c 0,148,149
 224 600 224 600 212 600 c 1,150,-1
 212 600 l 1,134,135
EndSplineSet
Validated: 524293
EndChar

StartChar: at
Encoding: 64 64 32
Width: 363
VWidth: 599
Flags: W
LayerCount: 2
Fore
SplineSet
61 0 m 1,0,1
 48 0 48 0 39 14 c 0,2,3
 30 29 30 29 30 50 c 256,4,5
 30 70 30 70 39 85 c 0,6,7
 48 99 48 99 61 100 c 256,8,9
 74 100 74 100 82 85 c 0,10,11
 91 71 91 71 91 50 c 256,12,13
 91 30 91 30 82 14 c 0,14,15
 73 0 73 0 61 0 c 1,16,-1
 61 0 l 1,0,1
121 0 m 1,17,18
 108 0 108 0 100 14 c 0,19,20
 91 29 91 29 91 50 c 256,21,22
 91 70 91 70 100 85 c 0,23,24
 109 99 109 99 121 100 c 0,25,26
 134 100 134 100 142 85 c 256,27,28
 152 71 152 71 152 50 c 256,29,30
 152 30 152 30 142 14 c 0,31,32
 133 0 133 0 121 0 c 1,33,-1
 121 0 l 1,17,18
182 0 m 1,34,35
 169 0 169 0 160 14 c 0,36,37
 152 29 152 29 152 50 c 256,38,39
 152 70 152 70 160 85 c 256,40,41
 169 99 169 99 182 100 c 0,42,43
 195 100 195 100 203 85 c 0,44,45
 212 71 212 71 212 50 c 256,46,47
 212 30 212 30 203 14 c 0,48,49
 194 0 194 0 182 0 c 1,50,-1
 182 0 l 1,34,35
242 0 m 1,51,52
 229 0 229 0 221 14 c 0,53,54
 212 29 212 29 212 50 c 256,55,56
 212 70 212 70 221 85 c 0,57,58
 230 99 230 99 242 100 c 256,59,60
 255 100 255 100 264 85 c 0,61,62
 273 71 273 71 273 50 c 256,63,64
 273 30 273 30 264 14 c 0,65,66
 255 0 255 0 242 0 c 1,67,-1
 242 0 l 1,51,52
30 100 m 1,68,69
 17 100 17 100 9 115 c 0,70,71
 0 129 0 129 0 150 c 0,72,73
 0 170 0 170 9 185 c 0,74,75
 18 199 18 199 30 200 c 256,76,77
 43 200 43 200 52 185 c 0,78,79
 61 171 61 171 61 150 c 0,80,81
 61 129 61 129 52 115 c 0,82,83
 43 101 43 101 30 100 c 1,84,-1
 30 100 l 1,68,69
182 100 m 1,85,86
 169 100 169 100 160 115 c 256,87,88
 152 129 152 129 152 150 c 0,89,90
 152 170 152 170 160 185 c 256,91,92
 169 199 169 199 182 200 c 0,93,94
 195 200 195 200 203 185 c 0,95,96
 212 171 212 171 212 150 c 0,97,98
 212 129 212 129 203 115 c 0,99,100
 194 101 194 101 182 100 c 1,101,-1
 182 100 l 1,85,86
273 100 m 1,102,103
 260 100 260 100 251 115 c 256,104,105
 242 129 242 129 242 150 c 0,106,107
 242 170 242 170 251 185 c 256,108,109
 260 199 260 199 273 200 c 0,110,111
 286 200 286 200 294 185 c 0,112,113
 303 171 303 171 303 150 c 0,114,115
 303 129 303 129 294 115 c 0,116,117
 285 101 285 101 273 100 c 1,118,-1
 273 100 l 1,102,103
30 200 m 1,119,120
 17 200 17 200 9 215 c 0,121,122
 0 229 0 229 0 250 c 256,123,124
 0 270 0 270 9 286 c 0,125,126
 18 300 18 300 30 300 c 256,127,128
 43 300 43 300 52 286 c 0,129,130
 61 271 61 271 61 250 c 256,131,132
 61 230 61 230 52 215 c 0,133,134
 43 201 43 201 30 200 c 1,135,-1
 30 200 l 1,119,120
182 200 m 1,136,137
 169 200 169 200 160 215 c 256,138,139
 152 229 152 229 152 250 c 256,140,141
 152 270 152 270 160 286 c 0,142,143
 169 300 169 300 182 300 c 0,144,145
 195 300 195 300 203 286 c 0,146,147
 212 271 212 271 212 250 c 256,148,149
 212 230 212 230 203 215 c 0,150,151
 194 201 194 201 182 200 c 1,152,-1
 182 200 l 1,136,137
273 200 m 1,153,154
 260 200 260 200 251 215 c 256,155,156
 242 229 242 229 242 250 c 256,157,158
 242 270 242 270 251 286 c 0,159,160
 260 300 260 300 273 300 c 0,161,162
 286 300 286 300 294 286 c 0,163,164
 303 271 303 271 303 250 c 256,165,166
 303 230 303 230 294 215 c 0,167,168
 285 201 285 201 273 200 c 1,169,-1
 273 200 l 1,153,154
61 300 m 1,170,171
 48 300 48 300 39 314 c 0,172,173
 30 329 30 329 30 350 c 256,174,175
 30 370 30 370 39 385 c 0,176,177
 48 399 48 399 61 400 c 256,178,179
 74 400 74 400 82 385 c 0,180,181
 91 371 91 371 91 350 c 256,182,183
 91 330 91 330 82 314 c 0,184,185
 73 300 73 300 61 300 c 1,186,-1
 61 300 l 1,170,171
121 300 m 1,187,188
 108 300 108 300 100 314 c 0,189,190
 91 329 91 329 91 350 c 256,191,192
 91 370 91 370 100 385 c 0,193,194
 109 399 109 399 121 400 c 0,195,196
 134 400 134 400 142 385 c 256,197,198
 152 371 152 371 152 350 c 256,199,200
 152 330 152 330 142 314 c 0,201,202
 133 300 133 300 121 300 c 1,203,-1
 121 300 l 1,187,188
182 300 m 1,204,205
 169 300 169 300 160 314 c 0,206,207
 152 329 152 329 152 350 c 256,208,209
 152 370 152 370 160 385 c 256,210,211
 169 399 169 399 182 400 c 0,212,213
 195 400 195 400 203 385 c 0,214,215
 212 371 212 371 212 350 c 256,216,217
 212 330 212 330 203 314 c 0,218,219
 194 300 194 300 182 300 c 1,220,-1
 182 300 l 1,204,205
273 300 m 1,221,222
 260 300 260 300 251 314 c 0,223,224
 242 329 242 329 242 350 c 256,225,226
 242 370 242 370 251 385 c 256,227,228
 260 399 260 399 273 400 c 0,229,230
 286 400 286 400 294 385 c 0,231,232
 303 371 303 371 303 350 c 256,233,234
 303 330 303 330 294 314 c 0,235,236
 285 300 285 300 273 300 c 1,237,-1
 273 300 l 1,221,222
273 400 m 1,238,239
 260 400 260 400 251 415 c 256,240,241
 242 429 242 429 242 450 c 0,242,243
 242 470 242 470 251 485 c 256,244,245
 260 499 260 499 273 500 c 0,246,247
 286 500 286 500 294 485 c 0,248,249
 303 471 303 471 303 450 c 0,250,251
 303 429 303 429 294 415 c 0,252,253
 285 401 285 401 273 400 c 1,254,-1
 273 400 l 1,238,239
30 500 m 1,255,256
 17 500 17 500 9 515 c 0,257,258
 0 529 0 529 0 550 c 256,259,260
 0 570 0 570 9 586 c 0,261,262
 18 600 18 600 30 600 c 256,263,264
 43 600 43 600 52 586 c 0,265,266
 61 571 61 571 61 550 c 256,267,268
 61 530 61 530 52 515 c 0,269,270
 43 501 43 501 30 500 c 1,271,-1
 30 500 l 1,255,256
273 500 m 1,272,273
 260 500 260 500 251 515 c 256,274,275
 242 529 242 529 242 550 c 256,276,277
 242 570 242 570 251 586 c 0,278,279
 260 600 260 600 273 600 c 0,280,281
 286 600 286 600 294 586 c 0,282,283
 303 571 303 571 303 550 c 256,284,285
 303 530 303 530 294 515 c 0,286,287
 285 501 285 501 273 500 c 1,288,-1
 273 500 l 1,272,273
61 600 m 1,289,290
 48 600 48 600 39 614 c 0,291,292
 30 629 30 629 30 650 c 256,293,294
 30 670 30 670 39 685 c 0,295,296
 48 699 48 699 61 700 c 256,297,298
 74 700 74 700 82 685 c 0,299,300
 91 671 91 671 91 650 c 256,301,302
 91 630 91 630 82 614 c 0,303,304
 73 600 73 600 61 600 c 1,305,-1
 61 600 l 1,289,290
121 600 m 1,306,307
 108 600 108 600 100 614 c 0,308,309
 91 629 91 629 91 650 c 256,310,311
 91 670 91 670 100 685 c 0,312,313
 109 699 109 699 121 700 c 0,314,315
 134 700 134 700 142 685 c 256,316,317
 152 671 152 671 152 650 c 256,318,319
 152 630 152 630 142 614 c 0,320,321
 133 600 133 600 121 600 c 1,322,-1
 121 600 l 1,306,307
182 600 m 1,323,324
 169 600 169 600 160 614 c 0,325,326
 152 629 152 629 152 650 c 256,327,328
 152 670 152 670 160 685 c 256,329,330
 169 699 169 699 182 700 c 0,331,332
 195 700 195 700 203 685 c 0,333,334
 212 671 212 671 212 650 c 256,335,336
 212 630 212 630 203 614 c 0,337,338
 194 600 194 600 182 600 c 1,339,-1
 182 600 l 1,323,324
242 600 m 1,340,341
 229 600 229 600 221 614 c 0,342,343
 212 629 212 629 212 650 c 256,344,345
 212 670 212 670 221 685 c 0,346,347
 230 699 230 699 242 700 c 256,348,349
 255 700 255 700 264 685 c 0,350,351
 273 671 273 671 273 650 c 256,352,353
 273 630 273 630 264 614 c 0,354,355
 255 600 255 600 242 600 c 1,356,-1
 242 600 l 1,340,341
EndSplineSet
Validated: 5
EndChar

StartChar: A
Encoding: 65 65 33
Width: 363
VWidth: 599
Flags: W
LayerCount: 2
Fore
SplineSet
30 0 m 1,0,1
 17 0 17 0 9 14 c 0,2,3
 0 29 0 29 0 50 c 256,4,5
 0 70 0 70 9 85 c 0,6,7
 18 99 18 99 30 100 c 256,8,9
 43 100 43 100 52 85 c 0,10,11
 61 71 61 71 61 50 c 256,12,13
 61 30 61 30 52 14 c 0,14,15
 43 0 43 0 30 0 c 1,16,-1
 30 0 l 1,0,1
273 0 m 1,17,18
 260 0 260 0 251 14 c 0,19,20
 242 29 242 29 242 50 c 256,21,22
 242 70 242 70 251 85 c 256,23,24
 260 99 260 99 273 100 c 0,25,26
 286 100 286 100 294 85 c 0,27,28
 303 71 303 71 303 50 c 256,29,30
 303 30 303 30 294 14 c 0,31,32
 285 0 285 0 273 0 c 1,33,-1
 273 0 l 1,17,18
30 100 m 1,34,35
 17 100 17 100 9 115 c 0,36,37
 0 129 0 129 0 150 c 0,38,39
 0 170 0 170 9 185 c 0,40,41
 18 199 18 199 30 200 c 256,42,43
 43 200 43 200 52 185 c 0,44,45
 61 171 61 171 61 150 c 128,-1,46
 61 129 61 129 52 115 c 128,-1,47
 43 101 43 101 30 100 c 1,48,-1
 30 100 l 1,34,35
273 100 m 1,49,50
 260 100 260 100 251 115 c 256,51,52
 242 129 242 129 242 150 c 0,53,54
 242 170 242 170 251 185 c 256,55,56
 260 199 260 199 273 200 c 0,57,58
 286 200 286 200 294 185 c 0,59,60
 303 171 303 171 303 150 c 128,-1,61
 303 129 303 129 294 115 c 128,-1,62
 285 101 285 101 273 100 c 1,63,-1
 273 100 l 1,49,50
30 200 m 1,64,65
 17 200 17 200 9 215 c 0,66,67
 0 229 0 229 0 250 c 256,68,69
 0 270 0 270 9 286 c 0,70,71
 18 300 18 300 30 300 c 256,72,73
 43 300 43 300 52 286 c 0,74,75
 61 271 61 271 61 250 c 256,76,77
 61 230 61 230 52 215 c 0,78,79
 43 201 43 201 30 200 c 1,80,-1
 30 200 l 1,64,65
91 200 m 1,81,82
 78 200 78 200 69 215 c 256,83,84
 60.9 227.6 60.9 227.6 60.9 245.87 c 0,85,86
 60.9 269.8 60.9 269.8 69 286 c 0,87,88
 78 300 78 300 91 300 c 128,-1,89
 104 300 104 300 112 286 c 0,90,91
 121 271 121 271 121 250 c 256,92,93
 121 230 121 230 112 215 c 256,94,95
 103 201 103 201 91 200 c 1,96,-1
 91 200 l 1,81,82
152 200 m 1,97,98
 139 200 139 200 130 215 c 0,99,100
 121 229 121 229 121 250 c 256,101,102
 121 270 121 270 130 286 c 0,103,104
 140 300 140 300 152 300 c 256,105,106
 165 300 165 300 173 286 c 0,107,108
 182 271 182 271 182 250 c 256,109,110
 182 230 182 230 173 215 c 0,111,112
 164 201 164 201 152 200 c 1,113,-1
 152 200 l 1,97,98
212 200 m 1,114,115
 198 200 198 200 190 215 c 0,116,117
 181.9 227.6 181.9 227.6 181.9 245.87 c 0,118,119
 181.9 269.8 181.9 269.8 190 286 c 0,120,121
 199 300 199 300 212 300 c 128,-1,122
 225 300 225 300 233 286 c 0,123,124
 242 271 242 271 242 250 c 256,125,126
 242 230 242 230 233 215 c 256,127,128
 224 201 224 201 212 200 c 1,129,-1
 212 200 l 1,114,115
273 200 m 1,130,131
 260 200 260 200 251 215 c 256,132,133
 242 229 242 229 242 250 c 256,134,135
 242 270 242 270 251 286 c 0,136,137
 260 300 260 300 273 300 c 128,-1,138
 286 300 286 300 294 286 c 0,139,140
 303 271 303 271 303 250 c 256,141,142
 303 230 303 230 294 215 c 0,143,144
 285 201 285 201 273 200 c 1,145,-1
 273 200 l 1,130,131
30 300 m 1,146,147
 17 300 17 300 9 314 c 0,148,149
 0 329 0 329 0 350 c 256,150,151
 0 370 0 370 9 385 c 0,152,153
 18 399 18 399 30 400 c 256,154,155
 43 400 43 400 52 385 c 0,156,157
 61 371 61 371 61 350 c 256,158,159
 61 330 61 330 52 314 c 0,160,161
 43 300 43 300 30 300 c 1,162,-1
 30 300 l 1,146,147
273 300 m 1,163,164
 260 300 260 300 251 314 c 0,165,166
 242 329 242 329 242 350 c 256,167,168
 242 370 242 370 251 385 c 256,169,170
 260 399 260 399 273 400 c 0,171,172
 286 400 286 400 294 385 c 0,173,174
 303 371 303 371 303 350 c 256,175,176
 303 330 303 330 294 314 c 0,177,178
 285 300 285 300 273 300 c 1,179,-1
 273 300 l 1,163,164
30 400 m 1,180,181
 17 400 17 400 9 415 c 0,182,183
 0 429 0 429 0 450 c 0,184,185
 0 470 0 470 9 485 c 0,186,187
 18 499 18 499 30 500 c 256,188,189
 43 500 43 500 52 485 c 0,190,191
 61 471 61 471 61 450 c 128,-1,192
 61 429 61 429 52 415 c 128,-1,193
 43 401 43 401 30 400 c 1,194,-1
 30 400 l 1,180,181
273 400 m 1,195,196
 260 400 260 400 251 415 c 256,197,198
 242 429 242 429 242 450 c 0,199,200
 242 470 242 470 251 485 c 256,201,202
 260 499 260 499 273 500 c 0,203,204
 286 500 286 500 294 485 c 0,205,206
 303 471 303 471 303 450 c 128,-1,207
 303 429 303 429 294 415 c 128,-1,208
 285 401 285 401 273 400 c 1,209,-1
 273 400 l 1,195,196
61 500 m 1,210,211
 48 500 48 500 39 515 c 0,212,213
 30 529 30 529 30 550 c 256,214,215
 30 570 30 570 39 586 c 0,216,217
 48 600 48 600 61 600 c 256,218,219
 74 600 74 600 82 586 c 0,220,221
 91 571 91 571 91 550 c 256,222,223
 91 530 91 530 82 515 c 0,224,225
 73 501 73 501 61 500 c 1,226,-1
 61 500 l 1,210,211
242 500 m 1,227,228
 229 500 229 500 221 515 c 0,229,230
 212 529 212 529 212 550 c 256,231,232
 212 570 212 570 221 586 c 0,233,234
 230 600 230 600 242 600 c 256,235,236
 255 600 255 600 264 586 c 0,237,238
 273 571 273 571 273 550 c 256,239,240
 273 530 273 530 264 515 c 0,241,242
 255 501 255 501 242 500 c 1,243,-1
 242 500 l 1,227,228
91 600 m 1,244,245
 78 600 78 600 69 614 c 0,246,247
 60.9 627.5 60.9 627.5 60.9 645.86 c 0,248,249
 60.9 669.8125 60.9 669.8125 69 685 c 256,250,251
 78 699 78 699 91 700 c 0,252,253
 104 700 104 700 112 685 c 256,254,255
 121 671 121 671 121 650 c 256,256,257
 121 630 121 630 112 614 c 0,258,259
 103 600 103 600 91 600 c 1,260,-1
 91 600 l 1,244,245
152 600 m 1,261,262
 139 600 139 600 130 614 c 0,263,264
 121 629 121 629 121 650 c 256,265,266
 121 670 121 670 130 685 c 0,267,268
 140 699 140 699 152 700 c 256,269,270
 165 700 165 700 173 685 c 0,271,272
 182 671 182 671 182 650 c 256,273,274
 182 630 182 630 173 614 c 0,275,276
 164 600 164 600 152 600 c 1,277,-1
 152 600 l 1,261,262
212 600 m 1,278,279
 198 600 198 600 190 614 c 0,280,281
 181.9 627.5 181.9 627.5 181.9 645.86 c 0,282,283
 181.9 669.8125 181.9 669.8125 190 685 c 0,284,285
 199 699 199 699 212 700 c 0,286,287
 225 700 225 700 233 685 c 256,288,289
 242 671 242 671 242 650 c 256,290,291
 242 630 242 630 233 614 c 0,292,293
 224 600 224 600 212 600 c 1,294,-1
 212 600 l 1,278,279
EndSplineSet
Validated: 524293
EndChar

StartChar: B
Encoding: 66 66 34
Width: 363
VWidth: 599
Flags: W
LayerCount: 2
Fore
SplineSet
30 0 m 1,0,1
 17 0 17 0 9 14 c 0,2,3
 0 29 0 29 0 50 c 256,4,5
 0 70 0 70 9 85 c 0,6,7
 18 99 18 99 30 100 c 256,8,9
 43 100 43 100 52 85 c 0,10,11
 61 71 61 71 61 50 c 256,12,13
 61 30 61 30 52 14 c 0,14,15
 43 0 43 0 30 0 c 1,16,-1
 30 0 l 1,0,1
91 0 m 1,17,18
 78 0 78 0 69 14 c 0,19,20
 60.9 27.5 60.9 27.5 60.9 45.86 c 0,21,22
 60.9 69.8125 60.9 69.8125 69 85 c 256,23,24
 78 99 78 99 91 100 c 0,25,26
 104 100 104 100 112 85 c 256,27,28
 121 71 121 71 121 50 c 256,29,30
 121 30 121 30 112 14 c 0,31,32
 103 0 103 0 91 0 c 1,33,-1
 91 0 l 1,17,18
152 0 m 1,34,35
 139 0 139 0 130 14 c 0,36,37
 121 29 121 29 121 50 c 256,38,39
 121 70 121 70 130 85 c 0,40,41
 140 99 140 99 152 100 c 256,42,43
 165 100 165 100 173 85 c 0,44,45
 182 71 182 71 182 50 c 256,46,47
 182 30 182 30 173 14 c 0,48,49
 164 0 164 0 152 0 c 1,50,-1
 152 0 l 1,34,35
212 0 m 1,51,52
 198 0 198 0 190 14 c 0,53,54
 181.9 27.5 181.9 27.5 181.9 45.86 c 0,55,56
 181.9 69.8125 181.9 69.8125 190 85 c 0,57,58
 199 99 199 99 212 100 c 0,59,60
 225 100 225 100 233 85 c 256,61,62
 242 71 242 71 242 50 c 256,63,64
 242 30 242 30 233 14 c 0,65,66
 224 0 224 0 212 0 c 1,67,-1
 212 0 l 1,51,52
61 100 m 1,68,69
 48 100 48 100 39 115 c 0,70,71
 30 129 30 129 30 150 c 0,72,73
 30 170 30 170 39 185 c 0,74,75
 48 199 48 199 61 200 c 256,76,77
 74 200 74 200 82 185 c 0,78,79
 91 171 91 171 91 150 c 128,-1,80
 91 129 91 129 82 115 c 128,-1,81
 73 101 73 101 61 100 c 1,82,-1
 61 100 l 1,68,69
273 100 m 1,83,84
 260 100 260 100 251 115 c 256,85,86
 242 129 242 129 242 150 c 0,87,88
 242 170 242 170 251 185 c 256,89,90
 260 199 260 199 273 200 c 0,91,92
 286 200 286 200 294 185 c 0,93,94
 303 171 303 171 303 150 c 128,-1,95
 303 129 303 129 294 115 c 128,-1,96
 285 101 285 101 273 100 c 1,97,-1
 273 100 l 1,83,84
61 200 m 1,98,99
 48 200 48 200 39 215 c 0,100,101
 30 229 30 229 30 250 c 256,102,103
 30 270 30 270 39 286 c 0,104,105
 48 300 48 300 61 300 c 256,106,107
 74 300 74 300 82 286 c 0,108,109
 91 271 91 271 91 250 c 256,110,111
 91 230 91 230 82 215 c 0,112,113
 73 201 73 201 61 200 c 1,114,-1
 61 200 l 1,98,99
273 200 m 1,115,116
 260 200 260 200 251 215 c 256,117,118
 242 229 242 229 242 250 c 256,119,120
 242 270 242 270 251 286 c 0,121,122
 260 300 260 300 273 300 c 128,-1,123
 286 300 286 300 294 286 c 0,124,125
 303 271 303 271 303 250 c 256,126,127
 303 230 303 230 294 215 c 0,128,129
 285 201 285 201 273 200 c 1,130,-1
 273 200 l 1,115,116
61 300 m 1,131,132
 48 300 48 300 39 314 c 0,133,134
 30 329 30 329 30 350 c 256,135,136
 30 370 30 370 39 385 c 0,137,138
 48 399 48 399 61 400 c 256,139,140
 74 400 74 400 82 385 c 0,141,142
 91 371 91 371 91 350 c 256,143,144
 91 330 91 330 82 314 c 0,145,146
 73 300 73 300 61 300 c 1,147,-1
 61 300 l 1,131,132
121 300 m 1,148,149
 108 300 108 300 100 314 c 0,150,151
 91 329 91 329 91 350 c 256,152,153
 91 370 91 370 100 385 c 0,154,155
 109 399 109 399 121 400 c 0,156,157
 134 400 134 400 142 385 c 256,158,159
 152 371 152 371 152 350 c 256,160,161
 152 330 152 330 142 314 c 0,162,163
 133 300 133 300 121 300 c 1,164,-1
 121 300 l 1,148,149
182 300 m 1,165,166
 169 300 169 300 160 314 c 0,167,168
 152 329 152 329 152 350 c 256,169,170
 152 370 152 370 160 385 c 256,171,172
 169 399 169 399 182 400 c 0,173,174
 195 400 195 400 203 385 c 0,175,176
 212 371 212 371 212 350 c 256,177,178
 212 330 212 330 203 314 c 0,179,180
 194 300 194 300 182 300 c 1,181,-1
 182 300 l 1,165,166
242 300 m 1,182,183
 229 300 229 300 221 314 c 0,184,185
 212 329 212 329 212 350 c 256,186,187
 212 370 212 370 221 385 c 0,188,189
 230 399 230 399 242 400 c 256,190,191
 255 400 255 400 264 385 c 0,192,193
 273 371 273 371 273 350 c 256,194,195
 273 330 273 330 264 314 c 0,196,197
 255 300 255 300 242 300 c 1,198,-1
 242 300 l 1,182,183
61 400 m 1,199,200
 48 400 48 400 39 415 c 0,201,202
 30 429 30 429 30 450 c 0,203,204
 30 470 30 470 39 485 c 0,205,206
 48 499 48 499 61 500 c 256,207,208
 74 500 74 500 82 485 c 0,209,210
 91 471 91 471 91 450 c 128,-1,211
 91 429 91 429 82 415 c 128,-1,212
 73 401 73 401 61 400 c 1,213,-1
 61 400 l 1,199,200
273 400 m 1,214,215
 260 400 260 400 251 415 c 256,216,217
 242 429 242 429 242 450 c 0,218,219
 242 470 242 470 251 485 c 256,220,221
 260 499 260 499 273 500 c 0,222,223
 286 500 286 500 294 485 c 0,224,225
 303 471 303 471 303 450 c 128,-1,226
 303 429 303 429 294 415 c 128,-1,227
 285 401 285 401 273 400 c 1,228,-1
 273 400 l 1,214,215
61 500 m 1,229,230
 48 500 48 500 39 515 c 0,231,232
 30 529 30 529 30 550 c 256,233,234
 30 570 30 570 39 586 c 0,235,236
 48 600 48 600 61 600 c 256,237,238
 74 600 74 600 82 586 c 0,239,240
 91 571 91 571 91 550 c 256,241,242
 91 530 91 530 82 515 c 0,243,244
 73 501 73 501 61 500 c 1,245,-1
 61 500 l 1,229,230
273 500 m 1,246,247
 260 500 260 500 251 515 c 256,248,249
 242 529 242 529 242 550 c 256,250,251
 242 570 242 570 251 586 c 0,252,253
 260 600 260 600 273 600 c 128,-1,254
 286 600 286 600 294 586 c 0,255,256
 303 571 303 571 303 550 c 256,257,258
 303 530 303 530 294 515 c 0,259,260
 285 501 285 501 273 500 c 1,261,-1
 273 500 l 1,246,247
30 600 m 1,262,263
 17 600 17 600 9 614 c 0,264,265
 0 629 0 629 0 650 c 256,266,267
 0 670 0 670 9 685 c 0,268,269
 18 699 18 699 30 700 c 256,270,271
 43 700 43 700 52 685 c 0,272,273
 61 671 61 671 61 650 c 256,274,275
 61 630 61 630 52 614 c 0,276,277
 43 600 43 600 30 600 c 1,278,-1
 30 600 l 1,262,263
91 600 m 1,279,280
 78 600 78 600 69 614 c 0,281,282
 60.9 627.5 60.9 627.5 60.9 645.86 c 0,283,284
 60.9 669.8125 60.9 669.8125 69 685 c 256,285,286
 78 699 78 699 91 700 c 0,287,288
 104 700 104 700 112 685 c 256,289,290
 121 671 121 671 121 650 c 256,291,292
 121 630 121 630 112 614 c 0,293,294
 103 600 103 600 91 600 c 1,295,-1
 91 600 l 1,279,280
152 600 m 1,296,297
 139 600 139 600 130 614 c 0,298,299
 121 629 121 629 121 650 c 256,300,301
 121 670 121 670 130 685 c 0,302,303
 140 699 140 699 152 700 c 256,304,305
 165 700 165 700 173 685 c 0,306,307
 182 671 182 671 182 650 c 256,308,309
 182 630 182 630 173 614 c 0,310,311
 164 600 164 600 152 600 c 1,312,-1
 152 600 l 1,296,297
212 600 m 1,313,314
 198 600 198 600 190 614 c 0,315,316
 181.9 627.5 181.9 627.5 181.9 645.86 c 0,317,318
 181.9 669.8125 181.9 669.8125 190 685 c 0,319,320
 199 699 199 699 212 700 c 0,321,322
 225 700 225 700 233 685 c 256,323,324
 242 671 242 671 242 650 c 256,325,326
 242 630 242 630 233 614 c 0,327,328
 224 600 224 600 212 600 c 1,329,-1
 212 600 l 1,313,314
EndSplineSet
Validated: 524293
EndChar

StartChar: C
Encoding: 67 67 35
Width: 363
VWidth: 599
Flags: W
LayerCount: 2
Fore
SplineSet
61 0 m 1,0,1
 48 0 48 0 39 14 c 0,2,3
 30 29 30 29 30 50 c 256,4,5
 30 70 30 70 39 85 c 0,6,7
 48 99 48 99 61 100 c 256,8,9
 74 100 74 100 82 85 c 0,10,11
 91 71 91 71 91 50 c 256,12,13
 91 30 91 30 82 14 c 0,14,15
 73 0 73 0 61 0 c 1,16,-1
 61 0 l 1,0,1
121 0 m 1,17,18
 108 0 108 0 100 14 c 0,19,20
 91 29 91 29 91 50 c 256,21,22
 91 70 91 70 100 85 c 0,23,24
 109 99 109 99 121 100 c 0,25,26
 134 100 134 100 142 85 c 256,27,28
 152 71 152 71 152 50 c 256,29,30
 152 30 152 30 142 14 c 0,31,32
 133 0 133 0 121 0 c 1,33,-1
 121 0 l 1,17,18
182 0 m 1,34,35
 169 0 169 0 160 14 c 0,36,37
 152 29 152 29 152 50 c 256,38,39
 152 70 152 70 160 85 c 256,40,41
 169 99 169 99 182 100 c 0,42,43
 195 100 195 100 203 85 c 0,44,45
 212 71 212 71 212 50 c 256,46,47
 212 30 212 30 203 14 c 0,48,49
 194 0 194 0 182 0 c 1,50,-1
 182 0 l 1,34,35
242 0 m 1,51,52
 229 0 229 0 221 14 c 0,53,54
 212 29 212 29 212 50 c 256,55,56
 212 70 212 70 221 85 c 0,57,58
 230 99 230 99 242 100 c 256,59,60
 255 100 255 100 264 85 c 0,61,62
 273 71 273 71 273 50 c 256,63,64
 273 30 273 30 264 14 c 0,65,66
 255 0 255 0 242 0 c 1,67,-1
 242 0 l 1,51,52
30 100 m 1,68,69
 17 100 17 100 9 115 c 0,70,71
 0 129 0 129 0 150 c 0,72,73
 0 170 0 170 9 185 c 0,74,75
 18 199 18 199 30 200 c 256,76,77
 43 200 43 200 52 185 c 0,78,79
 61 171 61 171 61 150 c 0,80,81
 61 129 61 129 52 115 c 0,82,83
 43 101 43 101 30 100 c 1,84,-1
 30 100 l 1,68,69
273 100 m 1,85,86
 260 100 260 100 251 115 c 256,87,88
 242 129 242 129 242 150 c 0,89,90
 242 170 242 170 251 185 c 256,91,92
 260 199 260 199 273 200 c 0,93,94
 286 200 286 200 294 185 c 0,95,96
 303 171 303 171 303 150 c 0,97,98
 303 129 303 129 294 115 c 0,99,100
 285 101 285 101 273 100 c 1,101,-1
 273 100 l 1,85,86
30 200 m 1,102,103
 17 200 17 200 9 215 c 0,104,105
 0 229 0 229 0 250 c 256,106,107
 0 270 0 270 9 286 c 0,108,109
 18 300 18 300 30 300 c 256,110,111
 43 300 43 300 52 286 c 0,112,113
 61 271 61 271 61 250 c 256,114,115
 61 230 61 230 52 215 c 0,116,117
 43 201 43 201 30 200 c 1,118,-1
 30 200 l 1,102,103
30 300 m 1,119,120
 17 300 17 300 9 314 c 0,121,122
 0 329 0 329 0 350 c 256,123,124
 0 370 0 370 9 385 c 0,125,126
 18 399 18 399 30 400 c 256,127,128
 43 400 43 400 52 385 c 0,129,130
 61 371 61 371 61 350 c 256,131,132
 61 330 61 330 52 314 c 0,133,134
 43 300 43 300 30 300 c 1,135,-1
 30 300 l 1,119,120
30 400 m 1,136,137
 17 400 17 400 9 415 c 0,138,139
 0 429 0 429 0 450 c 0,140,141
 0 470 0 470 9 485 c 0,142,143
 18 499 18 499 30 500 c 256,144,145
 43 500 43 500 52 485 c 0,146,147
 61 471 61 471 61 450 c 0,148,149
 61 429 61 429 52 415 c 0,150,151
 43 401 43 401 30 400 c 1,152,-1
 30 400 l 1,136,137
30 500 m 1,153,154
 17 500 17 500 9 515 c 0,155,156
 0 529 0 529 0 550 c 256,157,158
 0 570 0 570 9 586 c 0,159,160
 18 600 18 600 30 600 c 256,161,162
 43 600 43 600 52 586 c 0,163,164
 61 571 61 571 61 550 c 256,165,166
 61 530 61 530 52 515 c 0,167,168
 43 501 43 501 30 500 c 1,169,-1
 30 500 l 1,153,154
273 500 m 1,170,171
 260 500 260 500 251 515 c 256,172,173
 242 529 242 529 242 550 c 256,174,175
 242 570 242 570 251 586 c 0,176,177
 260 600 260 600 273 600 c 0,178,179
 286 600 286 600 294 586 c 0,180,181
 303 571 303 571 303 550 c 256,182,183
 303 530 303 530 294 515 c 0,184,185
 285 501 285 501 273 500 c 1,186,-1
 273 500 l 1,170,171
61 600 m 1,187,188
 48 600 48 600 39 614 c 0,189,190
 30 629 30 629 30 650 c 256,191,192
 30 670 30 670 39 685 c 0,193,194
 48 699 48 699 61 700 c 256,195,196
 74 700 74 700 82 685 c 0,197,198
 91 671 91 671 91 650 c 256,199,200
 91 630 91 630 82 614 c 0,201,202
 73 600 73 600 61 600 c 1,203,-1
 61 600 l 1,187,188
121 600 m 1,204,205
 108 600 108 600 100 614 c 0,206,207
 91 629 91 629 91 650 c 256,208,209
 91 670 91 670 100 685 c 0,210,211
 109 699 109 699 121 700 c 0,212,213
 134 700 134 700 142 685 c 256,214,215
 152 671 152 671 152 650 c 256,216,217
 152 630 152 630 142 614 c 0,218,219
 133 600 133 600 121 600 c 1,220,-1
 121 600 l 1,204,205
182 600 m 1,221,222
 169 600 169 600 160 614 c 0,223,224
 152 629 152 629 152 650 c 256,225,226
 152 670 152 670 160 685 c 256,227,228
 169 699 169 699 182 700 c 0,229,230
 195 700 195 700 203 685 c 0,231,232
 212 671 212 671 212 650 c 256,233,234
 212 630 212 630 203 614 c 0,235,236
 194 600 194 600 182 600 c 1,237,-1
 182 600 l 1,221,222
242 600 m 1,238,239
 229 600 229 600 221 614 c 0,240,241
 212 629 212 629 212 650 c 256,242,243
 212 670 212 670 221 685 c 0,244,245
 230 699 230 699 242 700 c 256,246,247
 255 700 255 700 264 685 c 0,248,249
 273 671 273 671 273 650 c 256,250,251
 273 630 273 630 264 614 c 0,252,253
 255 600 255 600 242 600 c 1,254,-1
 242 600 l 1,238,239
EndSplineSet
Validated: 5
EndChar

StartChar: D
Encoding: 68 68 36
Width: 363
VWidth: 599
Flags: W
LayerCount: 2
Fore
SplineSet
30 0 m 1,0,1
 17 0 17 0 9 14 c 0,2,3
 0 29 0 29 0 50 c 256,4,5
 0 70 0 70 9 85 c 0,6,7
 18 99 18 99 30 100 c 256,8,9
 43 100 43 100 52 85 c 0,10,11
 61 71 61 71 61 50 c 256,12,13
 61 30 61 30 52 14 c 0,14,15
 43 0 43 0 30 0 c 1,16,-1
 30 0 l 1,0,1
91 0 m 1,17,18
 78 0 78 0 69 14 c 0,19,20
 60.9 27.5 60.9 27.5 60.9 45.86 c 0,21,22
 60.9 69.8125 60.9 69.8125 69 85 c 256,23,24
 78 99 78 99 91 100 c 0,25,26
 104 100 104 100 112 85 c 256,27,28
 121 71 121 71 121 50 c 256,29,30
 121 30 121 30 112 14 c 0,31,32
 103 0 103 0 91 0 c 1,33,-1
 91 0 l 1,17,18
152 0 m 1,34,35
 139 0 139 0 130 14 c 0,36,37
 121 29 121 29 121 50 c 256,38,39
 121 70 121 70 130 85 c 0,40,41
 140 99 140 99 152 100 c 256,42,43
 165 100 165 100 173 85 c 0,44,45
 182 71 182 71 182 50 c 256,46,47
 182 30 182 30 173 14 c 0,48,49
 164 0 164 0 152 0 c 1,50,-1
 152 0 l 1,34,35
212 0 m 1,51,52
 198 0 198 0 190 14 c 0,53,54
 181.9 27.5 181.9 27.5 181.9 45.86 c 0,55,56
 181.9 69.8125 181.9 69.8125 190 85 c 0,57,58
 199 99 199 99 212 100 c 0,59,60
 225 100 225 100 233 85 c 256,61,62
 242 71 242 71 242 50 c 256,63,64
 242 30 242 30 233 14 c 0,65,66
 224 0 224 0 212 0 c 1,67,-1
 212 0 l 1,51,52
61 100 m 1,68,69
 48 100 48 100 39 115 c 0,70,71
 30 129 30 129 30 150 c 0,72,73
 30 170 30 170 39 185 c 0,74,75
 48 199 48 199 61 200 c 256,76,77
 74 200 74 200 82 185 c 0,78,79
 91 171 91 171 91 150 c 128,-1,80
 91 129 91 129 82 115 c 128,-1,81
 73 101 73 101 61 100 c 1,82,-1
 61 100 l 1,68,69
242 100 m 1,83,84
 229 100 229 100 221 115 c 0,85,86
 212 129 212 129 212 150 c 0,87,88
 212 170 212 170 221 185 c 0,89,90
 230 199 230 199 242 200 c 256,91,92
 255 200 255 200 264 185 c 0,93,94
 273 171 273 171 273 150 c 128,-1,95
 273 129 273 129 264 115 c 128,-1,96
 255 101 255 101 242 100 c 1,97,-1
 242 100 l 1,83,84
61 200 m 1,98,99
 48 200 48 200 39 215 c 0,100,101
 30 229 30 229 30 250 c 256,102,103
 30 270 30 270 39 286 c 0,104,105
 48 300 48 300 61 300 c 256,106,107
 74 300 74 300 82 286 c 0,108,109
 91 271 91 271 91 250 c 256,110,111
 91 230 91 230 82 215 c 0,112,113
 73 201 73 201 61 200 c 1,114,-1
 61 200 l 1,98,99
273 200 m 1,115,116
 260 200 260 200 251 215 c 256,117,118
 242 229 242 229 242 250 c 256,119,120
 242 270 242 270 251 286 c 0,121,122
 260 300 260 300 273 300 c 128,-1,123
 286 300 286 300 294 286 c 0,124,125
 303 271 303 271 303 250 c 256,126,127
 303 230 303 230 294 215 c 0,128,129
 285 201 285 201 273 200 c 1,130,-1
 273 200 l 1,115,116
61 300 m 1,131,132
 48 300 48 300 39 314 c 0,133,134
 30 329 30 329 30 350 c 256,135,136
 30 370 30 370 39 385 c 0,137,138
 48 399 48 399 61 400 c 256,139,140
 74 400 74 400 82 385 c 0,141,142
 91 371 91 371 91 350 c 256,143,144
 91 330 91 330 82 314 c 0,145,146
 73 300 73 300 61 300 c 1,147,-1
 61 300 l 1,131,132
273 300 m 1,148,149
 260 300 260 300 251 314 c 0,150,151
 242 329 242 329 242 350 c 256,152,153
 242 370 242 370 251 385 c 256,154,155
 260 399 260 399 273 400 c 0,156,157
 286 400 286 400 294 385 c 0,158,159
 303 371 303 371 303 350 c 256,160,161
 303 330 303 330 294 314 c 0,162,163
 285 300 285 300 273 300 c 1,164,-1
 273 300 l 1,148,149
61 400 m 1,165,166
 48 400 48 400 39 415 c 0,167,168
 30 429 30 429 30 450 c 0,169,170
 30 470 30 470 39 485 c 0,171,172
 48 499 48 499 61 500 c 256,173,174
 74 500 74 500 82 485 c 0,175,176
 91 471 91 471 91 450 c 128,-1,177
 91 429 91 429 82 415 c 128,-1,178
 73 401 73 401 61 400 c 1,179,-1
 61 400 l 1,165,166
273 400 m 1,180,181
 260 400 260 400 251 415 c 256,182,183
 242 429 242 429 242 450 c 0,184,185
 242 470 242 470 251 485 c 256,186,187
 260 499 260 499 273 500 c 0,188,189
 286 500 286 500 294 485 c 0,190,191
 303 471 303 471 303 450 c 128,-1,192
 303 429 303 429 294 415 c 128,-1,193
 285 401 285 401 273 400 c 1,194,-1
 273 400 l 1,180,181
61 500 m 1,195,196
 48 500 48 500 39 515 c 0,197,198
 30 529 30 529 30 550 c 256,199,200
 30 570 30 570 39 586 c 0,201,202
 48 600 48 600 61 600 c 256,203,204
 74 600 74 600 82 586 c 0,205,206
 91 571 91 571 91 550 c 256,207,208
 91 530 91 530 82 515 c 0,209,210
 73 501 73 501 61 500 c 1,211,-1
 61 500 l 1,195,196
242 500 m 1,212,213
 229 500 229 500 221 515 c 0,214,215
 212 529 212 529 212 550 c 256,216,217
 212 570 212 570 221 586 c 0,218,219
 230 600 230 600 242 600 c 256,220,221
 255 600 255 600 264 586 c 0,222,223
 273 571 273 571 273 550 c 256,224,225
 273 530 273 530 264 515 c 0,226,227
 255 501 255 501 242 500 c 1,228,-1
 242 500 l 1,212,213
30 600 m 1,229,230
 17 600 17 600 9 614 c 0,231,232
 0 629 0 629 0 650 c 256,233,234
 0 670 0 670 9 685 c 0,235,236
 18 699 18 699 30 700 c 256,237,238
 43 700 43 700 52 685 c 0,239,240
 61 671 61 671 61 650 c 256,241,242
 61 630 61 630 52 614 c 0,243,244
 43 600 43 600 30 600 c 1,245,-1
 30 600 l 1,229,230
91 600 m 1,246,247
 78 600 78 600 69 614 c 0,248,249
 60.9 627.5 60.9 627.5 60.9 645.86 c 0,250,251
 60.9 669.8125 60.9 669.8125 69 685 c 256,252,253
 78 699 78 699 91 700 c 0,254,255
 104 700 104 700 112 685 c 256,256,257
 121 671 121 671 121 650 c 256,258,259
 121 630 121 630 112 614 c 0,260,261
 103 600 103 600 91 600 c 1,262,-1
 91 600 l 1,246,247
152 600 m 1,263,264
 139 600 139 600 130 614 c 0,265,266
 121 629 121 629 121 650 c 256,267,268
 121 670 121 670 130 685 c 0,269,270
 140 699 140 699 152 700 c 256,271,272
 165 700 165 700 173 685 c 0,273,274
 182 671 182 671 182 650 c 256,275,276
 182 630 182 630 173 614 c 0,277,278
 164 600 164 600 152 600 c 1,279,-1
 152 600 l 1,263,264
212 600 m 1,280,281
 198 600 198 600 190 614 c 0,282,283
 181.9 627.5 181.9 627.5 181.9 645.86 c 0,284,285
 181.9 669.8125 181.9 669.8125 190 685 c 0,286,287
 199 699 199 699 212 700 c 0,288,289
 225 700 225 700 233 685 c 256,290,291
 242 671 242 671 242 650 c 256,292,293
 242 630 242 630 233 614 c 0,294,295
 224 600 224 600 212 600 c 1,296,-1
 212 600 l 1,280,281
EndSplineSet
Validated: 524293
EndChar

StartChar: E
Encoding: 69 69 37
Width: 363
VWidth: 599
Flags: W
LayerCount: 2
Fore
SplineSet
30 0 m 1,0,1
 17 0 17 0 9 14 c 0,2,3
 0 29 0 29 0 50 c 256,4,5
 0 70 0 70 9 85 c 0,6,7
 18 99 18 99 30 100 c 256,8,9
 43 100 43 100 52 85 c 0,10,11
 61 71 61 71 61 50 c 256,12,13
 61 30 61 30 52 14 c 0,14,15
 43 0 43 0 30 0 c 1,16,-1
 30 0 l 1,0,1
91 0 m 1,17,18
 78 0 78 0 69 14 c 0,19,20
 60.9 27.5 60.9 27.5 60.9 45.86 c 0,21,22
 60.9 69.8125 60.9 69.8125 69 85 c 256,23,24
 78 99 78 99 91 100 c 0,25,26
 104 100 104 100 112 85 c 256,27,28
 121 71 121 71 121 50 c 256,29,30
 121 30 121 30 112 14 c 0,31,32
 103 0 103 0 91 0 c 1,33,-1
 91 0 l 1,17,18
152 0 m 1,34,35
 139 0 139 0 130 14 c 0,36,37
 121 29 121 29 121 50 c 256,38,39
 121 70 121 70 130 85 c 0,40,41
 140 99 140 99 152 100 c 256,42,43
 165 100 165 100 173 85 c 0,44,45
 182 71 182 71 182 50 c 256,46,47
 182 30 182 30 173 14 c 0,48,49
 164 0 164 0 152 0 c 1,50,-1
 152 0 l 1,34,35
212 0 m 1,51,52
 198 0 198 0 190 14 c 0,53,54
 181.9 27.5 181.9 27.5 181.9 45.86 c 0,55,56
 181.9 69.8125 181.9 69.8125 190 85 c 0,57,58
 199 99 199 99 212 100 c 0,59,60
 225 100 225 100 233 85 c 256,61,62
 242 71 242 71 242 50 c 256,63,64
 242 30 242 30 233 14 c 0,65,66
 224 0 224 0 212 0 c 1,67,-1
 212 0 l 1,51,52
273 0 m 1,68,69
 260 0 260 0 251 14 c 0,70,71
 242 29 242 29 242 50 c 256,72,73
 242 70 242 70 251 85 c 256,74,75
 260 99 260 99 273 100 c 0,76,77
 286 100 286 100 294 85 c 0,78,79
 303 71 303 71 303 50 c 256,80,81
 303 30 303 30 294 14 c 0,82,83
 285 0 285 0 273 0 c 1,84,-1
 273 0 l 1,68,69
30 100 m 1,85,86
 17 100 17 100 9 115 c 0,87,88
 0 129 0 129 0 150 c 0,89,90
 0 170 0 170 9 185 c 0,91,92
 18 199 18 199 30 200 c 256,93,94
 43 200 43 200 52 185 c 0,95,96
 61 171 61 171 61 150 c 128,-1,97
 61 129 61 129 52 115 c 128,-1,98
 43 101 43 101 30 100 c 1,99,-1
 30 100 l 1,85,86
30 200 m 1,100,101
 17 200 17 200 9 215 c 0,102,103
 0 229 0 229 0 250 c 256,104,105
 0 270 0 270 9 286 c 0,106,107
 18 300 18 300 30 300 c 256,108,109
 43 300 43 300 52 286 c 0,110,111
 61 271 61 271 61 250 c 256,112,113
 61 230 61 230 52 215 c 0,114,115
 43 201 43 201 30 200 c 1,116,-1
 30 200 l 1,100,101
30 300 m 1,117,118
 17 300 17 300 9 314 c 0,119,120
 0 329 0 329 0 350 c 256,121,122
 0 370 0 370 9 385 c 0,123,124
 18 399 18 399 30 400 c 256,125,126
 43 400 43 400 52 385 c 0,127,128
 61 371 61 371 61 350 c 256,129,130
 61 330 61 330 52 314 c 0,131,132
 43 300 43 300 30 300 c 1,133,-1
 30 300 l 1,117,118
91 300 m 1,134,135
 78 300 78 300 69 314 c 0,136,137
 60.9 327.5 60.9 327.5 60.9 345.86 c 0,138,139
 60.9 369.8125 60.9 369.8125 69 385 c 256,140,141
 78 399 78 399 91 400 c 0,142,143
 104 400 104 400 112 385 c 256,144,145
 121 371 121 371 121 350 c 256,146,147
 121 330 121 330 112 314 c 0,148,149
 103 300 103 300 91 300 c 1,150,-1
 91 300 l 1,134,135
152 300 m 1,151,152
 139 300 139 300 130 314 c 0,153,154
 121 329 121 329 121 350 c 256,155,156
 121 370 121 370 130 385 c 0,157,158
 140 399 140 399 152 400 c 256,159,160
 165 400 165 400 173 385 c 0,161,162
 182 371 182 371 182 350 c 256,163,164
 182 330 182 330 173 314 c 0,165,166
 164 300 164 300 152 300 c 1,167,-1
 152 300 l 1,151,152
212 300 m 1,168,169
 198 300 198 300 190 314 c 0,170,171
 181.9 327.5 181.9 327.5 181.9 345.86 c 0,172,173
 181.9 369.8125 181.9 369.8125 190 385 c 0,174,175
 199 399 199 399 212 400 c 0,176,177
 225 400 225 400 233 385 c 256,178,179
 242 371 242 371 242 350 c 256,180,181
 242 330 242 330 233 314 c 0,182,183
 224 300 224 300 212 300 c 1,184,-1
 212 300 l 1,168,169
30 400 m 1,185,186
 17 400 17 400 9 415 c 0,187,188
 0 429 0 429 0 450 c 0,189,190
 0 470 0 470 9 485 c 0,191,192
 18 499 18 499 30 500 c 256,193,194
 43 500 43 500 52 485 c 0,195,196
 61 471 61 471 61 450 c 128,-1,197
 61 429 61 429 52 415 c 128,-1,198
 43 401 43 401 30 400 c 1,199,-1
 30 400 l 1,185,186
30 500 m 1,200,201
 17 500 17 500 9 515 c 0,202,203
 0 529 0 529 0 550 c 256,204,205
 0 570 0 570 9 586 c 0,206,207
 18 600 18 600 30 600 c 256,208,209
 43 600 43 600 52 586 c 0,210,211
 61 571 61 571 61 550 c 256,212,213
 61 530 61 530 52 515 c 0,214,215
 43 501 43 501 30 500 c 1,216,-1
 30 500 l 1,200,201
30 600 m 1,217,218
 17 600 17 600 9 614 c 0,219,220
 0 629 0 629 0 650 c 256,221,222
 0 670 0 670 9 685 c 0,223,224
 18 699 18 699 30 700 c 256,225,226
 43 700 43 700 52 685 c 0,227,228
 61 671 61 671 61 650 c 256,229,230
 61 630 61 630 52 614 c 0,231,232
 43 600 43 600 30 600 c 1,233,-1
 30 600 l 1,217,218
91 600 m 1,234,235
 78 600 78 600 69 614 c 0,236,237
 60.9 627.5 60.9 627.5 60.9 645.86 c 0,238,239
 60.9 669.8125 60.9 669.8125 69 685 c 256,240,241
 78 699 78 699 91 700 c 0,242,243
 104 700 104 700 112 685 c 256,244,245
 121 671 121 671 121 650 c 256,246,247
 121 630 121 630 112 614 c 0,248,249
 103 600 103 600 91 600 c 1,250,-1
 91 600 l 1,234,235
152 600 m 1,251,252
 139 600 139 600 130 614 c 0,253,254
 121 629 121 629 121 650 c 256,255,256
 121 670 121 670 130 685 c 0,257,258
 140 699 140 699 152 700 c 256,259,260
 165 700 165 700 173 685 c 0,261,262
 182 671 182 671 182 650 c 256,263,264
 182 630 182 630 173 614 c 0,265,266
 164 600 164 600 152 600 c 1,267,-1
 152 600 l 1,251,252
212 600 m 1,268,269
 198 600 198 600 190 614 c 0,270,271
 181.9 627.5 181.9 627.5 181.9 645.86 c 0,272,273
 181.9 669.8125 181.9 669.8125 190 685 c 0,274,275
 199 699 199 699 212 700 c 0,276,277
 225 700 225 700 233 685 c 256,278,279
 242 671 242 671 242 650 c 256,280,281
 242 630 242 630 233 614 c 0,282,283
 224 600 224 600 212 600 c 1,284,-1
 212 600 l 1,268,269
273 600 m 1,285,286
 260 600 260 600 251 614 c 0,287,288
 242 629 242 629 242 650 c 256,289,290
 242 670 242 670 251 685 c 256,291,292
 260 699 260 699 273 700 c 0,293,294
 286 700 286 700 294 685 c 0,295,296
 303 671 303 671 303 650 c 256,297,298
 303 630 303 630 294 614 c 0,299,300
 285 600 285 600 273 600 c 1,301,-1
 273 600 l 1,285,286
EndSplineSet
Validated: 524293
EndChar

StartChar: F
Encoding: 70 70 38
Width: 363
VWidth: 599
Flags: W
LayerCount: 2
Fore
SplineSet
30 0 m 1,0,1
 17 0 17 0 9 14 c 0,2,3
 0 29 0 29 0 50 c 256,4,5
 0 70 0 70 9 85 c 0,6,7
 18 99 18 99 30 100 c 256,8,9
 43 100 43 100 52 85 c 0,10,11
 61 71 61 71 61 50 c 256,12,13
 61 30 61 30 52 14 c 0,14,15
 43 0 43 0 30 0 c 1,16,-1
 30 0 l 1,0,1
30 100 m 1,17,18
 17 100 17 100 9 115 c 0,19,20
 0 129 0 129 0 150 c 0,21,22
 0 170 0 170 9 185 c 0,23,24
 18 199 18 199 30 200 c 256,25,26
 43 200 43 200 52 185 c 0,27,28
 61 171 61 171 61 150 c 128,-1,29
 61 129 61 129 52 115 c 128,-1,30
 43 101 43 101 30 100 c 1,31,-1
 30 100 l 1,17,18
30 200 m 1,32,33
 17 200 17 200 9 215 c 0,34,35
 0 229 0 229 0 250 c 256,36,37
 0 270 0 270 9 286 c 0,38,39
 18 300 18 300 30 300 c 256,40,41
 43 300 43 300 52 286 c 0,42,43
 61 271 61 271 61 250 c 256,44,45
 61 230 61 230 52 215 c 0,46,47
 43 201 43 201 30 200 c 1,48,-1
 30 200 l 1,32,33
30 300 m 1,49,50
 17 300 17 300 9 314 c 0,51,52
 0 329 0 329 0 350 c 256,53,54
 0 370 0 370 9 385 c 0,55,56
 18 399 18 399 30 400 c 256,57,58
 43 400 43 400 52 385 c 0,59,60
 61 371 61 371 61 350 c 256,61,62
 61 330 61 330 52 314 c 0,63,64
 43 300 43 300 30 300 c 1,65,-1
 30 300 l 1,49,50
91 300 m 1,66,67
 78 300 78 300 69 314 c 0,68,69
 60.9 327.5 60.9 327.5 60.9 345.86 c 0,70,71
 60.9 369.8125 60.9 369.8125 69 385 c 256,72,73
 78 399 78 399 91 400 c 0,74,75
 104 400 104 400 112 385 c 256,76,77
 121 371 121 371 121 350 c 256,78,79
 121 330 121 330 112 314 c 0,80,81
 103 300 103 300 91 300 c 1,82,-1
 91 300 l 1,66,67
152 300 m 1,83,84
 139 300 139 300 130 314 c 0,85,86
 121 329 121 329 121 350 c 256,87,88
 121 370 121 370 130 385 c 0,89,90
 140 399 140 399 152 400 c 256,91,92
 165 400 165 400 173 385 c 0,93,94
 182 371 182 371 182 350 c 256,95,96
 182 330 182 330 173 314 c 0,97,98
 164 300 164 300 152 300 c 1,99,-1
 152 300 l 1,83,84
212 300 m 1,100,101
 198 300 198 300 190 314 c 0,102,103
 181.9 327.5 181.9 327.5 181.9 345.86 c 0,104,105
 181.9 369.8125 181.9 369.8125 190 385 c 0,106,107
 199 399 199 399 212 400 c 0,108,109
 225 400 225 400 233 385 c 256,110,111
 242 371 242 371 242 350 c 256,112,113
 242 330 242 330 233 314 c 0,114,115
 224 300 224 300 212 300 c 1,116,-1
 212 300 l 1,100,101
30 400 m 1,117,118
 17 400 17 400 9 415 c 0,119,120
 0 429 0 429 0 450 c 0,121,122
 0 470 0 470 9 485 c 0,123,124
 18 499 18 499 30 500 c 256,125,126
 43 500 43 500 52 485 c 0,127,128
 61 471 61 471 61 450 c 128,-1,129
 61 429 61 429 52 415 c 128,-1,130
 43 401 43 401 30 400 c 1,131,-1
 30 400 l 1,117,118
30 500 m 1,132,133
 17 500 17 500 9 515 c 0,134,135
 0 529 0 529 0 550 c 256,136,137
 0 570 0 570 9 586 c 0,138,139
 18 600 18 600 30 600 c 256,140,141
 43 600 43 600 52 586 c 0,142,143
 61 571 61 571 61 550 c 256,144,145
 61 530 61 530 52 515 c 0,146,147
 43 501 43 501 30 500 c 1,148,-1
 30 500 l 1,132,133
30 600 m 1,149,150
 17 600 17 600 9 614 c 0,151,152
 0 629 0 629 0 650 c 256,153,154
 0 670 0 670 9 685 c 0,155,156
 18 699 18 699 30 700 c 256,157,158
 43 700 43 700 52 685 c 0,159,160
 61 671 61 671 61 650 c 256,161,162
 61 630 61 630 52 614 c 0,163,164
 43 600 43 600 30 600 c 1,165,-1
 30 600 l 1,149,150
91 600 m 1,166,167
 78 600 78 600 69 614 c 0,168,169
 60.9 627.5 60.9 627.5 60.9 645.86 c 0,170,171
 60.9 669.8125 60.9 669.8125 69 685 c 256,172,173
 78 699 78 699 91 700 c 0,174,175
 104 700 104 700 112 685 c 256,176,177
 121 671 121 671 121 650 c 256,178,179
 121 630 121 630 112 614 c 0,180,181
 103 600 103 600 91 600 c 1,182,-1
 91 600 l 1,166,167
152 600 m 1,183,184
 139 600 139 600 130 614 c 0,185,186
 121 629 121 629 121 650 c 256,187,188
 121 670 121 670 130 685 c 0,189,190
 140 699 140 699 152 700 c 256,191,192
 165 700 165 700 173 685 c 0,193,194
 182 671 182 671 182 650 c 256,195,196
 182 630 182 630 173 614 c 0,197,198
 164 600 164 600 152 600 c 1,199,-1
 152 600 l 1,183,184
212 600 m 1,200,201
 198 600 198 600 190 614 c 0,202,203
 181.9 627.5 181.9 627.5 181.9 645.86 c 0,204,205
 181.9 669.8125 181.9 669.8125 190 685 c 0,206,207
 199 699 199 699 212 700 c 0,208,209
 225 700 225 700 233 685 c 256,210,211
 242 671 242 671 242 650 c 256,212,213
 242 630 242 630 233 614 c 0,214,215
 224 600 224 600 212 600 c 1,216,-1
 212 600 l 1,200,201
273 600 m 1,217,218
 260 600 260 600 251 614 c 0,219,220
 242 629 242 629 242 650 c 256,221,222
 242 670 242 670 251 685 c 256,223,224
 260 699 260 699 273 700 c 0,225,226
 286 700 286 700 294 685 c 0,227,228
 303 671 303 671 303 650 c 256,229,230
 303 630 303 630 294 614 c 0,231,232
 285 600 285 600 273 600 c 1,233,-1
 273 600 l 1,217,218
EndSplineSet
Validated: 524293
EndChar

StartChar: G
Encoding: 71 71 39
Width: 363
VWidth: 599
Flags: W
LayerCount: 2
Fore
SplineSet
61 0 m 1,0,1
 48 0 48 0 39 14 c 0,2,3
 30 29 30 29 30 50 c 256,4,5
 30 70 30 70 39 85 c 0,6,7
 48 99 48 99 61 100 c 256,8,9
 74 100 74 100 82 85 c 0,10,11
 91 71 91 71 91 50 c 256,12,13
 91 30 91 30 82 14 c 0,14,15
 73 0 73 0 61 0 c 1,16,-1
 61 0 l 1,0,1
121 0 m 1,17,18
 108 0 108 0 100 14 c 0,19,20
 91 29 91 29 91 50 c 256,21,22
 91 70 91 70 100 85 c 0,23,24
 109 99 109 99 121 100 c 0,25,26
 134 100 134 100 142 85 c 256,27,28
 152 71 152 71 152 50 c 256,29,30
 152 30 152 30 142 14 c 0,31,32
 133 0 133 0 121 0 c 1,33,-1
 121 0 l 1,17,18
182 0 m 1,34,35
 169 0 169 0 160 14 c 0,36,37
 152 29 152 29 152 50 c 256,38,39
 152 70 152 70 160 85 c 256,40,41
 169 99 169 99 182 100 c 0,42,43
 195 100 195 100 203 85 c 0,44,45
 212 71 212 71 212 50 c 256,46,47
 212 30 212 30 203 14 c 0,48,49
 194 0 194 0 182 0 c 1,50,-1
 182 0 l 1,34,35
242 0 m 1,51,52
 229 0 229 0 221 14 c 0,53,54
 212 29 212 29 212 50 c 256,55,56
 212 70 212 70 221 85 c 0,57,58
 230 99 230 99 242 100 c 256,59,60
 255 100 255 100 264 85 c 0,61,62
 273 71 273 71 273 50 c 256,63,64
 273 30 273 30 264 14 c 0,65,66
 255 0 255 0 242 0 c 1,67,-1
 242 0 l 1,51,52
30 100 m 1,68,69
 17 100 17 100 9 115 c 0,70,71
 0 129 0 129 0 150 c 0,72,73
 0 170 0 170 9 185 c 0,74,75
 18 199 18 199 30 200 c 256,76,77
 43 200 43 200 52 185 c 0,78,79
 61 171 61 171 61 150 c 128,-1,80
 61 129 61 129 52 115 c 128,-1,81
 43 101 43 101 30 100 c 1,82,-1
 30 100 l 1,68,69
273 100 m 1,83,84
 260 100 260 100 251 115 c 256,85,86
 242 129 242 129 242 150 c 0,87,88
 242 170 242 170 251 185 c 256,89,90
 260 199 260 199 273 200 c 0,91,92
 286 200 286 200 294 185 c 0,93,94
 303 171 303 171 303 150 c 128,-1,95
 303 129 303 129 294 115 c 128,-1,96
 285 101 285 101 273 100 c 1,97,-1
 273 100 l 1,83,84
30 200 m 1,98,99
 17 200 17 200 9 215 c 0,100,101
 0 229 0 229 0 250 c 256,102,103
 0 270 0 270 9 286 c 0,104,105
 18 300 18 300 30 300 c 256,106,107
 43 300 43 300 52 286 c 0,108,109
 61 271 61 271 61 250 c 256,110,111
 61 230 61 230 52 215 c 0,112,113
 43 201 43 201 30 200 c 1,114,-1
 30 200 l 1,98,99
273 200 m 1,115,116
 260 200 260 200 251 215 c 256,117,118
 242 229 242 229 242 250 c 256,119,120
 242 270 242 270 251 286 c 0,121,122
 260 300 260 300 273 300 c 128,-1,123
 286 300 286 300 294 286 c 0,124,125
 303 271 303 271 303 250 c 256,126,127
 303 230 303 230 294 215 c 0,128,129
 285 201 285 201 273 200 c 1,130,-1
 273 200 l 1,115,116
30 300 m 1,131,132
 17 300 17 300 9 314 c 0,133,134
 0 329 0 329 0 350 c 256,135,136
 0 370 0 370 9 385 c 0,137,138
 18 399 18 399 30 400 c 256,139,140
 43 400 43 400 52 385 c 0,141,142
 61 371 61 371 61 350 c 256,143,144
 61 330 61 330 52 314 c 0,145,146
 43 300 43 300 30 300 c 1,147,-1
 30 300 l 1,131,132
212 300 m 1,148,149
 198 300 198 300 190 314 c 0,150,151
 181.9 327.5 181.9 327.5 181.9 345.86 c 0,152,153
 181.9 369.8125 181.9 369.8125 190 385 c 0,154,155
 199 399 199 399 212 400 c 0,156,157
 225 400 225 400 233 385 c 256,158,159
 242 371 242 371 242 350 c 256,160,161
 242 330 242 330 233 314 c 0,162,163
 224 300 224 300 212 300 c 1,164,-1
 212 300 l 1,148,149
273 300 m 1,165,166
 260 300 260 300 251 314 c 0,167,168
 242 329 242 329 242 350 c 256,169,170
 242 370 242 370 251 385 c 256,171,172
 260 399 260 399 273 400 c 0,173,174
 286 400 286 400 294 385 c 0,175,176
 303 371 303 371 303 350 c 256,177,178
 303 330 303 330 294 314 c 0,179,180
 285 300 285 300 273 300 c 1,181,-1
 273 300 l 1,165,166
30 400 m 1,182,183
 17 400 17 400 9 415 c 0,184,185
 0 429 0 429 0 450 c 0,186,187
 0 470 0 470 9 485 c 0,188,189
 18 499 18 499 30 500 c 256,190,191
 43 500 43 500 52 485 c 0,192,193
 61 471 61 471 61 450 c 128,-1,194
 61 429 61 429 52 415 c 128,-1,195
 43 401 43 401 30 400 c 1,196,-1
 30 400 l 1,182,183
30 500 m 1,197,198
 17 500 17 500 9 515 c 0,199,200
 0 529 0 529 0 550 c 256,201,202
 0 570 0 570 9 586 c 0,203,204
 18 600 18 600 30 600 c 256,205,206
 43 600 43 600 52 586 c 0,207,208
 61 571 61 571 61 550 c 256,209,210
 61 530 61 530 52 515 c 0,211,212
 43 501 43 501 30 500 c 1,213,-1
 30 500 l 1,197,198
273 500 m 1,214,215
 260 500 260 500 251 515 c 256,216,217
 242 529 242 529 242 550 c 256,218,219
 242 570 242 570 251 586 c 0,220,221
 260 600 260 600 273 600 c 128,-1,222
 286 600 286 600 294 586 c 0,223,224
 303 571 303 571 303 550 c 256,225,226
 303 530 303 530 294 515 c 0,227,228
 285 501 285 501 273 500 c 1,229,-1
 273 500 l 1,214,215
61 600 m 1,230,231
 48 600 48 600 39 614 c 0,232,233
 30 629 30 629 30 650 c 256,234,235
 30 670 30 670 39 685 c 0,236,237
 48 699 48 699 61 700 c 256,238,239
 74 700 74 700 82 685 c 0,240,241
 91 671 91 671 91 650 c 256,242,243
 91 630 91 630 82 614 c 0,244,245
 73 600 73 600 61 600 c 1,246,-1
 61 600 l 1,230,231
121 600 m 1,247,248
 108 600 108 600 100 614 c 0,249,250
 91 629 91 629 91 650 c 256,251,252
 91 670 91 670 100 685 c 0,253,254
 109 699 109 699 121 700 c 0,255,256
 134 700 134 700 142 685 c 256,257,258
 152 671 152 671 152 650 c 256,259,260
 152 630 152 630 142 614 c 0,261,262
 133 600 133 600 121 600 c 1,263,-1
 121 600 l 1,247,248
182 600 m 1,264,265
 169 600 169 600 160 614 c 0,266,267
 152 629 152 629 152 650 c 256,268,269
 152 670 152 670 160 685 c 256,270,271
 169 699 169 699 182 700 c 0,272,273
 195 700 195 700 203 685 c 0,274,275
 212 671 212 671 212 650 c 256,276,277
 212 630 212 630 203 614 c 0,278,279
 194 600 194 600 182 600 c 1,280,-1
 182 600 l 1,264,265
242 600 m 1,281,282
 229 600 229 600 221 614 c 0,283,284
 212 629 212 629 212 650 c 256,285,286
 212 670 212 670 221 685 c 0,287,288
 230 699 230 699 242 700 c 256,289,290
 255 700 255 700 264 685 c 0,291,292
 273 671 273 671 273 650 c 256,293,294
 273 630 273 630 264 614 c 0,295,296
 255 600 255 600 242 600 c 1,297,-1
 242 600 l 1,281,282
EndSplineSet
Validated: 524293
EndChar

StartChar: H
Encoding: 72 72 40
Width: 363
VWidth: 599
Flags: W
LayerCount: 2
Fore
SplineSet
30 0 m 1,0,1
 17 0 17 0 9 14 c 0,2,3
 0 29 0 29 0 50 c 256,4,5
 0 70 0 70 9 85 c 0,6,7
 18 99 18 99 30 100 c 256,8,9
 43 100 43 100 52 85 c 0,10,11
 61 71 61 71 61 50 c 256,12,13
 61 30 61 30 52 14 c 0,14,15
 43 0 43 0 30 0 c 1,16,-1
 30 0 l 1,0,1
273 0 m 1,17,18
 260 0 260 0 251 14 c 0,19,20
 242 29 242 29 242 50 c 256,21,22
 242 70 242 70 251 85 c 256,23,24
 260 99 260 99 273 100 c 0,25,26
 286 100 286 100 294 85 c 0,27,28
 303 71 303 71 303 50 c 256,29,30
 303 30 303 30 294 14 c 0,31,32
 285 0 285 0 273 0 c 1,33,-1
 273 0 l 1,17,18
30 100 m 1,34,35
 17 100 17 100 9 115 c 0,36,37
 0 129 0 129 0 150 c 0,38,39
 0 170 0 170 9 185 c 0,40,41
 18 199 18 199 30 200 c 256,42,43
 43 200 43 200 52 185 c 0,44,45
 61 171 61 171 61 150 c 128,-1,46
 61 129 61 129 52 115 c 128,-1,47
 43 101 43 101 30 100 c 1,48,-1
 30 100 l 1,34,35
273 100 m 1,49,50
 260 100 260 100 251 115 c 256,51,52
 242 129 242 129 242 150 c 0,53,54
 242 170 242 170 251 185 c 256,55,56
 260 199 260 199 273 200 c 0,57,58
 286 200 286 200 294 185 c 0,59,60
 303 171 303 171 303 150 c 128,-1,61
 303 129 303 129 294 115 c 128,-1,62
 285 101 285 101 273 100 c 1,63,-1
 273 100 l 1,49,50
30 200 m 1,64,65
 17 200 17 200 9 215 c 0,66,67
 0 229 0 229 0 250 c 256,68,69
 0 270 0 270 9 286 c 0,70,71
 18 300 18 300 30 300 c 256,72,73
 43 300 43 300 52 286 c 0,74,75
 61 271 61 271 61 250 c 256,76,77
 61 230 61 230 52 215 c 0,78,79
 43 201 43 201 30 200 c 1,80,-1
 30 200 l 1,64,65
273 200 m 1,81,82
 260 200 260 200 251 215 c 256,83,84
 242 229 242 229 242 250 c 256,85,86
 242 270 242 270 251 286 c 0,87,88
 260 300 260 300 273 300 c 128,-1,89
 286 300 286 300 294 286 c 0,90,91
 303 271 303 271 303 250 c 256,92,93
 303 230 303 230 294 215 c 0,94,95
 285 201 285 201 273 200 c 1,96,-1
 273 200 l 1,81,82
30 300 m 1,97,98
 17 300 17 300 9 314 c 0,99,100
 0 329 0 329 0 350 c 256,101,102
 0 370 0 370 9 385 c 0,103,104
 18 399 18 399 30 400 c 256,105,106
 43 400 43 400 52 385 c 0,107,108
 61 371 61 371 61 350 c 256,109,110
 61 330 61 330 52 314 c 0,111,112
 43 300 43 300 30 300 c 1,113,-1
 30 300 l 1,97,98
91 300 m 1,114,115
 78 300 78 300 69 314 c 0,116,117
 60.9 327.5 60.9 327.5 60.9 345.86 c 0,118,119
 60.9 369.8125 60.9 369.8125 69 385 c 256,120,121
 78 399 78 399 91 400 c 0,122,123
 104 400 104 400 112 385 c 256,124,125
 121 371 121 371 121 350 c 256,126,127
 121 330 121 330 112 314 c 0,128,129
 103 300 103 300 91 300 c 1,130,-1
 91 300 l 1,114,115
152 300 m 1,131,132
 139 300 139 300 130 314 c 0,133,134
 121 329 121 329 121 350 c 256,135,136
 121 370 121 370 130 385 c 0,137,138
 140 399 140 399 152 400 c 256,139,140
 165 400 165 400 173 385 c 0,141,142
 182 371 182 371 182 350 c 256,143,144
 182 330 182 330 173 314 c 0,145,146
 164 300 164 300 152 300 c 1,147,-1
 152 300 l 1,131,132
212 300 m 1,148,149
 198 300 198 300 190 314 c 0,150,151
 181.9 327.5 181.9 327.5 181.9 345.86 c 0,152,153
 181.9 369.8125 181.9 369.8125 190 385 c 0,154,155
 199 399 199 399 212 400 c 0,156,157
 225 400 225 400 233 385 c 256,158,159
 242 371 242 371 242 350 c 256,160,161
 242 330 242 330 233 314 c 0,162,163
 224 300 224 300 212 300 c 1,164,-1
 212 300 l 1,148,149
273 300 m 1,165,166
 260 300 260 300 251 314 c 0,167,168
 242 329 242 329 242 350 c 256,169,170
 242 370 242 370 251 385 c 256,171,172
 260 399 260 399 273 400 c 0,173,174
 286 400 286 400 294 385 c 0,175,176
 303 371 303 371 303 350 c 256,177,178
 303 330 303 330 294 314 c 0,179,180
 285 300 285 300 273 300 c 1,181,-1
 273 300 l 1,165,166
30 400 m 1,182,183
 17 400 17 400 9 415 c 0,184,185
 0 429 0 429 0 450 c 0,186,187
 0 470 0 470 9 485 c 0,188,189
 18 499 18 499 30 500 c 256,190,191
 43 500 43 500 52 485 c 0,192,193
 61 471 61 471 61 450 c 128,-1,194
 61 429 61 429 52 415 c 128,-1,195
 43 401 43 401 30 400 c 1,196,-1
 30 400 l 1,182,183
273 400 m 1,197,198
 260 400 260 400 251 415 c 256,199,200
 242 429 242 429 242 450 c 0,201,202
 242 470 242 470 251 485 c 256,203,204
 260 499 260 499 273 500 c 0,205,206
 286 500 286 500 294 485 c 0,207,208
 303 471 303 471 303 450 c 128,-1,209
 303 429 303 429 294 415 c 128,-1,210
 285 401 285 401 273 400 c 1,211,-1
 273 400 l 1,197,198
30 500 m 1,212,213
 17 500 17 500 9 515 c 0,214,215
 0 529 0 529 0 550 c 256,216,217
 0 570 0 570 9 586 c 0,218,219
 18 600 18 600 30 600 c 256,220,221
 43 600 43 600 52 586 c 0,222,223
 61 571 61 571 61 550 c 256,224,225
 61 530 61 530 52 515 c 0,226,227
 43 501 43 501 30 500 c 1,228,-1
 30 500 l 1,212,213
273 500 m 1,229,230
 260 500 260 500 251 515 c 256,231,232
 242 529 242 529 242 550 c 256,233,234
 242 570 242 570 251 586 c 0,235,236
 260 600 260 600 273 600 c 128,-1,237
 286 600 286 600 294 586 c 0,238,239
 303 571 303 571 303 550 c 256,240,241
 303 530 303 530 294 515 c 0,242,243
 285 501 285 501 273 500 c 1,244,-1
 273 500 l 1,229,230
30 600 m 1,245,246
 17 600 17 600 9 614 c 0,247,248
 0 629 0 629 0 650 c 256,249,250
 0 670 0 670 9 685 c 0,251,252
 18 699 18 699 30 700 c 256,253,254
 43 700 43 700 52 685 c 0,255,256
 61 671 61 671 61 650 c 256,257,258
 61 630 61 630 52 614 c 0,259,260
 43 600 43 600 30 600 c 1,261,-1
 30 600 l 1,245,246
273 600 m 1,262,263
 260 600 260 600 251 614 c 0,264,265
 242 629 242 629 242 650 c 256,266,267
 242 670 242 670 251 685 c 256,268,269
 260 699 260 699 273 700 c 0,270,271
 286 700 286 700 294 685 c 0,272,273
 303 671 303 671 303 650 c 256,274,275
 303 630 303 630 294 614 c 0,276,277
 285 600 285 600 273 600 c 1,278,-1
 273 600 l 1,262,263
EndSplineSet
Validated: 524293
EndChar

StartChar: I
Encoding: 73 73 41
Width: 363
VWidth: 599
Flags: W
LayerCount: 2
Fore
SplineSet
91 0 m 1,0,1
 78 0 78 0 69 14 c 0,2,3
 60.9 27.5 60.9 27.5 60.9 45.86 c 0,4,5
 60.9 69.8125 60.9 69.8125 69 85 c 256,6,7
 78 99 78 99 91 100 c 0,8,9
 104 100 104 100 112 85 c 256,10,11
 121 71 121 71 121 50 c 256,12,13
 121 30 121 30 112 14 c 0,14,15
 103 0 103 0 91 0 c 1,16,-1
 91 0 l 1,0,1
152 0 m 1,17,18
 139 0 139 0 130 14 c 0,19,20
 121 29 121 29 121 50 c 256,21,22
 121 70 121 70 130 85 c 0,23,24
 140 99 140 99 152 100 c 256,25,26
 165 100 165 100 173 85 c 0,27,28
 182 71 182 71 182 50 c 256,29,30
 182 30 182 30 173 14 c 0,31,32
 164 0 164 0 152 0 c 1,33,-1
 152 0 l 1,17,18
212 0 m 1,34,35
 198 0 198 0 190 14 c 0,36,37
 181.9 27.5 181.9 27.5 181.9 45.86 c 0,38,39
 181.9 69.8125 181.9 69.8125 190 85 c 0,40,41
 199 99 199 99 212 100 c 0,42,43
 225 100 225 100 233 85 c 256,44,45
 242 71 242 71 242 50 c 256,46,47
 242 30 242 30 233 14 c 0,48,49
 224 0 224 0 212 0 c 1,50,-1
 212 0 l 1,34,35
152 100 m 1,51,52
 139 100 139 100 130 115 c 0,53,54
 121 129 121 129 121 150 c 0,55,56
 121 170 121 170 130 185 c 0,57,58
 140 199 140 199 152 200 c 256,59,60
 165 200 165 200 173 185 c 0,61,62
 182 171 182 171 182 150 c 128,-1,63
 182 129 182 129 173 115 c 128,-1,64
 164 101 164 101 152 100 c 1,65,-1
 152 100 l 1,51,52
152 200 m 1,66,67
 139 200 139 200 130 215 c 0,68,69
 121 229 121 229 121 250 c 256,70,71
 121 270 121 270 130 286 c 0,72,73
 140 300 140 300 152 300 c 256,74,75
 165 300 165 300 173 286 c 0,76,77
 182 271 182 271 182 250 c 256,78,79
 182 230 182 230 173 215 c 0,80,81
 164 201 164 201 152 200 c 1,82,-1
 152 200 l 1,66,67
152 300 m 1,83,84
 139 300 139 300 130 314 c 0,85,86
 121 329 121 329 121 350 c 256,87,88
 121 370 121 370 130 385 c 0,89,90
 140 399 140 399 152 400 c 256,91,92
 165 400 165 400 173 385 c 0,93,94
 182 371 182 371 182 350 c 256,95,96
 182 330 182 330 173 314 c 0,97,98
 164 300 164 300 152 300 c 1,99,-1
 152 300 l 1,83,84
152 400 m 1,100,101
 139 400 139 400 130 415 c 0,102,103
 121 429 121 429 121 450 c 0,104,105
 121 470 121 470 130 485 c 0,106,107
 140 499 140 499 152 500 c 256,108,109
 165 500 165 500 173 485 c 0,110,111
 182 471 182 471 182 450 c 128,-1,112
 182 429 182 429 173 415 c 128,-1,113
 164 401 164 401 152 400 c 1,114,-1
 152 400 l 1,100,101
152 500 m 1,115,116
 139 500 139 500 130 515 c 0,117,118
 121 529 121 529 121 550 c 256,119,120
 121 570 121 570 130 586 c 0,121,122
 140 600 140 600 152 600 c 256,123,124
 165 600 165 600 173 586 c 0,125,126
 182 571 182 571 182 550 c 256,127,128
 182 530 182 530 173 515 c 0,129,130
 164 501 164 501 152 500 c 1,131,-1
 152 500 l 1,115,116
91 600 m 1,132,133
 78 600 78 600 69 614 c 0,134,135
 60.9 627.5 60.9 627.5 60.9 645.86 c 0,136,137
 60.9 669.8125 60.9 669.8125 69 685 c 256,138,139
 78 699 78 699 91 700 c 0,140,141
 104 700 104 700 112 685 c 256,142,143
 121 671 121 671 121 650 c 256,144,145
 121 630 121 630 112 614 c 0,146,147
 103 600 103 600 91 600 c 1,148,-1
 91 600 l 1,132,133
152 600 m 1,149,150
 139 600 139 600 130 614 c 0,151,152
 121 629 121 629 121 650 c 256,153,154
 121 670 121 670 130 685 c 0,155,156
 140 699 140 699 152 700 c 256,157,158
 165 700 165 700 173 685 c 0,159,160
 182 671 182 671 182 650 c 256,161,162
 182 630 182 630 173 614 c 0,163,164
 164 600 164 600 152 600 c 1,165,-1
 152 600 l 1,149,150
212 600 m 1,166,167
 198 600 198 600 190 614 c 0,168,169
 181.9 627.5 181.9 627.5 181.9 645.86 c 0,170,171
 181.9 669.8125 181.9 669.8125 190 685 c 0,172,173
 199 699 199 699 212 700 c 0,174,175
 225 700 225 700 233 685 c 256,176,177
 242 671 242 671 242 650 c 256,178,179
 242 630 242 630 233 614 c 0,180,181
 224 600 224 600 212 600 c 1,182,-1
 212 600 l 1,166,167
EndSplineSet
Validated: 524293
EndChar

StartChar: J
Encoding: 74 74 42
Width: 363
VWidth: 599
Flags: W
LayerCount: 2
Fore
SplineSet
61 0 m 1,0,1
 48 0 48 0 39 14 c 0,2,3
 30 29 30 29 30 50 c 256,4,5
 30 70 30 70 39 85 c 0,6,7
 48 99 48 99 61 100 c 256,8,9
 74 100 74 100 82 85 c 0,10,11
 91 71 91 71 91 50 c 256,12,13
 91 30 91 30 82 14 c 0,14,15
 73 0 73 0 61 0 c 1,16,-1
 61 0 l 1,0,1
121 0 m 1,17,18
 108 0 108 0 100 14 c 0,19,20
 91 29 91 29 91 50 c 256,21,22
 91 70 91 70 100 85 c 0,23,24
 109 99 109 99 121 100 c 0,25,26
 134 100 134 100 142 85 c 256,27,28
 152 71 152 71 152 50 c 256,29,30
 152 30 152 30 142 14 c 0,31,32
 133 0 133 0 121 0 c 1,33,-1
 121 0 l 1,17,18
182 0 m 1,34,35
 169 0 169 0 160 14 c 0,36,37
 152 29 152 29 152 50 c 256,38,39
 152 70 152 70 160 85 c 256,40,41
 169 99 169 99 182 100 c 0,42,43
 195 100 195 100 203 85 c 0,44,45
 212 71 212 71 212 50 c 256,46,47
 212 30 212 30 203 14 c 0,48,49
 194 0 194 0 182 0 c 1,50,-1
 182 0 l 1,34,35
30 100 m 1,51,52
 17 100 17 100 9 115 c 0,53,54
 0 129 0 129 0 150 c 0,55,56
 0 170 0 170 9 185 c 0,57,58
 18 199 18 199 30 200 c 256,59,60
 43 200 43 200 52 185 c 0,61,62
 61 171 61 171 61 150 c 128,-1,63
 61 129 61 129 52 115 c 128,-1,64
 43 101 43 101 30 100 c 1,65,-1
 30 100 l 1,51,52
212 100 m 1,66,67
 198 100 198 100 190 115 c 0,68,69
 181.9 127.6 181.9 127.6 181.9 145.87 c 0,70,71
 181.9 169.8125 181.9 169.8125 190 185 c 0,72,73
 199 199 199 199 212 200 c 0,74,75
 225 200 225 200 233 185 c 256,76,77
 242 171 242 171 242 150 c 128,-1,78
 242 129 242 129 233 115 c 256,79,80
 224 101 224 101 212 100 c 1,81,-1
 212 100 l 1,66,67
212 200 m 1,82,83
 198 200 198 200 190 215 c 0,84,85
 181.9 227.6 181.9 227.6 181.9 245.87 c 0,86,87
 181.9 269.8 181.9 269.8 190 286 c 0,88,89
 199 300 199 300 212 300 c 128,-1,90
 225 300 225 300 233 286 c 0,91,92
 242 271 242 271 242 250 c 256,93,94
 242 230 242 230 233 215 c 256,95,96
 224 201 224 201 212 200 c 1,97,-1
 212 200 l 1,82,83
212 300 m 1,98,99
 198 300 198 300 190 314 c 0,100,101
 181.9 327.5 181.9 327.5 181.9 345.86 c 0,102,103
 181.9 369.8125 181.9 369.8125 190 385 c 0,104,105
 199 399 199 399 212 400 c 0,106,107
 225 400 225 400 233 385 c 256,108,109
 242 371 242 371 242 350 c 256,110,111
 242 330 242 330 233 314 c 0,112,113
 224 300 224 300 212 300 c 1,114,-1
 212 300 l 1,98,99
212 400 m 1,115,116
 198 400 198 400 190 415 c 0,117,118
 181.9 427.6 181.9 427.6 181.9 445.87 c 0,119,120
 181.9 469.8125 181.9 469.8125 190 485 c 0,121,122
 199 499 199 499 212 500 c 0,123,124
 225 500 225 500 233 485 c 256,125,126
 242 471 242 471 242 450 c 128,-1,127
 242 429 242 429 233 415 c 256,128,129
 224 401 224 401 212 400 c 1,130,-1
 212 400 l 1,115,116
212 500 m 1,131,132
 198 500 198 500 190 515 c 0,133,134
 181.9 527.6 181.9 527.6 181.9 545.87 c 0,135,136
 181.9 569.8 181.9 569.8 190 586 c 0,137,138
 199 600 199 600 212 600 c 128,-1,139
 225 600 225 600 233 586 c 0,140,141
 242 571 242 571 242 550 c 256,142,143
 242 530 242 530 233 515 c 256,144,145
 224 501 224 501 212 500 c 1,146,-1
 212 500 l 1,131,132
152 600 m 1,147,148
 139 600 139 600 130 614 c 0,149,150
 121 629 121 629 121 650 c 256,151,152
 121 670 121 670 130 685 c 0,153,154
 140 699 140 699 152 700 c 256,155,156
 165 700 165 700 173 685 c 0,157,158
 182 671 182 671 182 650 c 256,159,160
 182 630 182 630 173 614 c 0,161,162
 164 600 164 600 152 600 c 1,163,-1
 152 600 l 1,147,148
212 600 m 1,164,165
 198 600 198 600 190 614 c 0,166,167
 181.9 627.5 181.9 627.5 181.9 645.86 c 0,168,169
 181.9 669.8125 181.9 669.8125 190 685 c 0,170,171
 199 699 199 699 212 700 c 0,172,173
 225 700 225 700 233 685 c 256,174,175
 242 671 242 671 242 650 c 256,176,177
 242 630 242 630 233 614 c 0,178,179
 224 600 224 600 212 600 c 1,180,-1
 212 600 l 1,164,165
273 600 m 1,181,182
 260 600 260 600 251 614 c 0,183,184
 242 629 242 629 242 650 c 256,185,186
 242 670 242 670 251 685 c 256,187,188
 260 699 260 699 273 700 c 0,189,190
 286 700 286 700 294 685 c 0,191,192
 303 671 303 671 303 650 c 256,193,194
 303 630 303 630 294 614 c 0,195,196
 285 600 285 600 273 600 c 1,197,-1
 273 600 l 1,181,182
EndSplineSet
Validated: 524293
EndChar

StartChar: K
Encoding: 75 75 43
Width: 363
VWidth: 599
Flags: W
LayerCount: 2
Fore
SplineSet
30 0 m 1,0,1
 17 0 17 0 9 14 c 0,2,3
 0 29 0 29 0 50 c 256,4,5
 0 70 0 70 9 85 c 0,6,7
 18 99 18 99 30 100 c 256,8,9
 43 100 43 100 52 85 c 0,10,11
 61 71 61 71 61 50 c 256,12,13
 61 30 61 30 52 14 c 0,14,15
 43 0 43 0 30 0 c 1,16,-1
 30 0 l 1,0,1
273 0 m 1,17,18
 260 0 260 0 251 14 c 0,19,20
 242 29 242 29 242 50 c 256,21,22
 242 70 242 70 251 85 c 256,23,24
 260 99 260 99 273 100 c 0,25,26
 286 100 286 100 294 85 c 0,27,28
 303 71 303 71 303 50 c 256,29,30
 303 30 303 30 294 14 c 0,31,32
 285 0 285 0 273 0 c 1,33,-1
 273 0 l 1,17,18
30 100 m 1,34,35
 17 100 17 100 9 115 c 0,36,37
 0 129 0 129 0 150 c 0,38,39
 0 170 0 170 9 185 c 0,40,41
 18 199 18 199 30 200 c 256,42,43
 43 200 43 200 52 185 c 0,44,45
 61 171 61 171 61 150 c 128,-1,46
 61 129 61 129 52 115 c 128,-1,47
 43 101 43 101 30 100 c 1,48,-1
 30 100 l 1,34,35
242 100 m 1,49,50
 229 100 229 100 221 115 c 0,51,52
 212 129 212 129 212 150 c 0,53,54
 212 170 212 170 221 185 c 0,55,56
 230 199 230 199 242 200 c 256,57,58
 255 200 255 200 264 185 c 0,59,60
 273 171 273 171 273 150 c 128,-1,61
 273 129 273 129 264 115 c 128,-1,62
 255 101 255 101 242 100 c 1,63,-1
 242 100 l 1,49,50
30 200 m 1,64,65
 17 200 17 200 9 215 c 0,66,67
 0 229 0 229 0 250 c 256,68,69
 0 270 0 270 9 286 c 0,70,71
 18 300 18 300 30 300 c 256,72,73
 43 300 43 300 52 286 c 0,74,75
 61 271 61 271 61 250 c 256,76,77
 61 230 61 230 52 215 c 0,78,79
 43 201 43 201 30 200 c 1,80,-1
 30 200 l 1,64,65
212 200 m 1,81,82
 198 200 198 200 190 215 c 0,83,84
 181.9 227.6 181.9 227.6 181.9 245.87 c 0,85,86
 181.9 269.8 181.9 269.8 190 286 c 0,87,88
 199 300 199 300 212 300 c 128,-1,89
 225 300 225 300 233 286 c 0,90,91
 242 271 242 271 242 250 c 256,92,93
 242 230 242 230 233 215 c 256,94,95
 224 201 224 201 212 200 c 1,96,-1
 212 200 l 1,81,82
30 300 m 1,97,98
 17 300 17 300 9 314 c 0,99,100
 0 329 0 329 0 350 c 256,101,102
 0 370 0 370 9 385 c 0,103,104
 18 399 18 399 30 400 c 256,105,106
 43 400 43 400 52 385 c 0,107,108
 61 371 61 371 61 350 c 256,109,110
 61 330 61 330 52 314 c 0,111,112
 43 300 43 300 30 300 c 1,113,-1
 30 300 l 1,97,98
91 300 m 1,114,115
 78 300 78 300 69 314 c 0,116,117
 60.9 327.5 60.9 327.5 60.9 345.86 c 0,118,119
 60.9 369.8125 60.9 369.8125 69 385 c 256,120,121
 78 399 78 399 91 400 c 0,122,123
 104 400 104 400 112 385 c 256,124,125
 121 371 121 371 121 350 c 256,126,127
 121 330 121 330 112 314 c 0,128,129
 103 300 103 300 91 300 c 1,130,-1
 91 300 l 1,114,115
182 300 m 1,131,132
 169 300 169 300 160 314 c 0,133,134
 152 329 152 329 152 350 c 256,135,136
 152 370 152 370 160 385 c 256,137,138
 169 399 169 399 182 400 c 0,139,140
 195 400 195 400 203 385 c 0,141,142
 212 371 212 371 212 350 c 256,143,144
 212 330 212 330 203 314 c 0,145,146
 194 300 194 300 182 300 c 1,147,-1
 182 300 l 1,131,132
30 400 m 1,148,149
 17 400 17 400 9 415 c 0,150,151
 0 429 0 429 0 450 c 0,152,153
 0 470 0 470 9 485 c 0,154,155
 18 499 18 499 30 500 c 256,156,157
 43 500 43 500 52 485 c 0,158,159
 61 471 61 471 61 450 c 128,-1,160
 61 429 61 429 52 415 c 128,-1,161
 43 401 43 401 30 400 c 1,162,-1
 30 400 l 1,148,149
152 400 m 1,163,164
 139 400 139 400 130 415 c 0,165,166
 121 429 121 429 121 450 c 0,167,168
 121 470 121 470 130 485 c 0,169,170
 140 499 140 499 152 500 c 256,171,172
 165 500 165 500 173 485 c 0,173,174
 182 471 182 471 182 450 c 128,-1,175
 182 429 182 429 173 415 c 128,-1,176
 164 401 164 401 152 400 c 1,177,-1
 152 400 l 1,163,164
30 500 m 1,178,179
 17 500 17 500 9 515 c 0,180,181
 0 529 0 529 0 550 c 256,182,183
 0 570 0 570 9 586 c 0,184,185
 18 600 18 600 30 600 c 256,186,187
 43 600 43 600 52 586 c 0,188,189
 61 571 61 571 61 550 c 256,190,191
 61 530 61 530 52 515 c 0,192,193
 43 501 43 501 30 500 c 1,194,-1
 30 500 l 1,178,179
212 500 m 1,195,196
 198 500 198 500 190 515 c 0,197,198
 181.9 527.6 181.9 527.6 181.9 545.87 c 0,199,200
 181.9 569.8 181.9 569.8 190 586 c 0,201,202
 199 600 199 600 212 600 c 128,-1,203
 225 600 225 600 233 586 c 0,204,205
 242 571 242 571 242 550 c 256,206,207
 242 530 242 530 233 515 c 256,208,209
 224 501 224 501 212 500 c 1,210,-1
 212 500 l 1,195,196
30 600 m 1,211,212
 17 600 17 600 9 614 c 0,213,214
 0 629 0 629 0 650 c 256,215,216
 0 670 0 670 9 685 c 0,217,218
 18 699 18 699 30 700 c 256,219,220
 43 700 43 700 52 685 c 0,221,222
 61 671 61 671 61 650 c 256,223,224
 61 630 61 630 52 614 c 0,225,226
 43 600 43 600 30 600 c 1,227,-1
 30 600 l 1,211,212
273 600 m 1,228,229
 260 600 260 600 251 614 c 0,230,231
 242 629 242 629 242 650 c 256,232,233
 242 670 242 670 251 685 c 256,234,235
 260 699 260 699 273 700 c 0,236,237
 286 700 286 700 294 685 c 0,238,239
 303 671 303 671 303 650 c 256,240,241
 303 630 303 630 294 614 c 0,242,243
 285 600 285 600 273 600 c 1,244,-1
 273 600 l 1,228,229
EndSplineSet
Validated: 524293
EndChar

StartChar: L
Encoding: 76 76 44
Width: 363
VWidth: 599
Flags: W
LayerCount: 2
Fore
SplineSet
30 0 m 1,0,1
 17 0 17 0 9 14 c 0,2,3
 0 29 0 29 0 50 c 256,4,5
 0 70 0 70 9 85 c 0,6,7
 18 99 18 99 30 100 c 256,8,9
 43 100 43 100 52 85 c 0,10,11
 61 71 61 71 61 50 c 256,12,13
 61 30 61 30 52 14 c 0,14,15
 43 0 43 0 30 0 c 1,16,-1
 30 0 l 1,0,1
91 0 m 1,17,18
 78 0 78 0 69 14 c 0,19,20
 60.9 27.5 60.9 27.5 60.9 45.86 c 0,21,22
 60.9 69.8125 60.9 69.8125 69 85 c 256,23,24
 78 99 78 99 91 100 c 0,25,26
 104 100 104 100 112 85 c 256,27,28
 121 71 121 71 121 50 c 256,29,30
 121 30 121 30 112 14 c 0,31,32
 103 0 103 0 91 0 c 1,33,-1
 91 0 l 1,17,18
152 0 m 1,34,35
 139 0 139 0 130 14 c 0,36,37
 121 29 121 29 121 50 c 256,38,39
 121 70 121 70 130 85 c 0,40,41
 140 99 140 99 152 100 c 256,42,43
 165 100 165 100 173 85 c 0,44,45
 182 71 182 71 182 50 c 256,46,47
 182 30 182 30 173 14 c 0,48,49
 164 0 164 0 152 0 c 1,50,-1
 152 0 l 1,34,35
212 0 m 1,51,52
 198 0 198 0 190 14 c 0,53,54
 181.9 27.5 181.9 27.5 181.9 45.86 c 0,55,56
 181.9 69.8125 181.9 69.8125 190 85 c 0,57,58
 199 99 199 99 212 100 c 0,59,60
 225 100 225 100 233 85 c 256,61,62
 242 71 242 71 242 50 c 256,63,64
 242 30 242 30 233 14 c 0,65,66
 224 0 224 0 212 0 c 1,67,-1
 212 0 l 1,51,52
273 0 m 1,68,69
 260 0 260 0 251 14 c 0,70,71
 242 29 242 29 242 50 c 256,72,73
 242 70 242 70 251 85 c 256,74,75
 260 99 260 99 273 100 c 0,76,77
 286 100 286 100 294 85 c 0,78,79
 303 71 303 71 303 50 c 256,80,81
 303 30 303 30 294 14 c 0,82,83
 285 0 285 0 273 0 c 1,84,-1
 273 0 l 1,68,69
30 100 m 1,85,86
 17 100 17 100 9 115 c 0,87,88
 0 129 0 129 0 150 c 0,89,90
 0 170 0 170 9 185 c 0,91,92
 18 199 18 199 30 200 c 256,93,94
 43 200 43 200 52 185 c 0,95,96
 61 171 61 171 61 150 c 128,-1,97
 61 129 61 129 52 115 c 128,-1,98
 43 101 43 101 30 100 c 1,99,-1
 30 100 l 1,85,86
30 200 m 1,100,101
 17 200 17 200 9 215 c 0,102,103
 0 229 0 229 0 250 c 256,104,105
 0 270 0 270 9 286 c 0,106,107
 18 300 18 300 30 300 c 256,108,109
 43 300 43 300 52 286 c 0,110,111
 61 271 61 271 61 250 c 256,112,113
 61 230 61 230 52 215 c 0,114,115
 43 201 43 201 30 200 c 1,116,-1
 30 200 l 1,100,101
30 300 m 1,117,118
 17 300 17 300 9 314 c 0,119,120
 0 329 0 329 0 350 c 256,121,122
 0 370 0 370 9 385 c 0,123,124
 18 399 18 399 30 400 c 256,125,126
 43 400 43 400 52 385 c 0,127,128
 61 371 61 371 61 350 c 256,129,130
 61 330 61 330 52 314 c 0,131,132
 43 300 43 300 30 300 c 1,133,-1
 30 300 l 1,117,118
30 400 m 1,134,135
 17 400 17 400 9 415 c 0,136,137
 0 429 0 429 0 450 c 0,138,139
 0 470 0 470 9 485 c 0,140,141
 18 499 18 499 30 500 c 256,142,143
 43 500 43 500 52 485 c 0,144,145
 61 471 61 471 61 450 c 128,-1,146
 61 429 61 429 52 415 c 128,-1,147
 43 401 43 401 30 400 c 1,148,-1
 30 400 l 1,134,135
30 500 m 1,149,150
 17 500 17 500 9 515 c 0,151,152
 0 529 0 529 0 550 c 256,153,154
 0 570 0 570 9 586 c 0,155,156
 18 600 18 600 30 600 c 256,157,158
 43 600 43 600 52 586 c 0,159,160
 61 571 61 571 61 550 c 256,161,162
 61 530 61 530 52 515 c 0,163,164
 43 501 43 501 30 500 c 1,165,-1
 30 500 l 1,149,150
30 600 m 1,166,167
 17 600 17 600 9 614 c 0,168,169
 0 629 0 629 0 650 c 256,170,171
 0 670 0 670 9 685 c 0,172,173
 18 699 18 699 30 700 c 256,174,175
 43 700 43 700 52 685 c 0,176,177
 61 671 61 671 61 650 c 256,178,179
 61 630 61 630 52 614 c 0,180,181
 43 600 43 600 30 600 c 1,182,-1
 30 600 l 1,166,167
EndSplineSet
Validated: 524293
EndChar

StartChar: M
Encoding: 77 77 45
Width: 363
VWidth: 599
Flags: W
LayerCount: 2
Fore
SplineSet
30 0 m 5,0,1
 17 0 17 0 9 14 c 0,2,3
 0 29 0 29 0 50 c 256,4,5
 0 70 0 70 9 85 c 0,6,7
 18 99 18 99 30 100 c 256,8,9
 43 100 43 100 52 85 c 0,10,11
 61 71 61 71 61 50 c 256,12,13
 61 30 61 30 52 14 c 0,14,15
 43 0 43 0 30 0 c 1,16,-1
 30 0 l 5,0,1
273 0 m 1,17,18
 260 0 260 0 251 14 c 0,19,20
 242 29 242 29 242 50 c 256,21,22
 242 70 242 70 251 85 c 256,23,24
 260 99 260 99 273 100 c 0,25,26
 286 100 286 100 294 85 c 0,27,28
 303 71 303 71 303 50 c 256,29,30
 303 30 303 30 294 14 c 0,31,32
 285 0 285 0 273 0 c 1,33,-1
 273 0 l 1,17,18
30 100 m 1,34,35
 17 100 17 100 9 115 c 0,36,37
 0 129 0 129 0 150 c 0,38,39
 0 170 0 170 9 185 c 0,40,41
 18 199 18 199 30 200 c 256,42,43
 43 200 43 200 52 185 c 0,44,45
 61 171 61 171 61 150 c 128,-1,46
 61 129 61 129 52 114.5 c 128,-1,47
 43 100 43 100 30 100 c 1,48,-1
 30 100 l 1,34,35
273 100 m 1,49,50
 260 100 260 100 251 115 c 256,51,52
 242 129 242 129 242 150 c 0,53,54
 242 170 242 170 251 185 c 256,55,56
 260 199 260 199 272.5 199.5 c 128,-1,57
 285 200 285 200 294 185.5 c 128,-1,58
 303 171 303 171 303 150 c 128,-1,59
 303 129 303 129 294 114.5 c 128,-1,60
 285 100 285 100 273 100 c 1,61,-1
 273 100 l 1,49,50
30 200 m 1,62,63
 17 200 17 200 9 215 c 0,64,65
 0 229 0 229 0 250 c 256,66,67
 0 270 0 270 9 286 c 0,68,69
 18 300 18 300 30 300 c 256,70,71
 43 300 43 300 52 286 c 0,72,73
 61 271 61 271 61 250 c 256,74,75
 61 230 61 230 52 215 c 0,76,77
 43 201 43 201 30 200 c 1,78,-1
 30 200 l 1,62,63
273 200 m 1,79,80
 260 200 260 200 251 215 c 256,81,82
 242 229 242 229 242 250 c 256,83,84
 242 270 242 270 251 286 c 0,85,86
 260 300 260 300 272.5 300 c 128,-1,87
 285 300 285 300 294 286 c 0,88,89
 303 271 303 271 303 250 c 256,90,91
 303 230 303 230 294 215 c 0,92,93
 285 201 285 201 273 200 c 1,94,-1
 273 200 l 1,79,80
30 300 m 1,95,96
 17 300 17 300 9 314 c 0,97,98
 0 329 0 329 0 350 c 256,99,100
 0 370 0 370 9 385 c 0,101,102
 18 399 18 399 30 400 c 256,103,104
 43 400 43 400 52 385 c 0,105,106
 61 371 61 371 61 350 c 256,107,108
 61 330 61 330 52 314 c 0,109,110
 43 300 43 300 30 300 c 1,111,-1
 30 300 l 1,95,96
152 300 m 1,112,113
 139 300 139 300 130 314 c 0,114,115
 121 329 121 329 121 350 c 256,116,117
 121 370 121 370 130 385 c 0,118,119
 140 399 140 399 152 400 c 256,120,121
 165 400 165 400 173 385 c 0,122,123
 182 371 182 371 182 350 c 256,124,125
 182 330 182 330 173 314 c 0,126,127
 164 300 164 300 152 300 c 1,128,-1
 152 300 l 1,112,113
273 300 m 1,129,130
 260 300 260 300 251 314 c 0,131,132
 242 329 242 329 242 350 c 256,133,134
 242 370 242 370 251 385 c 256,135,136
 260 399 260 399 273 400 c 0,137,138
 286 400 286 400 294 385 c 0,139,140
 303 371 303 371 303 350 c 256,141,142
 303 330 303 330 294 314 c 0,143,144
 285 300 285 300 273 300 c 1,145,-1
 273 300 l 1,129,130
30 400 m 1,146,147
 17 400 17 400 9 415 c 0,148,149
 0 429 0 429 0 450 c 0,150,151
 0 470 0 470 9 485 c 0,152,153
 18 499 18 499 30 500 c 256,154,155
 43 500 43 500 52 485 c 0,156,157
 61 471 61 471 61 450 c 128,-1,158
 61 429 61 429 52 414.5 c 128,-1,159
 43 400 43 400 30 400 c 1,160,-1
 30 400 l 1,146,147
121 400 m 1,161,162
 108 400 108 400 100 415 c 0,163,164
 91 429 91 429 91 450 c 0,165,166
 91 470 91 470 100 485 c 0,167,168
 109 499 109 499 121.5 499.5 c 128,-1,169
 134 500 134 500 142 485 c 256,170,171
 151.523809524 470.185185185 151.523809524 470.185185185 151.523809524 448.015873016 c 0,172,173
 151.523809524 428.333333333 151.523809524 428.333333333 142 415 c 256,174,175
 133 401 133 401 121 400 c 1,176,-1
 121 400 l 1,161,162
182 400 m 1,177,178
 169 400 169 400 160 415 c 256,179,180
 152 429 152 429 152 450 c 0,181,182
 152 470 152 470 160 485 c 256,183,184
 169 499 169 499 181.5 499.5 c 128,-1,185
 194 500 194 500 203 485.5 c 128,-1,186
 212 471 212 471 212 450 c 128,-1,187
 212 429 212 429 203 414.5 c 128,-1,188
 194 400 194 400 182 400 c 1,189,-1
 182 400 l 1,177,178
273 400 m 1,190,191
 260 400 260 400 251 415 c 256,192,193
 242 429 242 429 242 450 c 0,194,195
 242 470 242 470 251 485 c 256,196,197
 260 499 260 499 272.5 499.5 c 128,-1,198
 285 500 285 500 294 485.5 c 128,-1,199
 303 471 303 471 303 450 c 128,-1,200
 303 429 303 429 294 414.5 c 128,-1,201
 285 400 285 400 273 400 c 1,202,-1
 273 400 l 1,190,191
30 500 m 1,203,204
 17 500 17 500 9 515 c 0,205,206
 0 529 0 529 0 550 c 256,207,208
 0 570 0 570 9 586 c 0,209,210
 18 600 18 600 30 600 c 256,211,212
 43 600 43 600 52 586 c 0,213,214
 61 571 61 571 61 550 c 256,215,216
 61 530 61 530 52 515 c 0,217,218
 43 501 43 501 30 500 c 1,219,-1
 30 500 l 1,203,204
91 500 m 1,220,221
 78 500 78 500 69 515 c 256,222,223
 60.9 527.6 60.9 527.6 60.9 545.87 c 0,224,225
 60.9 569.8 60.9 569.8 69 586 c 0,226,227
 78 600 78 600 91 600 c 128,-1,228
 104 600 104 600 112 586 c 0,229,230
 121 571 121 571 121 550 c 256,231,232
 121 530 121 530 112 515 c 256,233,234
 103 501 103 501 91 500 c 1,235,-1
 91 500 l 1,220,221
212 500 m 1,236,237
 198 500 198 500 190 515 c 0,238,239
 181.9 527.6 181.9 527.6 181.9 545.87 c 0,240,241
 181.9 569.8 181.9 569.8 190 586 c 0,242,243
 199 600 199 600 212 600 c 128,-1,244
 225 600 225 600 233 586 c 0,245,246
 242 571 242 571 242 550 c 256,247,248
 242 530 242 530 233 515 c 256,249,250
 224 501 224 501 212 500 c 1,251,-1
 212 500 l 1,236,237
273 500 m 1,252,253
 260 500 260 500 251 515 c 256,254,255
 242 529 242 529 242 550 c 256,256,257
 242 570 242 570 251 586 c 0,258,259
 260 600 260 600 272.5 600 c 128,-1,260
 285 600 285 600 294 586 c 0,261,262
 303 571 303 571 303 550 c 256,263,264
 303 530 303 530 294 515 c 0,265,266
 285 501 285 501 273 500 c 1,267,-1
 273 500 l 1,252,253
30 600 m 1,268,269
 17 600 17 600 9 614 c 0,270,271
 0 629 0 629 0 650 c 256,272,273
 0 670 0 670 9 685 c 0,274,275
 18 699 18 699 30 700 c 256,276,277
 43 700 43 700 52 685 c 0,278,279
 61 671 61 671 61 650 c 256,280,281
 61 630 61 630 52 614 c 0,282,283
 43 600 43 600 30 600 c 1,284,-1
 30 600 l 1,268,269
273 600 m 1,285,286
 260 600 260 600 251 614 c 0,287,288
 242 629 242 629 242 650 c 256,289,290
 242 670 242 670 251 685 c 256,291,292
 260 699 260 699 273 700 c 0,293,294
 286 700 286 700 294 685 c 0,295,296
 303 671 303 671 303 650 c 256,297,298
 303 630 303 630 294 614 c 0,299,300
 285 600 285 600 273 600 c 1,301,-1
 273 600 l 1,285,286
EndSplineSet
Validated: 524293
EndChar

StartChar: N
Encoding: 78 78 46
Width: 363
VWidth: 599
Flags: W
LayerCount: 2
Fore
SplineSet
30 0 m 1,0,1
 17 0 17 0 9 14 c 0,2,3
 0 29 0 29 0 50 c 256,4,5
 0 70 0 70 9 85 c 0,6,7
 18 99 18 99 30 100 c 256,8,9
 43 100 43 100 52 85 c 0,10,11
 61 71 61 71 61 50 c 256,12,13
 61 30 61 30 52 14 c 0,14,15
 43 0 43 0 30 0 c 1,16,-1
 30 0 l 1,0,1
273 0 m 1,17,18
 260 0 260 0 251 14 c 0,19,20
 242 29 242 29 242 50 c 256,21,22
 242 70 242 70 251 85 c 256,23,24
 260 99 260 99 273 100 c 0,25,26
 286 100 286 100 294 85 c 0,27,28
 303 71 303 71 303 50 c 256,29,30
 303 30 303 30 294 14 c 0,31,32
 285 0 285 0 273 0 c 1,33,-1
 273 0 l 1,17,18
30 100 m 1,34,35
 17 100 17 100 9 115 c 0,36,37
 0 129 0 129 0 150 c 0,38,39
 0 170 0 170 9 185 c 0,40,41
 18 199 18 199 30 200 c 256,42,43
 43 200 43 200 52 185 c 0,44,45
 61 171 61 171 61 150 c 128,-1,46
 61 129 61 129 52 115 c 128,-1,47
 43 101 43 101 30 100 c 1,48,-1
 30 100 l 1,34,35
212 100 m 1,49,50
 198 100 198 100 190 115 c 0,51,52
 181.9 127.6 181.9 127.6 181.9 145.87 c 0,53,54
 181.9 169.8125 181.9 169.8125 190 185 c 0,55,56
 199 199 199 199 212 200 c 0,57,58
 225 200 225 200 233 185 c 256,59,60
 242 171 242 171 242 150 c 128,-1,61
 242 129 242 129 233 115 c 256,62,63
 224 101 224 101 212 100 c 1,64,-1
 212 100 l 1,49,50
273 100 m 1,65,66
 260 100 260 100 251 115 c 256,67,68
 242 129 242 129 242 150 c 0,69,70
 242 170 242 170 251 185 c 256,71,72
 260 199 260 199 273 200 c 0,73,74
 286 200 286 200 294 185 c 0,75,76
 303 171 303 171 303 150 c 128,-1,77
 303 129 303 129 294 115 c 128,-1,78
 285 101 285 101 273 100 c 1,79,-1
 273 100 l 1,65,66
30 200 m 1,80,81
 17 200 17 200 9 215 c 0,82,83
 0 229 0 229 0 250 c 256,84,85
 0 270 0 270 9 286 c 0,86,87
 18 300 18 300 30 300 c 256,88,89
 43 300 43 300 52 286 c 0,90,91
 61 271 61 271 61 250 c 256,92,93
 61 230 61 230 52 215 c 0,94,95
 43 201 43 201 30 200 c 1,96,-1
 30 200 l 1,80,81
182 200 m 1,97,98
 169 200 169 200 160 215 c 256,99,100
 152 229 152 229 152 250 c 256,101,102
 152 270 152 270 160 286 c 0,103,104
 169 300 169 300 182 300 c 128,-1,105
 195 300 195 300 203 286 c 0,106,107
 212 271 212 271 212 250 c 256,108,109
 212 230 212 230 203 215 c 0,110,111
 194 201 194 201 182 200 c 1,112,-1
 182 200 l 1,97,98
273 200 m 1,113,114
 260 200 260 200 251 215 c 256,115,116
 242 229 242 229 242 250 c 256,117,118
 242 270 242 270 251 286 c 0,119,120
 260 300 260 300 273 300 c 128,-1,121
 286 300 286 300 294 286 c 0,122,123
 303 271 303 271 303 250 c 256,124,125
 303 230 303 230 294 215 c 0,126,127
 285 201 285 201 273 200 c 1,128,-1
 273 200 l 1,113,114
30 300 m 1,129,130
 17 300 17 300 9 314 c 0,131,132
 0 329 0 329 0 350 c 256,133,134
 0 370 0 370 9 385 c 0,135,136
 18 399 18 399 30 400 c 256,137,138
 43 400 43 400 52 385 c 0,139,140
 61 371 61 371 61 350 c 256,141,142
 61 330 61 330 52 314 c 0,143,144
 43 300 43 300 30 300 c 1,145,-1
 30 300 l 1,129,130
152 300 m 1,146,147
 139 300 139 300 130 314 c 0,148,149
 121 329 121 329 121 350 c 256,150,151
 121 370 121 370 130 385 c 0,152,153
 140 399 140 399 152 400 c 256,154,155
 165 400 165 400 173 385 c 0,156,157
 182 371 182 371 182 350 c 256,158,159
 182 330 182 330 173 314 c 0,160,161
 164 300 164 300 152 300 c 1,162,-1
 152 300 l 1,146,147
273 300 m 1,163,164
 260 300 260 300 251 314 c 0,165,166
 242 329 242 329 242 350 c 256,167,168
 242 370 242 370 251 385 c 256,169,170
 260 399 260 399 273 400 c 0,171,172
 286 400 286 400 294 385 c 0,173,174
 303 371 303 371 303 350 c 256,175,176
 303 330 303 330 294 314 c 0,177,178
 285 300 285 300 273 300 c 1,179,-1
 273 300 l 1,163,164
30 400 m 1,180,181
 17 400 17 400 9 415 c 0,182,183
 0 429 0 429 0 450 c 0,184,185
 0 470 0 470 9 485 c 0,186,187
 18 499 18 499 30 500 c 256,188,189
 43 500 43 500 52 485 c 0,190,191
 61 471 61 471 61 450 c 128,-1,192
 61 429 61 429 52 415 c 128,-1,193
 43 401 43 401 30 400 c 1,194,-1
 30 400 l 1,180,181
121 400 m 1,195,196
 108 400 108 400 100 415 c 0,197,198
 91 429 91 429 91 450 c 0,199,200
 91 470 91 470 100 485 c 0,201,202
 109 499 109 499 121 500 c 0,203,204
 134 500 134 500 142 485 c 256,205,206
 152 471 152 471 152 450 c 128,-1,207
 152 429 152 429 142 415 c 256,208,209
 133 401 133 401 121 400 c 1,210,-1
 121 400 l 1,195,196
273 400 m 1,211,212
 260 400 260 400 251 415 c 256,213,214
 242 429 242 429 242 450 c 0,215,216
 242 470 242 470 251 485 c 256,217,218
 260 499 260 499 273 500 c 0,219,220
 286 500 286 500 294 485 c 0,221,222
 303 471 303 471 303 450 c 128,-1,223
 303 429 303 429 294 415 c 128,-1,224
 285 401 285 401 273 400 c 1,225,-1
 273 400 l 1,211,212
30 500 m 1,226,227
 17 500 17 500 9 515 c 0,228,229
 0 529 0 529 0 550 c 256,230,231
 0 570 0 570 9 586 c 0,232,233
 18 600 18 600 30 600 c 256,234,235
 43 600 43 600 52 586 c 0,236,237
 61 571 61 571 61 550 c 256,238,239
 61 530 61 530 52 515 c 0,240,241
 43 501 43 501 30 500 c 1,242,-1
 30 500 l 1,226,227
91 500 m 1,243,244
 78 500 78 500 69 515 c 256,245,246
 60.9 527.6 60.9 527.6 60.9 545.87 c 0,247,248
 60.9 569.8 60.9 569.8 69 586 c 0,249,250
 78 600 78 600 91 600 c 128,-1,251
 104 600 104 600 112 586 c 0,252,253
 121 571 121 571 121 550 c 256,254,255
 121 530 121 530 112 515 c 256,256,257
 103 501 103 501 91 500 c 1,258,-1
 91 500 l 1,243,244
273 500 m 1,259,260
 260 500 260 500 251 515 c 256,261,262
 242 529 242 529 242 550 c 256,263,264
 242 570 242 570 251 586 c 0,265,266
 260 600 260 600 273 600 c 128,-1,267
 286 600 286 600 294 586 c 0,268,269
 303 571 303 571 303 550 c 256,270,271
 303 530 303 530 294 515 c 0,272,273
 285 501 285 501 273 500 c 1,274,-1
 273 500 l 1,259,260
30 600 m 1,275,276
 17 600 17 600 9 614 c 0,277,278
 0 629 0 629 0 650 c 256,279,280
 0 670 0 670 9 685 c 0,281,282
 18 699 18 699 30 700 c 256,283,284
 43 700 43 700 52 685 c 0,285,286
 61 671 61 671 61 650 c 256,287,288
 61 630 61 630 52 614 c 0,289,290
 43 600 43 600 30 600 c 1,291,-1
 30 600 l 1,275,276
273 600 m 1,292,293
 260 600 260 600 251 614 c 0,294,295
 242 629 242 629 242 650 c 256,296,297
 242 670 242 670 251 685 c 256,298,299
 260 699 260 699 273 700 c 0,300,301
 286 700 286 700 294 685 c 0,302,303
 303 671 303 671 303 650 c 256,304,305
 303 630 303 630 294 614 c 0,306,307
 285 600 285 600 273 600 c 1,308,-1
 273 600 l 1,292,293
EndSplineSet
Validated: 524293
EndChar

